<svg xmlns="http://www.w3.org/2000/svg" xmlns:xlink="http://www.w3.org/1999/xlink" width="900" zoomAndPan="magnify" viewBox="0 0 675 149.999998" height="200" preserveAspectRatio="xMidYMid meet" version="1.0"><defs><g/><clipPath id="3b19c3d2a3"><path d="M 549.03125 40.96875 L 565.96875 40.96875 L 565.96875 57.90625 L 549.03125 57.90625 Z M 549.03125 40.96875 " clip-rule="nonzero"/></clipPath><clipPath id="4077541fcb"><path d="M 557.5 40.96875 C 552.824219 40.96875 549.03125 44.761719 549.03125 49.4375 C 549.03125 54.113281 552.824219 57.90625 557.5 57.90625 C 562.175781 57.90625 565.96875 54.113281 565.96875 49.4375 C 565.96875 44.761719 562.175781 40.96875 557.5 40.96875 " clip-rule="nonzero"/></clipPath></defs><g fill="#38b6ff" fill-opacity="1"><g transform="translate(8.467082, 107.308812)"><g><path d="M 24.867188 -33.128906 C 16.210938 -35.804688 14.164062 -37.457031 14.164062 -40.054688 C 14.164062 -43.675781 18.179688 -45.25 22.585938 -45.171875 C 26.597656 -45.089844 31.082031 -43.203125 31.792969 -39.742188 L 41.078125 -43.203125 C 39.503906 -51.070312 30.925781 -55.558594 22.507812 -55.558594 C 8.339844 -55.558594 3.070312 -46.902344 3.070312 -39.660156 C 3.070312 -31.554688 8.261719 -26.753906 20.933594 -22.980469 C 29.902344 -20.304688 32.578125 -18.886719 32.578125 -15.582031 C 32.578125 -12.199219 29.117188 -9.679688 22.742188 -9.679688 C 16.996094 -9.679688 12.199219 -12.277344 11.175781 -16.445312 L 1.574219 -12.75 C 3.148438 -4.800781 12.90625 0.945312 23.6875 0.945312 C 37.378906 0.945312 43.753906 -6.847656 43.753906 -15.976562 C 43.753906 -26.203125 35.726562 -29.824219 24.867188 -33.128906 Z M 24.867188 -33.128906 "/></g></g></g><g fill="#38b6ff" fill-opacity="1"><g transform="translate(54.185916, 107.308812)"><g><path d="M 19.121094 -38.480469 C 9.679688 -38.480469 4.09375 -32.265625 3.382812 -27.308594 L 12.117188 -25.417969 C 12.75 -28.328125 15.1875 -29.824219 18.414062 -29.902344 C 22.113281 -30.0625 24.550781 -27.699219 24 -25.417969 C 23.53125 -23.292969 20.855469 -23.292969 14.480469 -21.875 C 6.453125 -20.144531 0.785156 -17.234375 0.785156 -8.972656 C 1.101562 -3.226562 5.195312 0.628906 12.589844 0.628906 C 19.042969 0.628906 22.820312 -2.125 24.238281 -3.542969 L 24.238281 0 L 34.625 0 L 34.625 -23.6875 C 34.625 -34.703125 27.386719 -38.480469 19.121094 -38.480469 Z M 24.238281 -15.503906 C 23.921875 -11.332031 21.011719 -8.105469 16.917969 -7.476562 C 14.558594 -7.082031 12.199219 -7.554688 11.566406 -9.285156 C 10.859375 -11.175781 11.960938 -13.691406 15.816406 -14.714844 C 20.773438 -15.976562 24.238281 -16.683594 24.238281 -16.683594 Z M 24.238281 -15.503906 "/></g></g></g><g fill="#38b6ff" fill-opacity="1"><g transform="translate(92.743975, 107.308812)"><g><path d="M 2.753906 -59.019531 L 2.753906 0 L 13.21875 0 L 13.21875 -59.019531 Z M 2.753906 -59.019531 "/></g></g></g><g fill="#38b6ff" fill-opacity="1"><g transform="translate(109.89837, 107.308812)"><g><path d="M 36.828125 -15.1875 C 37.066406 -16.367188 37.144531 -17.628906 37.144531 -18.964844 C 37.144531 -29.902344 30.453125 -38.480469 19.59375 -38.480469 C 8.65625 -38.480469 0.785156 -29.902344 0.785156 -18.964844 C 0.785156 -8.027344 9.050781 0.628906 19.988281 0.628906 C 26.914062 0.628906 32.5 -2.832031 35.648438 -8.105469 L 26.992188 -12.355469 C 25.496094 -10.230469 23.058594 -8.972656 19.988281 -8.972656 C 15.660156 -8.972656 12.75 -11.488281 11.566406 -15.1875 Z M 19.59375 -28.960938 C 24 -28.960938 26.363281 -26.285156 27.226562 -22.507812 L 11.488281 -22.507812 C 12.433594 -26.285156 15.1875 -28.960938 19.59375 -28.960938 Z M 19.59375 -28.960938 "/></g></g></g><g fill="#38b6ff" fill-opacity="1"><g transform="translate(149.400701, 107.308812)"><g><path d="M 19.042969 -23.214844 C 13.0625 -25.023438 11.960938 -25.96875 11.882812 -27.386719 C 11.804688 -28.410156 12.828125 -30.375 16.839844 -30.0625 C 19.753906 -29.824219 21.011719 -28.015625 21.40625 -26.753906 L 29.429688 -29.039062 C 28.878906 -32.5 24.550781 -38.402344 15.425781 -38.402344 C 5.585938 -38.402344 1.335938 -32.894531 1.101562 -27.621094 C 0.867188 -21.40625 4.484375 -18.570312 12.75 -15.660156 C 18.019531 -13.851562 19.832031 -13.613281 19.910156 -11.488281 C 19.988281 -9.441406 16.839844 -8.734375 14.007812 -8.890625 C 11.332031 -9.050781 8.027344 -10.625 7.238281 -12.589844 L -0.394531 -8.5 C 0.867188 -3.855469 7.871094 0.550781 15.816406 0.550781 C 24.550781 0.550781 30.691406 -4.09375 30.925781 -10.9375 C 31.164062 -16.683594 27.9375 -20.460938 19.042969 -23.214844 Z M 19.042969 -23.214844 "/></g></g></g><g fill="#38b6ff" fill-opacity="1"><g transform="translate(181.97832, 107.308812)"><g><path d="M 20.855469 -45.328125 C 23.058594 -45.25 24.472656 -44.070312 25.101562 -43.515625 L 30.691406 -50.835938 C 28.015625 -53.433594 23.921875 -55.558594 19.4375 -55.558594 C 10.703125 -55.558594 5.902344 -50.285156 5.902344 -37.929688 L 0.785156 -37.929688 L 0.785156 -27.9375 L 5.902344 -27.9375 L 5.902344 0.078125 L 16.367188 0.078125 L 16.367188 -27.9375 L 24.710938 -27.9375 L 24.710938 -37.929688 L 16.367188 -37.929688 L 16.367188 -38.953125 C 16.367188 -43.046875 17.3125 -45.484375 20.855469 -45.328125 Z M 20.855469 -45.328125 "/></g></g></g><g fill="#38b6ff" fill-opacity="1"><g transform="translate(211.093581, 107.308812)"><g><path d="M 20.382812 -38.480469 C 9.441406 -38.480469 1.179688 -29.902344 1.179688 -18.964844 C 1.179688 -8.027344 9.441406 0.628906 20.382812 0.628906 C 31.320312 0.628906 39.582031 -8.027344 39.582031 -18.964844 C 39.582031 -29.902344 31.320312 -38.480469 20.382812 -38.480469 Z M 20.382812 -8.972656 C 14.714844 -8.972656 11.410156 -13.300781 11.410156 -18.964844 C 11.410156 -24.632812 14.714844 -28.960938 20.382812 -28.960938 C 26.046875 -28.960938 29.351562 -24.632812 29.351562 -18.964844 C 29.351562 -13.300781 26.046875 -8.972656 20.382812 -8.972656 Z M 20.382812 -8.972656 "/></g></g></g><g fill="#38b6ff" fill-opacity="1"><g transform="translate(253.035296, 107.308812)"><g><path d="M 21.640625 -38.480469 C 18.097656 -38.480469 15.109375 -36.984375 12.828125 -34.625 L 12.828125 -37.929688 L 2.359375 -37.929688 L 2.359375 0 L 12.828125 0 L 12.828125 -20.617188 C 12.828125 -26.203125 15.425781 -28.722656 19.121094 -28.722656 C 20.539062 -28.722656 21.71875 -28.410156 22.664062 -27.777344 L 24.632812 -38.246094 C 23.6875 -38.402344 22.664062 -38.480469 21.640625 -38.480469 Z M 21.640625 -38.480469 "/></g></g></g><g fill="#38b6ff" fill-opacity="1"><g transform="translate(278.45214, 107.308812)"><g><path d="M 19.988281 -8.972656 C 14.320312 -8.972656 11.097656 -13.300781 11.097656 -18.964844 C 11.097656 -24.632812 14.320312 -28.960938 19.988281 -28.960938 C 23.136719 -28.960938 25.496094 -27.621094 26.992188 -25.574219 L 35.648438 -29.746094 C 32.5 -35.019531 26.914062 -38.480469 19.988281 -38.480469 C 9.050781 -38.480469 0.785156 -29.902344 0.785156 -18.964844 C 0.785156 -8.027344 9.050781 0.628906 19.988281 0.628906 C 26.914062 0.628906 32.5 -2.832031 35.648438 -8.105469 L 26.992188 -12.355469 C 25.496094 -10.230469 23.136719 -8.972656 19.988281 -8.972656 Z M 19.988281 -8.972656 "/></g></g></g><g fill="#38b6ff" fill-opacity="1"><g transform="translate(315.672447, 107.308812)"><g><path d="M 36.828125 -15.1875 C 37.066406 -16.367188 37.144531 -17.628906 37.144531 -18.964844 C 37.144531 -29.902344 30.453125 -38.480469 19.59375 -38.480469 C 8.65625 -38.480469 0.785156 -29.902344 0.785156 -18.964844 C 0.785156 -8.027344 9.050781 0.628906 19.988281 0.628906 C 26.914062 0.628906 32.5 -2.832031 35.648438 -8.105469 L 26.992188 -12.355469 C 25.496094 -10.230469 23.058594 -8.972656 19.988281 -8.972656 C 15.660156 -8.972656 12.75 -11.488281 11.566406 -15.1875 Z M 19.59375 -28.960938 C 24 -28.960938 26.363281 -26.285156 27.226562 -22.507812 L 11.488281 -22.507812 C 12.433594 -26.285156 15.1875 -28.960938 19.59375 -28.960938 Z M 19.59375 -28.960938 "/></g></g></g><g fill="#ffffff" fill-opacity="1"><g transform="translate(365.080532, 104.204314)"><g><path d="M 27.019531 -12.257812 C 25.898438 -11.222656 23.738281 -10.53125 22.183594 -10.53125 C 18.558594 -10.53125 17.609375 -12.777344 17.609375 -16.488281 L 17.609375 -30.558594 L 27.277344 -30.558594 L 27.277344 -41.609375 L 17.609375 -41.609375 L 17.609375 -53.523438 L 6.128906 -50.933594 L 6.128906 -41.609375 L 0.429688 -41.609375 L 0.429688 -30.558594 L 6.128906 -30.558594 L 6.128906 -12.777344 C 6.128906 -4.144531 11.050781 0.429688 19.855469 0.429688 C 24.773438 0.429688 28.660156 -1.382812 30.816406 -3.453125 Z M 27.019531 -12.257812 "/></g></g></g><g fill="#ffffff" fill-opacity="1"><g transform="translate(397.623282, 104.204314)"><g><path d="M 27.710938 -41.609375 L 27.710938 -18.300781 C 27.710938 -13.121094 25.121094 -10.101562 21.0625 -10.101562 C 16.917969 -10.101562 14.15625 -12.515625 14.15625 -18.558594 L 14.15625 -41.609375 L 2.589844 -41.609375 L 2.589844 -18.992188 C 2.589844 -6.214844 8.460938 0.605469 18.042969 0.605469 C 21.925781 0.605469 25.207031 -1.035156 27.710938 -3.625 L 27.710938 0 L 39.191406 0 L 39.191406 -41.609375 Z M 27.710938 -41.609375 "/></g></g></g><g fill="#ffffff" fill-opacity="1"><g transform="translate(441.128704, 104.204314)"><g><path d="M 27.019531 -12.257812 C 25.898438 -11.222656 23.738281 -10.53125 22.183594 -10.53125 C 18.558594 -10.53125 17.609375 -12.777344 17.609375 -16.488281 L 17.609375 -30.558594 L 27.277344 -30.558594 L 27.277344 -41.609375 L 17.609375 -41.609375 L 17.609375 -53.523438 L 6.128906 -50.933594 L 6.128906 -41.609375 L 0.429688 -41.609375 L 0.429688 -30.558594 L 6.128906 -30.558594 L 6.128906 -12.777344 C 6.128906 -4.144531 11.050781 0.429688 19.855469 0.429688 C 24.773438 0.429688 28.660156 -1.382812 30.816406 -3.453125 Z M 27.019531 -12.257812 "/></g></g></g><g fill="#ffffff" fill-opacity="1"><g transform="translate(473.671453, 104.204314)"><g><path d="M 22.359375 -42.214844 C 10.359375 -42.214844 1.292969 -32.804688 1.292969 -20.804688 C 1.292969 -8.804688 10.359375 0.691406 22.359375 0.691406 C 34.355469 0.691406 43.421875 -8.804688 43.421875 -20.804688 C 43.421875 -32.804688 34.355469 -42.214844 22.359375 -42.214844 Z M 22.359375 -9.839844 C 16.144531 -9.839844 12.515625 -14.589844 12.515625 -20.804688 C 12.515625 -27.019531 16.144531 -31.769531 22.359375 -31.769531 C 28.574219 -31.769531 32.199219 -27.019531 32.199219 -20.804688 C 32.199219 -14.589844 28.574219 -9.839844 22.359375 -9.839844 Z M 22.359375 -9.839844 "/></g></g></g><g fill="#ffffff" fill-opacity="1"><g transform="translate(519.680156, 104.204314)"><g><path d="M 23.738281 -42.214844 C 19.855469 -42.214844 16.574219 -40.574219 14.070312 -37.984375 L 14.070312 -41.609375 L 2.589844 -41.609375 L 2.589844 0 L 14.070312 0 L 14.070312 -22.617188 C 14.070312 -28.746094 16.917969 -31.507812 20.976562 -31.507812 C 22.53125 -31.507812 23.824219 -31.164062 24.863281 -30.472656 L 27.019531 -41.953125 C 25.984375 -42.125 24.863281 -42.214844 23.738281 -42.214844 Z M 23.738281 -42.214844 "/></g></g></g><g fill="#ffffff" fill-opacity="1"><g transform="translate(547.5616, 104.204314)"><g><path d="M 9.0625 -47.390625 C 12.601562 -47.390625 15.453125 -50.242188 15.453125 -53.78125 C 15.453125 -57.40625 12.601562 -60.253906 9.0625 -60.253906 C 5.4375 -60.253906 2.589844 -57.40625 2.589844 -53.78125 C 2.589844 -50.242188 5.4375 -47.390625 9.0625 -47.390625 Z M 3.28125 0 L 14.761719 0 L 14.761719 -41.609375 L 3.28125 -41.609375 Z M 3.28125 0 "/></g></g></g><g fill="#ffffff" fill-opacity="1"><g transform="translate(567.328933, 104.204314)"><g><path d="M 20.976562 -42.214844 C 10.617188 -42.214844 4.488281 -35.394531 3.710938 -29.953125 L 13.292969 -27.882812 C 13.984375 -31.078125 16.660156 -32.71875 20.199219 -32.804688 C 24.257812 -32.976562 26.933594 -30.386719 26.328125 -27.882812 C 25.8125 -25.550781 22.875 -25.550781 15.882812 -24 C 7.078125 -22.097656 0.863281 -18.90625 0.863281 -9.839844 C 1.207031 -3.539062 5.699219 0.691406 13.8125 0.691406 C 20.890625 0.691406 25.035156 -2.332031 26.589844 -3.882812 L 26.589844 0 L 37.984375 0 L 37.984375 -25.984375 C 37.984375 -38.070312 30.042969 -42.214844 20.976562 -42.214844 Z M 26.589844 -17.007812 C 26.242188 -12.429688 23.046875 -8.890625 18.558594 -8.199219 C 15.96875 -7.769531 13.378906 -8.289062 12.691406 -10.1875 C 11.914062 -12.257812 13.121094 -15.019531 17.351562 -16.144531 C 22.789062 -17.523438 26.589844 -18.300781 26.589844 -18.300781 Z M 26.589844 -17.007812 "/></g></g></g><g fill="#ffffff" fill-opacity="1"><g transform="translate(609.625882, 104.204314)"><g><path d="M 3.019531 -64.742188 L 3.019531 0 L 14.503906 0 L 14.503906 -64.742188 Z M 3.019531 -64.742188 "/></g></g></g><g fill="#ffffff" fill-opacity="1"><g transform="translate(628.443699, 104.204314)"><g><path d="M 20.890625 -25.464844 C 14.328125 -27.453125 13.121094 -28.488281 13.035156 -30.042969 C 12.949219 -31.164062 14.070312 -33.320312 18.472656 -32.976562 C 21.667969 -32.71875 23.046875 -30.730469 23.480469 -29.351562 L 32.285156 -31.855469 C 31.679688 -35.652344 26.933594 -42.125 16.917969 -42.125 C 6.128906 -42.125 1.46875 -36.082031 1.207031 -30.300781 C 0.949219 -23.480469 4.921875 -20.371094 13.984375 -17.179688 C 19.769531 -15.191406 21.753906 -14.933594 21.839844 -12.601562 C 21.925781 -10.359375 18.472656 -9.582031 15.367188 -9.753906 C 12.429688 -9.925781 8.804688 -11.652344 7.941406 -13.8125 L -0.429688 -9.324219 C 0.949219 -4.230469 8.632812 0.605469 17.351562 0.605469 C 26.933594 0.605469 33.667969 -4.488281 33.925781 -12 C 34.183594 -18.300781 30.644531 -22.445312 20.890625 -25.464844 Z M 20.890625 -25.464844 "/></g></g></g><g clip-path="url(#3b19c3d2a3)"><g clip-path="url(#4077541fcb)"><path fill="#1cff07" d="M 549.03125 40.96875 L 565.96875 40.96875 L 565.96875 57.90625 L 549.03125 57.90625 Z M 549.03125 40.96875 " fill-opacity="1" fill-rule="nonzero"/></g></g></svg>