<svg xmlns="http://www.w3.org/2000/svg" xmlns:xlink="http://www.w3.org/1999/xlink" width="405" zoomAndPan="magnify" viewBox="0 0 303.75 170.249993" height="227" preserveAspectRatio="xMidYMid meet" version="1.0"><defs><clipPath id="43f00955ed"><path d="M 0.542969 0 L 302.960938 0 L 302.960938 169.503906 L 0.542969 169.503906 Z M 0.542969 0 " clip-rule="nonzero"/></clipPath><clipPath id="0cea74a7f3"><path d="M 120 91 L 184 91 L 184 118.898438 L 120 118.898438 Z M 120 91 " clip-rule="nonzero"/></clipPath><clipPath id="1459d5410b"><path d="M 108.070312 72 L 153 72 L 153 96 L 108.070312 96 Z M 108.070312 72 " clip-rule="nonzero"/></clipPath><clipPath id="83b7a4680a"><path d="M 150 72 L 195.507812 72 L 195.507812 96 L 150 96 Z M 150 72 " clip-rule="nonzero"/></clipPath><clipPath id="15007b1588"><path d="M 150 51 L 195.507812 51 L 195.507812 75 L 150 75 Z M 150 51 " clip-rule="nonzero"/></clipPath><clipPath id="a98ab799c5"><path d="M 108.070312 51 L 153 51 L 153 75 L 108.070312 75 Z M 108.070312 51 " clip-rule="nonzero"/></clipPath><clipPath id="5df6c4f7ef"><path d="M 150 79 L 153 79 L 153 118.898438 L 150 118.898438 Z M 150 79 " clip-rule="nonzero"/></clipPath></defs><g clip-path="url(#43f00955ed)"><path fill="#ffffff" d="M 0.542969 0 L 303.207031 0 L 303.207031 177.117188 L 0.542969 177.117188 Z M 0.542969 0 " fill-opacity="1" fill-rule="nonzero"/><path fill="#ffffff" d="M 0.542969 0 L 303.207031 0 L 303.207031 169.644531 L 0.542969 169.644531 Z M 0.542969 0 " fill-opacity="1" fill-rule="nonzero"/><path fill="#ff6666" d="M 0.542969 0 L 303.207031 0 L 303.207031 169.644531 L 0.542969 169.644531 Z M 0.542969 0 " fill-opacity="1" fill-rule="nonzero"/></g><path fill="#ffffff" d="M 151.816406 79.710938 C 151.867188 79.675781 151.921875 79.648438 151.980469 79.625 C 151.871094 79.628906 151.761719 79.628906 151.652344 79.625 C 151.707031 79.648438 151.761719 79.675781 151.816406 79.710938 Z M 151.816406 79.710938 " fill-opacity="1" fill-rule="nonzero"/><path fill="#ffffff" d="M 180.878906 72.621094 C 180.878906 72.621094 180.878906 72.621094 180.882812 72.621094 C 180.890625 72.617188 180.894531 72.617188 180.902344 72.617188 C 180.9375 72.605469 180.933594 72.601562 180.878906 72.621094 Z M 180.878906 72.621094 " fill-opacity="1" fill-rule="nonzero"/><path fill="#ffffff" d="M 181.589844 109.664062 C 181.71875 109.585938 181.5 109.660156 181.589844 109.664062 Z M 181.589844 109.664062 " fill-opacity="1" fill-rule="nonzero"/><g clip-path="url(#0cea74a7f3)"><path fill="#ffffff" d="M 181.679688 91.488281 C 181.679688 92.355469 181.679688 93.226562 181.679688 94.09375 C 181.679688 97.722656 181.679688 101.351562 181.679688 104.984375 C 181.679688 106.117188 181.679688 107.253906 181.679688 108.386719 C 181.679688 108.6875 181.679688 108.988281 181.679688 109.285156 C 181.679688 109.359375 181.679688 109.425781 181.679688 109.5 C 181.679688 109.511719 181.679688 109.523438 181.679688 109.539062 C 181.679688 109.539062 181.679688 109.542969 181.679688 109.542969 C 181.679688 109.554688 181.679688 109.5625 181.679688 109.566406 C 181.675781 109.570312 181.675781 109.574219 181.671875 109.582031 C 181.667969 109.589844 181.660156 109.601562 181.652344 109.617188 C 181.648438 109.621094 181.648438 109.625 181.644531 109.628906 C 181.636719 109.632812 181.632812 109.640625 181.628906 109.644531 C 181.621094 109.648438 181.605469 109.65625 181.589844 109.664062 C 181.59375 109.664062 181.601562 109.664062 181.613281 109.664062 C 181.601562 109.664062 181.59375 109.664062 181.585938 109.664062 C 181.582031 109.667969 181.578125 109.667969 181.574219 109.671875 C 181.578125 109.667969 181.582031 109.667969 181.585938 109.664062 C 181.5 109.671875 181.4375 109.667969 181.320312 109.695312 C 181.304688 109.699219 181.292969 109.703125 181.277344 109.707031 C 181.199219 109.726562 181.121094 109.746094 181.042969 109.765625 C 180.710938 109.847656 180.378906 109.929688 180.046875 110.011719 C 178.804688 110.320312 177.5625 110.628906 176.320312 110.9375 C 172.59375 111.859375 168.867188 112.785156 165.140625 113.710938 C 161.785156 114.542969 158.429688 115.375 155.074219 116.207031 C 154.296875 116.402344 153.519531 116.59375 152.742188 116.789062 C 152.691406 116.800781 152.640625 116.8125 152.59375 116.824219 C 152.589844 116.824219 152.589844 116.824219 152.585938 116.824219 C 152.472656 116.855469 152.363281 116.902344 152.25 116.933594 C 152.277344 116.925781 151.984375 116.972656 152.042969 116.972656 C 151.878906 116.988281 151.71875 116.980469 151.558594 116.964844 C 151.644531 116.972656 151.464844 116.949219 151.4375 116.941406 C 151.359375 116.925781 151.285156 116.90625 151.210938 116.882812 C 151.1875 116.878906 151.160156 116.867188 151.128906 116.855469 C 151.105469 116.84375 151.089844 116.835938 151.058594 116.828125 C 151.042969 116.820312 151.035156 116.820312 151.050781 116.828125 C 151.050781 116.824219 151.046875 116.824219 151.042969 116.824219 C 151.027344 116.820312 151.011719 116.816406 150.996094 116.8125 C 150.914062 116.792969 150.832031 116.773438 150.753906 116.753906 C 148.332031 116.152344 145.910156 115.550781 143.488281 114.949219 C 139.628906 113.992188 135.765625 113.035156 131.902344 112.074219 C 129.03125 111.363281 126.160156 110.648438 123.289062 109.9375 C 123.007812 109.867188 122.730469 109.800781 122.453125 109.730469 C 122.40625 109.71875 122.359375 109.707031 122.3125 109.695312 C 122.234375 109.679688 122.179688 109.667969 122.074219 109.664062 C 122.066406 109.664062 122.058594 109.664062 122.050781 109.660156 C 122.042969 109.660156 122.03125 109.65625 122.019531 109.652344 C 122.019531 109.652344 122.019531 109.652344 122.015625 109.652344 C 122.121094 109.675781 122.011719 109.617188 122 109.628906 C 121.984375 109.613281 121.972656 109.59375 121.960938 109.582031 C 121.960938 109.574219 121.957031 109.570312 121.957031 109.558594 C 121.957031 109.554688 121.957031 109.546875 121.957031 109.539062 C 121.957031 109.054688 121.957031 108.570312 121.957031 108.085938 C 121.957031 105.164062 121.957031 102.242188 121.957031 99.320312 C 121.957031 96.710938 121.957031 94.101562 121.957031 91.488281 C 121.515625 91.382812 121.078125 91.277344 120.640625 91.171875 C 120.488281 91.132812 120.335938 91.097656 120.179688 91.058594 C 120.179688 91.289062 120.179688 91.523438 120.179688 91.753906 C 120.179688 95.582031 120.179688 99.410156 120.179688 103.238281 C 120.179688 105.296875 120.179688 107.351562 120.179688 109.410156 C 120.179688 110.167969 120.523438 110.90625 121.234375 111.246094 C 121.464844 111.355469 121.667969 111.398438 121.910156 111.433594 C 121.988281 111.453125 122.066406 111.46875 122.144531 111.492188 C 123.03125 111.710938 123.917969 111.929688 124.804688 112.148438 C 128.257812 113.007812 131.710938 113.863281 135.164062 114.71875 C 138.832031 115.628906 142.496094 116.539062 146.164062 117.449219 C 147.316406 117.734375 148.46875 118.019531 149.621094 118.308594 C 149.894531 118.375 150.167969 118.441406 150.441406 118.511719 C 150.484375 118.523438 150.527344 118.53125 150.574219 118.542969 C 150.339844 118.484375 150.242188 118.40625 150.589844 118.550781 C 150.652344 118.578125 150.722656 118.597656 150.789062 118.617188 C 151.164062 118.726562 151.570312 118.769531 151.960938 118.757812 C 152.433594 118.746094 152.871094 118.589844 153.324219 118.476562 C 153.652344 118.394531 153.980469 118.316406 154.308594 118.234375 C 155.546875 117.925781 156.78125 117.621094 158.015625 117.316406 C 161.738281 116.390625 165.460938 115.464844 169.183594 114.542969 C 172.546875 113.710938 175.910156 112.875 179.273438 112.039062 C 180.058594 111.84375 180.84375 111.648438 181.632812 111.453125 C 181.683594 111.441406 181.738281 111.429688 181.789062 111.414062 C 181.789062 111.414062 181.792969 111.414062 181.796875 111.414062 C 181.375 111.519531 181.9375 111.40625 181.960938 111.402344 C 182.039062 111.382812 182.113281 111.363281 182.1875 111.335938 C 182.644531 111.164062 183.042969 110.839844 183.253906 110.386719 C 183.421875 110.027344 183.453125 109.671875 183.453125 109.289062 C 183.453125 107.074219 183.453125 104.859375 183.453125 102.644531 C 183.453125 98.78125 183.453125 94.921875 183.453125 91.058594 C 182.859375 91.203125 182.269531 91.347656 181.679688 91.488281 Z M 122.007812 109.648438 C 122.003906 109.648438 121.996094 109.644531 121.992188 109.644531 C 121.996094 109.644531 122.003906 109.644531 122.007812 109.648438 Z M 121.984375 109.625 C 121.976562 109.613281 121.96875 109.605469 121.964844 109.597656 C 121.964844 109.597656 121.964844 109.597656 121.964844 109.59375 C 121.96875 109.605469 121.976562 109.613281 121.984375 109.625 Z M 121.957031 109.585938 C 121.957031 109.585938 121.960938 109.589844 121.960938 109.59375 L 121.960938 109.597656 C 121.960938 109.59375 121.957031 109.589844 121.957031 109.585938 Z M 121.960938 109.582031 C 121.957031 109.578125 121.957031 109.578125 121.953125 109.578125 C 121.953125 109.570312 121.953125 109.566406 121.953125 109.558594 C 121.957031 109.566406 121.957031 109.574219 121.960938 109.582031 Z M 121.84375 111.414062 C 121.859375 111.417969 121.878906 111.421875 121.894531 111.425781 C 121.898438 111.429688 121.902344 111.429688 121.90625 111.429688 C 121.78125 111.410156 121.796875 111.402344 121.84375 111.414062 Z M 121.933594 111.433594 C 121.953125 111.4375 121.972656 111.4375 121.988281 111.441406 C 121.96875 111.4375 121.953125 111.4375 121.933594 111.433594 Z M 121.933594 111.433594 " fill-opacity="1" fill-rule="nonzero"/></g><path fill="#ffffff" d="M 181.585938 109.660156 L 181.589844 109.660156 L 181.589844 109.664062 L 181.585938 109.664062 Z M 181.585938 109.660156 " fill-opacity="1" fill-rule="nonzero"/><g clip-path="url(#1459d5410b)"><path fill="#ffffff" d="M 152.46875 82.246094 C 152.824219 81.507812 152.75 80.742188 152.246094 80.097656 C 152.066406 79.867188 151.78125 79.640625 151.492188 79.570312 C 151.394531 79.546875 151.292969 79.523438 151.195312 79.496094 C 150.667969 79.371094 150.136719 79.242188 149.609375 79.113281 C 147.585938 78.625 145.558594 78.132812 143.53125 77.644531 C 140.871094 77 138.207031 76.355469 135.542969 75.714844 C 133.035156 75.105469 130.523438 74.5 128.011719 73.890625 C 126.441406 73.511719 124.871094 73.132812 123.300781 72.753906 C 123.144531 72.714844 122.992188 72.679688 122.839844 72.640625 C 122.808594 72.632812 122.777344 72.625 122.742188 72.617188 C 122.738281 72.617188 122.734375 72.617188 122.730469 72.613281 C 122.78125 72.636719 122.835938 72.65625 122.890625 72.679688 C 122.800781 72.640625 122.710938 72.605469 122.621094 72.566406 C 122.570312 72.542969 122.511719 72.53125 122.457031 72.519531 C 122.273438 72.480469 122.078125 72.457031 121.886719 72.480469 C 121.472656 72.527344 121.136719 72.667969 120.804688 72.929688 C 120.667969 73.035156 120.566406 73.164062 120.464844 73.308594 C 120.398438 73.402344 120.332031 73.46875 120.507812 73.277344 C 120.480469 73.304688 120.453125 73.335938 120.429688 73.363281 C 120.269531 73.535156 120.109375 73.703125 119.953125 73.871094 C 118.410156 75.519531 116.867188 77.167969 115.328125 78.816406 C 113.601562 80.65625 111.878906 82.5 110.15625 84.34375 C 109.753906 84.769531 109.351562 85.199219 108.953125 85.625 C 108.085938 86.554688 108.640625 88.269531 109.851562 88.5625 C 111.085938 88.859375 112.320312 89.160156 113.554688 89.457031 C 115.917969 90.027344 118.277344 90.597656 120.640625 91.171875 C 123.335938 91.820312 126.035156 92.472656 128.734375 93.125 C 130.980469 93.667969 133.226562 94.214844 135.472656 94.757812 C 136.480469 95 137.484375 95.242188 138.492188 95.484375 C 138.554688 95.5 138.527344 95.515625 138.34375 95.425781 C 138.742188 95.617188 139.148438 95.667969 139.582031 95.59375 C 139.925781 95.53125 140.203125 95.351562 140.472656 95.140625 C 140.605469 95.039062 140.707031 94.882812 140.800781 94.75 C 140.921875 94.582031 140.667969 94.886719 140.726562 94.824219 C 140.816406 94.726562 140.910156 94.625 141.003906 94.527344 C 141.554688 93.941406 142.101562 93.355469 142.652344 92.769531 C 144.460938 90.832031 146.273438 88.898438 148.082031 86.964844 C 149.433594 85.523438 150.78125 84.078125 152.128906 82.640625 C 152.195312 82.566406 152.261719 82.496094 152.332031 82.425781 C 152.660156 82.070312 152.679688 81.515625 152.332031 81.164062 C 151.996094 80.828125 151.40625 80.808594 151.074219 81.164062 C 150.082031 82.226562 149.085938 83.289062 148.09375 84.351562 C 146.238281 86.335938 144.382812 88.316406 142.527344 90.296875 C 141.507812 91.386719 140.488281 92.476562 139.46875 93.566406 C 139.378906 93.664062 139.332031 93.75 139.269531 93.851562 C 139.390625 93.660156 139.308594 93.796875 139.261719 93.84375 C 139.121094 93.980469 139.425781 93.734375 139.261719 93.835938 C 139.09375 93.941406 139.453125 93.773438 139.269531 93.835938 C 139.210938 93.859375 139.027344 93.878906 139.289062 93.847656 C 139.234375 93.855469 139.179688 93.851562 139.121094 93.851562 C 139.382812 93.863281 139.160156 93.84375 139.082031 93.820312 C 139.351562 93.914062 139.042969 93.785156 138.933594 93.761719 C 138.816406 93.734375 138.699219 93.703125 138.578125 93.675781 C 138.019531 93.539062 137.460938 93.40625 136.898438 93.269531 C 134.832031 92.769531 132.765625 92.269531 130.699219 91.769531 C 128.027344 91.125 125.355469 90.476562 122.683594 89.832031 C 120.195312 89.230469 117.707031 88.628906 115.21875 88.027344 C 113.703125 87.660156 112.183594 87.292969 110.667969 86.925781 C 110.535156 86.894531 110.398438 86.863281 110.265625 86.828125 C 110.242188 86.824219 110.21875 86.816406 110.195312 86.8125 C 110.234375 86.824219 110.445312 86.933594 110.304688 86.84375 C 110.496094 86.964844 110.359375 86.882812 110.3125 86.832031 C 110.175781 86.691406 110.421875 87 110.316406 86.832031 C 110.214844 86.667969 110.382812 87.027344 110.316406 86.84375 C 110.296875 86.78125 110.277344 86.597656 110.308594 86.863281 C 110.300781 86.808594 110.304688 86.75 110.304688 86.695312 C 110.292969 86.957031 110.308594 86.734375 110.335938 86.65625 C 110.242188 86.921875 110.074219 87.027344 110.214844 86.878906 C 110.269531 86.816406 110.328125 86.757812 110.382812 86.699219 C 110.589844 86.476562 110.800781 86.253906 111.007812 86.03125 C 112.644531 84.28125 114.28125 82.53125 115.917969 80.785156 C 117.566406 79.023438 119.214844 77.257812 120.863281 75.496094 C 121.164062 75.175781 121.464844 74.855469 121.765625 74.535156 C 121.855469 74.441406 121.898438 74.355469 121.964844 74.253906 C 121.84375 74.441406 121.925781 74.308594 121.972656 74.261719 C 122.113281 74.121094 121.808594 74.367188 121.972656 74.265625 C 122.136719 74.164062 121.78125 74.332031 121.960938 74.265625 C 122.023438 74.246094 122.207031 74.222656 121.941406 74.253906 C 122 74.25 122.054688 74.25 122.109375 74.253906 C 121.851562 74.242188 122.074219 74.257812 122.152344 74.285156 C 121.882812 74.191406 122.191406 74.316406 122.296875 74.34375 C 122.417969 74.371094 122.535156 74.398438 122.652344 74.429688 C 124.121094 74.785156 125.589844 75.136719 127.058594 75.492188 C 129.527344 76.089844 131.992188 76.6875 134.460938 77.28125 C 137.140625 77.929688 139.820312 78.578125 142.5 79.226562 C 144.601562 79.734375 146.703125 80.242188 148.800781 80.75 C 149.390625 80.894531 149.976562 81.035156 150.566406 81.175781 C 150.699219 81.210938 150.835938 81.242188 150.96875 81.273438 C 150.992188 81.28125 151.015625 81.285156 151.035156 81.289062 C 151 81.28125 150.785156 81.171875 150.925781 81.261719 C 150.738281 81.140625 150.871094 81.222656 150.921875 81.269531 C 151.058594 81.410156 150.8125 81.105469 150.914062 81.269531 C 151.015625 81.4375 150.851562 81.078125 150.914062 81.261719 C 150.933594 81.320312 150.957031 81.503906 150.925781 81.238281 C 150.929688 81.296875 150.929688 81.351562 150.925781 81.40625 C 150.9375 81.148438 150.921875 81.371094 150.894531 81.449219 C 150.910156 81.414062 150.921875 81.378906 150.9375 81.34375 C 150.726562 81.78125 150.8125 82.304688 151.253906 82.5625 C 151.648438 82.792969 152.257812 82.683594 152.46875 82.246094 Z M 152.46875 82.246094 " fill-opacity="1" fill-rule="nonzero"/></g><g clip-path="url(#83b7a4680a)"><path fill="#ffffff" d="M 152.695312 81.34375 C 152.796875 81.558594 152.71875 81.398438 152.703125 81.339844 C 152.648438 81.148438 152.714844 81.550781 152.703125 81.351562 C 152.699219 81.285156 152.734375 81.109375 152.691406 81.367188 C 152.699219 81.3125 152.71875 81.261719 152.738281 81.207031 C 152.65625 81.4375 152.710938 81.28125 152.746094 81.222656 C 152.628906 81.417969 152.699219 81.285156 152.753906 81.230469 C 152.890625 81.089844 152.585938 81.339844 152.753906 81.230469 C 152.648438 81.296875 152.539062 81.304688 152.597656 81.292969 C 152.617188 81.285156 152.636719 81.28125 152.660156 81.277344 C 152.792969 81.242188 152.925781 81.210938 153.058594 81.179688 C 153.640625 81.039062 154.222656 80.898438 154.808594 80.757812 C 156.902344 80.25 159 79.742188 161.09375 79.238281 C 163.773438 78.589844 166.449219 77.941406 169.128906 77.292969 C 171.601562 76.695312 174.070312 76.097656 176.542969 75.5 C 178.019531 75.144531 179.492188 74.789062 180.96875 74.433594 C 181.089844 74.402344 181.207031 74.375 181.328125 74.34375 C 181.425781 74.320312 181.464844 74.304688 181.585938 74.242188 C 181.375 74.347656 181.53125 74.265625 181.589844 74.25 C 181.785156 74.195312 181.382812 74.261719 181.578125 74.25 C 181.644531 74.25 181.820312 74.285156 181.5625 74.238281 C 181.617188 74.25 181.667969 74.265625 181.722656 74.285156 C 181.496094 74.207031 181.648438 74.261719 181.707031 74.296875 C 181.515625 74.175781 181.648438 74.25 181.699219 74.300781 C 181.839844 74.4375 181.59375 74.132812 181.699219 74.304688 C 181.773438 74.417969 181.691406 74.347656 181.867188 74.535156 C 182.164062 74.851562 182.457031 75.164062 182.753906 75.480469 C 184.398438 77.238281 186.042969 78.996094 187.6875 80.753906 C 189.328125 82.507812 190.96875 84.257812 192.609375 86.011719 C 192.898438 86.324219 193.1875 86.632812 193.476562 86.941406 C 193.214844 86.660156 193.273438 86.554688 193.332031 86.765625 C 193.386719 86.957031 193.320312 86.554688 193.328125 86.753906 C 193.332031 86.820312 193.296875 86.996094 193.339844 86.738281 C 193.332031 86.792969 193.3125 86.84375 193.296875 86.894531 C 193.375 86.667969 193.320312 86.824219 193.285156 86.882812 C 193.402344 86.6875 193.332031 86.820312 193.28125 86.875 C 193.140625 87.015625 193.445312 86.765625 193.277344 86.875 C 193.382812 86.808594 193.492188 86.800781 193.4375 86.8125 C 193.414062 86.820312 193.394531 86.824219 193.375 86.828125 C 193.242188 86.859375 193.109375 86.894531 192.976562 86.925781 C 191.464844 87.289062 189.957031 87.65625 188.445312 88.019531 C 185.960938 88.621094 183.476562 89.222656 180.988281 89.824219 C 178.316406 90.46875 175.640625 91.117188 172.96875 91.761719 C 170.898438 92.261719 168.828125 92.765625 166.753906 93.265625 C 166.191406 93.402344 165.628906 93.539062 165.0625 93.671875 C 164.941406 93.703125 164.820312 93.730469 164.703125 93.761719 C 164.605469 93.785156 164.566406 93.800781 164.445312 93.863281 C 164.65625 93.757812 164.5 93.839844 164.441406 93.855469 C 164.246094 93.910156 164.652344 93.84375 164.453125 93.851562 C 164.386719 93.855469 164.210938 93.820312 164.46875 93.867188 C 164.414062 93.855469 164.363281 93.835938 164.308594 93.820312 C 164.535156 93.898438 164.382812 93.84375 164.324219 93.808594 C 164.515625 93.929688 164.382812 93.855469 164.332031 93.804688 C 164.191406 93.667969 164.4375 93.972656 164.332031 93.800781 C 164.257812 93.6875 164.339844 93.757812 164.164062 93.570312 C 163.152344 92.488281 162.140625 91.40625 161.128906 90.328125 C 159.273438 88.34375 157.417969 86.363281 155.566406 84.382812 C 154.5625 83.308594 153.558594 82.238281 152.554688 81.164062 C 152.222656 80.8125 151.632812 80.828125 151.300781 81.164062 C 150.949219 81.515625 150.96875 82.070312 151.300781 82.425781 C 152.296875 83.488281 153.289062 84.550781 154.285156 85.613281 C 156.140625 87.59375 157.992188 89.578125 159.847656 91.558594 C 160.867188 92.648438 161.886719 93.738281 162.90625 94.828125 C 162.59375 94.496094 162.996094 94.972656 163.003906 94.976562 C 163.109375 95.109375 163.242188 95.21875 163.382812 95.316406 C 163.683594 95.527344 164.035156 95.613281 164.394531 95.636719 C 164.566406 95.644531 164.746094 95.609375 164.910156 95.574219 C 164.96875 95.5625 165.019531 95.539062 165.074219 95.515625 C 165.144531 95.484375 165.214844 95.457031 165.285156 95.425781 C 165.125 95.480469 165.070312 95.503906 165.128906 95.492188 C 165.132812 95.488281 165.140625 95.488281 165.144531 95.484375 C 165.246094 95.460938 165.34375 95.4375 165.441406 95.414062 C 165.972656 95.285156 166.5 95.160156 167.027344 95.03125 C 169.050781 94.542969 171.078125 94.050781 173.105469 93.5625 C 175.765625 92.917969 178.429688 92.273438 181.09375 91.628906 C 183.605469 91.023438 186.117188 90.414062 188.625 89.808594 C 190.199219 89.429688 191.769531 89.050781 193.339844 88.667969 C 193.492188 88.632812 193.644531 88.597656 193.796875 88.558594 C 194.234375 88.453125 194.5625 88.144531 194.816406 87.78125 C 195.253906 87.148438 195.1875 86.171875 194.664062 85.613281 C 194.519531 85.457031 194.371094 85.296875 194.222656 85.140625 C 192.703125 83.515625 191.179688 81.890625 189.660156 80.261719 C 187.921875 78.40625 186.1875 76.550781 184.449219 74.695312 C 184.027344 74.246094 183.609375 73.796875 183.1875 73.347656 C 183.164062 73.324219 183.144531 73.300781 183.121094 73.277344 C 183.214844 73.375 183.269531 73.46875 183.199219 73.355469 C 183.140625 73.257812 183.0625 73.171875 182.992188 73.082031 C 182.886719 72.957031 182.734375 72.851562 182.601562 72.757812 C 182.3125 72.558594 181.921875 72.472656 181.578125 72.472656 C 181.40625 72.46875 181.226562 72.503906 181.0625 72.550781 C 180.960938 72.578125 180.828125 72.640625 180.742188 72.679688 C 180.914062 72.597656 180.957031 72.601562 180.902344 72.617188 C 180.894531 72.617188 180.886719 72.621094 180.882812 72.621094 C 180.847656 72.628906 180.808594 72.640625 180.773438 72.648438 C 179.539062 72.945312 178.304688 73.246094 177.070312 73.542969 C 174.707031 74.113281 172.347656 74.683594 169.988281 75.257812 C 167.289062 75.910156 164.589844 76.5625 161.894531 77.214844 C 159.644531 77.757812 157.398438 78.300781 155.152344 78.84375 C 154.144531 79.085938 153.140625 79.328125 152.132812 79.574219 C 151.769531 79.660156 151.457031 79.980469 151.246094 80.28125 C 150.835938 80.875 150.859375 81.617188 151.164062 82.246094 C 151.375 82.683594 151.984375 82.796875 152.378906 82.566406 C 152.816406 82.304688 152.90625 81.78125 152.695312 81.34375 Z M 152.695312 81.34375 " fill-opacity="1" fill-rule="nonzero"/></g><g clip-path="url(#15007b1588)"><path fill="#ffffff" d="M 151.164062 64.476562 C 150.808594 65.210938 150.882812 65.976562 151.386719 66.621094 C 151.566406 66.851562 151.851562 67.082031 152.140625 67.152344 C 152.238281 67.175781 152.335938 67.199219 152.4375 67.222656 C 152.964844 67.351562 153.492188 67.476562 154.019531 67.605469 C 156.046875 68.097656 158.070312 68.585938 160.097656 69.074219 C 162.761719 69.71875 165.425781 70.363281 168.085938 71.007812 C 170.597656 71.613281 173.109375 72.222656 175.621094 72.828125 C 177.191406 73.207031 178.761719 73.585938 180.332031 73.96875 C 180.484375 74.003906 180.640625 74.042969 180.792969 74.078125 C 180.824219 74.085938 180.855469 74.09375 180.890625 74.101562 C 180.894531 74.101562 180.898438 74.105469 180.902344 74.105469 C 180.847656 74.082031 180.796875 74.0625 180.742188 74.042969 C 180.832031 74.078125 180.921875 74.117188 181.007812 74.152344 C 181.0625 74.175781 181.117188 74.1875 181.175781 74.199219 C 181.359375 74.242188 181.554688 74.261719 181.742188 74.242188 C 182.160156 74.191406 182.496094 74.050781 182.828125 73.792969 C 182.960938 73.683594 183.066406 73.554688 183.164062 73.414062 C 183.234375 73.316406 183.300781 73.25 183.125 73.441406 C 183.152344 73.414062 183.175781 73.382812 183.203125 73.355469 C 183.363281 73.1875 183.519531 73.015625 183.679688 72.847656 C 185.222656 71.199219 186.765625 69.550781 188.304688 67.90625 C 190.03125 66.0625 191.753906 64.21875 193.476562 62.378906 C 193.878906 61.949219 194.277344 61.523438 194.679688 61.09375 C 195.546875 60.167969 194.992188 58.453125 193.78125 58.160156 C 192.546875 57.859375 191.3125 57.5625 190.074219 57.261719 C 187.714844 56.691406 185.351562 56.121094 182.992188 55.550781 C 180.292969 54.898438 177.597656 54.246094 174.898438 53.59375 C 172.652344 53.050781 170.40625 52.507812 168.160156 51.964844 C 167.152344 51.722656 166.148438 51.476562 165.140625 51.234375 C 165.078125 51.21875 165.105469 51.207031 165.289062 51.296875 C 164.890625 51.101562 164.484375 51.054688 164.050781 51.128906 C 163.707031 51.1875 163.429688 51.367188 163.160156 51.578125 C 163.027344 51.683594 162.925781 51.835938 162.832031 51.96875 C 162.710938 52.136719 162.964844 51.832031 162.90625 51.894531 C 162.8125 51.996094 162.722656 52.09375 162.628906 52.191406 C 162.078125 52.777344 161.53125 53.367188 160.980469 53.953125 C 159.171875 55.886719 157.359375 57.820312 155.550781 59.757812 C 154.199219 61.199219 152.851562 62.640625 151.503906 64.082031 C 151.4375 64.152344 151.367188 64.222656 151.300781 64.296875 C 150.972656 64.648438 150.953125 65.203125 151.300781 65.554688 C 151.636719 65.890625 152.226562 65.910156 152.554688 65.554688 C 153.550781 64.492188 154.546875 63.429688 155.539062 62.367188 C 157.394531 60.386719 159.25 58.402344 161.105469 56.421875 C 162.125 55.332031 163.144531 54.242188 164.164062 53.152344 C 164.253906 53.054688 164.296875 52.972656 164.363281 52.871094 C 164.242188 53.058594 164.324219 52.925781 164.371094 52.875 C 164.511719 52.738281 164.207031 52.984375 164.371094 52.882812 C 164.539062 52.78125 164.179688 52.945312 164.363281 52.882812 C 164.421875 52.859375 164.605469 52.839844 164.34375 52.871094 C 164.398438 52.863281 164.453125 52.867188 164.507812 52.871094 C 164.25 52.855469 164.472656 52.875 164.550781 52.902344 C 164.28125 52.808594 164.589844 52.933594 164.699219 52.957031 C 164.816406 52.988281 164.9375 53.015625 165.054688 53.042969 C 165.613281 53.179688 166.171875 53.316406 166.730469 53.449219 C 168.800781 53.949219 170.867188 54.449219 172.933594 54.949219 C 175.605469 55.59375 178.277344 56.242188 180.949219 56.886719 C 183.4375 57.488281 185.925781 58.089844 188.414062 58.691406 C 189.929688 59.058594 191.445312 59.425781 192.964844 59.792969 C 193.097656 59.824219 193.234375 59.859375 193.367188 59.890625 C 193.390625 59.894531 193.414062 59.902344 193.433594 59.90625 C 193.398438 59.898438 193.183594 59.789062 193.328125 59.878906 C 193.136719 59.757812 193.269531 59.835938 193.320312 59.886719 C 193.457031 60.027344 193.210938 59.722656 193.3125 59.886719 C 193.414062 60.050781 193.25 59.691406 193.3125 59.875 C 193.332031 59.9375 193.355469 60.121094 193.324219 59.855469 C 193.332031 59.914062 193.328125 59.96875 193.324219 60.023438 C 193.339844 59.761719 193.324219 59.988281 193.292969 60.066406 C 193.386719 59.796875 193.554688 59.691406 193.417969 59.84375 C 193.359375 59.902344 193.304688 59.960938 193.25 60.023438 C 193.039062 60.246094 192.832031 60.46875 192.625 60.691406 C 190.988281 62.4375 189.351562 64.1875 187.714844 65.9375 C 186.066406 67.699219 184.417969 69.460938 182.765625 71.222656 C 182.46875 71.542969 182.167969 71.863281 181.867188 72.183594 C 181.777344 72.277344 181.734375 72.363281 181.667969 72.464844 C 181.789062 72.277344 181.707031 72.410156 181.660156 72.457031 C 181.519531 72.597656 181.824219 72.351562 181.660156 72.453125 C 181.496094 72.554688 181.851562 72.390625 181.667969 72.453125 C 181.609375 72.472656 181.425781 72.496094 181.6875 72.464844 C 181.632812 72.472656 181.578125 72.46875 181.523438 72.464844 C 181.78125 72.476562 181.558594 72.460938 181.480469 72.433594 C 181.75 72.527344 181.441406 72.402344 181.332031 72.375 C 181.214844 72.347656 181.097656 72.320312 180.976562 72.289062 C 179.511719 71.933594 178.042969 71.578125 176.574219 71.226562 C 174.105469 70.628906 171.636719 70.03125 169.171875 69.433594 C 166.492188 68.789062 163.8125 68.140625 161.132812 67.492188 C 159.03125 66.984375 156.929688 66.476562 154.832031 65.96875 C 154.242188 65.828125 153.65625 65.683594 153.066406 65.542969 C 152.933594 65.507812 152.800781 65.476562 152.664062 65.445312 C 152.640625 65.4375 152.621094 65.433594 152.597656 65.429688 C 152.636719 65.4375 152.847656 65.546875 152.707031 65.457031 C 152.894531 65.578125 152.761719 65.496094 152.714844 65.445312 C 152.574219 65.308594 152.820312 65.613281 152.71875 65.449219 C 152.617188 65.28125 152.78125 65.640625 152.71875 65.457031 C 152.699219 65.398438 152.675781 65.210938 152.707031 65.476562 C 152.703125 65.421875 152.703125 65.367188 152.707031 65.308594 C 152.695312 65.570312 152.710938 65.347656 152.738281 65.269531 C 152.722656 65.304688 152.710938 65.339844 152.695312 65.375 C 152.90625 64.9375 152.820312 64.414062 152.378906 64.15625 C 151.984375 63.925781 151.371094 64.039062 151.164062 64.476562 Z M 151.164062 64.476562 " fill-opacity="1" fill-rule="nonzero"/></g><g clip-path="url(#a98ab799c5)"><path fill="#ffffff" d="M 150.9375 65.375 C 150.835938 65.164062 150.914062 65.320312 150.929688 65.382812 C 150.984375 65.574219 150.917969 65.171875 150.929688 65.367188 C 150.933594 65.4375 150.898438 65.613281 150.941406 65.351562 C 150.933594 65.40625 150.914062 65.460938 150.898438 65.511719 C 150.976562 65.285156 150.921875 65.4375 150.886719 65.496094 C 151.003906 65.304688 150.933594 65.4375 150.882812 65.488281 C 150.742188 65.628906 151.046875 65.382812 150.878906 65.492188 C 150.984375 65.421875 151.09375 65.417969 151.039062 65.429688 C 151.015625 65.433594 150.996094 65.441406 150.976562 65.445312 C 150.84375 65.476562 150.710938 65.507812 150.578125 65.542969 C 149.992188 65.683594 149.410156 65.824219 148.828125 65.964844 C 146.730469 66.472656 144.636719 66.980469 142.539062 67.484375 C 139.859375 68.132812 137.183594 68.78125 134.503906 69.425781 C 132.03125 70.023438 129.5625 70.621094 127.089844 71.21875 C 125.617188 71.578125 124.140625 71.933594 122.667969 72.289062 C 122.546875 72.320312 122.425781 72.347656 122.304688 72.378906 C 122.207031 72.402344 122.167969 72.417969 122.046875 72.476562 C 122.261719 72.375 122.101562 72.453125 122.042969 72.472656 C 121.851562 72.527344 122.253906 72.460938 122.054688 72.46875 C 121.988281 72.472656 121.8125 72.4375 122.070312 72.484375 C 122.015625 72.472656 121.964844 72.457031 121.910156 72.4375 C 122.140625 72.515625 121.984375 72.460938 121.925781 72.425781 C 122.121094 72.546875 121.984375 72.472656 121.933594 72.421875 C 121.792969 72.285156 122.039062 72.585938 121.933594 72.417969 C 121.859375 72.300781 121.941406 72.375 121.765625 72.1875 C 121.472656 71.871094 121.175781 71.554688 120.882812 71.242188 C 119.238281 69.484375 117.59375 67.726562 115.949219 65.96875 C 114.308594 64.214844 112.667969 62.460938 111.027344 60.710938 C 110.738281 60.398438 110.449219 60.089844 110.160156 59.78125 C 110.417969 60.0625 110.363281 60.167969 110.304688 59.957031 C 110.25 59.765625 110.316406 60.167969 110.304688 59.96875 C 110.300781 59.902344 110.335938 59.726562 110.292969 59.984375 C 110.300781 59.929688 110.320312 59.878906 110.339844 59.824219 C 110.261719 60.054688 110.3125 59.898438 110.351562 59.839844 C 110.230469 60.035156 110.304688 59.898438 110.355469 59.847656 C 110.492188 59.707031 110.1875 59.957031 110.359375 59.847656 C 110.25 59.917969 110.140625 59.921875 110.199219 59.910156 C 110.21875 59.902344 110.242188 59.898438 110.261719 59.894531 C 110.394531 59.859375 110.527344 59.828125 110.660156 59.796875 C 112.167969 59.433594 113.679688 59.066406 115.1875 58.703125 C 117.671875 58.101562 120.160156 57.5 122.644531 56.898438 C 125.316406 56.253906 127.992188 55.605469 130.664062 54.960938 C 132.734375 54.460938 134.808594 53.957031 136.878906 53.457031 C 137.441406 53.320312 138.003906 53.183594 138.570312 53.046875 C 138.691406 53.019531 138.8125 52.992188 138.933594 52.960938 C 139.027344 52.9375 139.066406 52.917969 139.1875 52.859375 C 138.976562 52.964844 139.132812 52.882812 139.191406 52.867188 C 139.386719 52.8125 138.984375 52.878906 139.179688 52.867188 C 139.246094 52.863281 139.421875 52.902344 139.164062 52.855469 C 139.21875 52.867188 139.273438 52.882812 139.324219 52.902344 C 139.097656 52.824219 139.25 52.878906 139.308594 52.914062 C 139.117188 52.792969 139.25 52.867188 139.300781 52.917969 C 139.441406 53.054688 139.195312 52.75 139.300781 52.921875 C 139.375 53.035156 139.292969 52.964844 139.46875 53.152344 C 140.480469 54.234375 141.492188 55.316406 142.503906 56.394531 C 144.359375 58.378906 146.214844 60.359375 148.070312 62.339844 C 149.070312 63.414062 150.074219 64.484375 151.078125 65.554688 C 151.410156 65.910156 152 65.890625 152.332031 65.554688 C 152.683594 65.207031 152.664062 64.648438 152.332031 64.296875 C 151.339844 63.234375 150.34375 62.171875 149.347656 61.109375 C 147.496094 59.125 145.640625 57.144531 143.785156 55.164062 C 142.765625 54.074219 141.746094 52.984375 140.726562 51.894531 C 141.039062 52.226562 140.636719 51.75 140.628906 51.746094 C 140.523438 51.613281 140.390625 51.503906 140.25 51.40625 C 139.949219 51.195312 139.597656 51.109375 139.238281 51.085938 C 139.066406 51.078125 138.886719 51.113281 138.722656 51.148438 C 138.664062 51.164062 138.613281 51.183594 138.558594 51.207031 C 138.488281 51.238281 138.417969 51.265625 138.347656 51.296875 C 138.507812 51.238281 138.5625 51.21875 138.503906 51.230469 C 138.5 51.234375 138.492188 51.234375 138.488281 51.234375 C 138.390625 51.261719 138.289062 51.285156 138.191406 51.308594 C 137.664062 51.4375 137.132812 51.5625 136.609375 51.691406 C 134.582031 52.179688 132.554688 52.671875 130.53125 53.160156 C 127.867188 53.804688 125.203125 54.449219 122.539062 55.09375 C 120.03125 55.699219 117.519531 56.308594 115.007812 56.914062 C 113.4375 57.292969 111.867188 57.671875 110.296875 58.054688 C 110.144531 58.089844 109.988281 58.128906 109.835938 58.164062 C 109.402344 58.269531 109.070312 58.582031 108.820312 58.941406 C 108.378906 59.574219 108.449219 60.554688 108.96875 61.109375 C 109.117188 61.265625 109.265625 61.425781 109.410156 61.582031 C 110.933594 63.207031 112.453125 64.832031 113.976562 66.457031 C 115.710938 68.316406 117.449219 70.171875 119.1875 72.027344 C 119.605469 72.476562 120.027344 72.925781 120.445312 73.375 C 120.46875 73.398438 120.492188 73.421875 120.511719 73.445312 C 120.421875 73.347656 120.363281 73.253906 120.433594 73.367188 C 120.496094 73.464844 120.570312 73.550781 120.644531 73.640625 C 120.746094 73.769531 120.902344 73.871094 121.035156 73.964844 C 121.320312 74.164062 121.714844 74.25 122.058594 74.25 C 122.226562 74.253906 122.40625 74.21875 122.570312 74.171875 C 122.671875 74.144531 122.808594 74.082031 122.890625 74.042969 C 122.71875 74.125 122.675781 74.117188 122.734375 74.105469 C 122.738281 74.105469 122.746094 74.101562 122.753906 74.101562 C 122.789062 74.09375 122.824219 74.082031 122.859375 74.074219 C 124.09375 73.777344 125.328125 73.476562 126.566406 73.179688 C 128.925781 72.609375 131.285156 72.039062 133.648438 71.46875 C 136.34375 70.816406 139.042969 70.160156 141.742188 69.507812 C 143.988281 68.964844 146.234375 68.421875 148.480469 67.878906 C 149.488281 67.636719 150.492188 67.394531 151.5 67.148438 C 151.867188 67.0625 152.179688 66.742188 152.386719 66.441406 C 152.796875 65.851562 152.773438 65.105469 152.472656 64.476562 C 152.261719 64.039062 151.648438 63.925781 151.257812 64.15625 C 150.816406 64.417969 150.726562 64.9375 150.9375 65.375 Z M 150.9375 65.375 " fill-opacity="1" fill-rule="nonzero"/></g><g clip-path="url(#5df6c4f7ef)"><path fill="#ffffff" d="M 150.929688 80.519531 C 150.929688 81.125 150.929688 81.726562 150.929688 82.332031 C 150.929688 83.910156 150.929688 85.488281 150.929688 87.066406 C 150.929688 89.261719 150.929688 91.457031 150.929688 93.652344 C 150.929688 96.113281 150.929688 98.578125 150.929688 101.039062 C 150.929688 103.414062 150.929688 105.789062 150.929688 108.164062 C 150.929688 110.097656 150.929688 112.03125 150.929688 113.96875 C 150.929688 115.105469 150.929688 116.246094 150.929688 117.386719 C 150.929688 117.546875 150.929688 117.707031 150.929688 117.871094 C 150.929688 118.355469 151.332031 118.761719 151.816406 118.761719 C 152.296875 118.761719 152.703125 118.355469 152.703125 117.871094 C 152.703125 117.265625 152.703125 116.660156 152.703125 116.058594 C 152.703125 114.480469 152.703125 112.902344 152.703125 111.328125 C 152.703125 109.128906 152.703125 106.933594 152.703125 104.738281 C 152.703125 102.277344 152.703125 99.8125 152.703125 97.351562 C 152.703125 94.976562 152.703125 92.601562 152.703125 90.226562 C 152.703125 88.292969 152.703125 86.359375 152.703125 84.425781 C 152.703125 83.285156 152.703125 82.144531 152.703125 81.003906 C 152.703125 80.84375 152.703125 80.679688 152.703125 80.519531 C 152.703125 80.035156 152.296875 79.628906 151.816406 79.628906 C 151.332031 79.628906 150.929688 80.035156 150.929688 80.519531 Z M 150.929688 80.519531 " fill-opacity="1" fill-rule="nonzero"/></g></svg>