<svg xmlns="http://www.w3.org/2000/svg" xmlns:xlink="http://www.w3.org/1999/xlink" width="437" zoomAndPan="magnify" viewBox="0 0 327.75 179.999997" height="240" preserveAspectRatio="xMidYMid meet" version="1.0"><defs><g/><clipPath id="3de2a140f4"><path d="M 0 0.0703125 L 327.5 0.0703125 L 327.5 179.929688 L 0 179.929688 Z M 0 0.0703125 " clip-rule="nonzero"/></clipPath><clipPath id="2c0aaf9318"><path d="M 0 48.054688 L 327.5 48.054688 L 327.5 179.929688 L 0 179.929688 Z M 0 48.054688 " clip-rule="nonzero"/></clipPath><clipPath id="2d41304fcc"><path d="M 96 127 L 132 127 L 132 162.3125 L 96 162.3125 Z M 96 127 " clip-rule="nonzero"/></clipPath><clipPath id="863309c7c2"><path d="M 50 52.8125 L 71 52.8125 L 71 73 L 50 73 Z M 50 52.8125 " clip-rule="nonzero"/></clipPath></defs><g clip-path="url(#3de2a140f4)"><path fill="#ffffff" d="M 0 0.0703125 L 327.75 0.0703125 L 327.75 187.570312 L 0 187.570312 Z M 0 0.0703125 " fill-opacity="1" fill-rule="nonzero"/><path fill="#ffffff" d="M 0 0.0703125 L 327.75 0.0703125 L 327.75 180.070312 L 0 180.070312 Z M 0 0.0703125 " fill-opacity="1" fill-rule="nonzero"/><path fill="#ffeed5" d="M 0 0.0703125 L 327.75 0.0703125 L 327.75 180.070312 L 0 180.070312 Z M 0 0.0703125 " fill-opacity="1" fill-rule="nonzero"/></g><g clip-path="url(#2c0aaf9318)"><path fill="#ffbd59" d="M -43.574219 48.054688 L -28.957031 61.3125 C -14.335938 74.566406 14.90625 101.078125 44.007812 110.390625 C 73.179688 119.636719 102.148438 111.75 131.320312 98.019531 C 160.425781 84.285156 189.664062 64.847656 218.769531 71.847656 C 247.941406 78.847656 276.910156 112.429688 306.082031 129.628906 C 335.183594 146.824219 364.425781 147.777344 393.527344 124.324219 C 422.699219 100.875 451.667969 53.019531 480.839844 52.132812 C 509.945312 51.25 539.183594 97.203125 553.804688 120.246094 L 568.425781 143.222656 L 568.425781 229.554688 L 553.804688 229.554688 C 539.183594 229.554688 509.945312 229.554688 480.839844 229.554688 C 451.667969 229.554688 422.699219 229.554688 393.527344 229.554688 C 364.425781 229.554688 335.183594 229.554688 306.082031 229.554688 C 276.910156 229.554688 247.941406 229.554688 218.769531 229.554688 C 189.664062 229.554688 160.425781 229.554688 131.320312 229.554688 C 102.148438 229.554688 73.179688 229.554688 44.007812 229.554688 C 14.90625 229.554688 -14.335938 229.554688 -28.957031 229.554688 L -43.574219 229.554688 Z M -43.574219 48.054688 " fill-opacity="1" fill-rule="nonzero"/></g><g clip-path="url(#2d41304fcc)"><path fill="#000000" d="M 116.8125 155.753906 C 110.636719 157.445312 104.257812 153.808594 102.5625 147.632812 C 100.871094 141.457031 104.511719 135.082031 110.6875 133.390625 C 116.867188 131.699219 123.246094 135.335938 124.9375 141.511719 C 126.628906 147.6875 122.992188 154.0625 116.8125 155.753906 Z M 131.1875 139.800781 C 130.917969 138.816406 130 138.148438 128.980469 138.195312 L 126.914062 138.289062 C 126.558594 137.546875 126.148438 136.84375 125.6875 136.1875 L 126.78125 134.4375 C 127.320312 133.570312 127.191406 132.445312 126.464844 131.726562 C 125.738281 131.007812 124.609375 130.890625 123.75 131.4375 L 122.003906 132.554688 C 121.335938 132.09375 120.628906 131.691406 119.894531 131.351562 L 119.964844 129.28125 C 120 128.261719 119.324219 127.351562 118.335938 127.09375 C 117.347656 126.835938 116.308594 127.292969 115.839844 128.203125 L 114.890625 130.035156 C 114.089844 129.972656 113.273438 129.976562 112.457031 130.050781 L 111.484375 128.226562 C 111.003906 127.324219 109.960938 126.875 108.976562 127.144531 C 107.992188 127.414062 107.324219 128.332031 107.371094 129.351562 L 107.464844 131.417969 C 106.722656 131.769531 106.019531 132.179688 105.359375 132.640625 L 103.609375 131.546875 C 102.742188 131.007812 101.617188 131.140625 100.898438 131.867188 C 100.179688 132.589844 100.0625 133.71875 100.613281 134.578125 L 101.726562 136.320312 C 101.265625 136.992188 100.863281 137.695312 100.523438 138.433594 L 98.453125 138.363281 C 97.433594 138.328125 96.523438 139.003906 96.265625 139.992188 C 96.003906 140.980469 96.464844 142.015625 97.371094 142.484375 L 99.207031 143.433594 C 99.144531 144.234375 99.148438 145.050781 99.222656 145.867188 L 97.398438 146.839844 C 96.496094 147.320312 96.046875 148.359375 96.316406 149.34375 C 96.585938 150.328125 97.503906 150.996094 98.523438 150.949219 L 100.589844 150.855469 C 100.941406 151.597656 101.351562 152.300781 101.816406 152.957031 L 100.722656 154.707031 C 100.179688 155.574219 100.3125 156.699219 101.039062 157.417969 C 101.765625 158.136719 102.890625 158.253906 103.753906 157.707031 L 105.496094 156.589844 C 106.167969 157.050781 106.871094 157.453125 107.609375 157.792969 L 107.539062 159.863281 C 107.503906 160.882812 108.179688 161.792969 109.167969 162.050781 C 110.15625 162.308594 111.191406 161.847656 111.660156 160.941406 L 112.613281 159.109375 C 113.414062 159.171875 114.226562 159.167969 115.046875 159.09375 L 116.019531 160.917969 C 116.5 161.820312 117.539062 162.269531 118.523438 162 C 119.511719 161.730469 120.175781 160.8125 120.128906 159.792969 L 120.035156 157.726562 C 120.777344 157.375 121.484375 156.964844 122.140625 156.503906 L 123.890625 157.597656 C 124.757812 158.136719 125.882812 158.003906 126.601562 157.277344 C 127.320312 156.550781 127.441406 155.425781 126.890625 154.566406 L 125.777344 152.824219 C 126.234375 152.152344 126.636719 151.445312 126.980469 150.710938 L 129.046875 150.78125 C 130.070312 150.816406 130.976562 150.140625 131.238281 149.152344 C 131.496094 148.164062 131.035156 147.128906 130.128906 146.660156 L 128.296875 145.710938 C 128.359375 144.910156 128.351562 144.09375 128.277344 143.277344 L 130.105469 142.304688 C 131.007812 141.824219 131.457031 140.785156 131.1875 139.800781 " fill-opacity="1" fill-rule="nonzero"/></g><g clip-path="url(#863309c7c2)"><path fill="#000000" d="M 62.160156 69.21875 C 58.65625 70.179688 55.039062 68.117188 54.078125 64.613281 C 53.121094 61.113281 55.183594 57.496094 58.6875 56.539062 C 62.1875 55.578125 65.808594 57.640625 66.765625 61.144531 C 67.726562 64.644531 65.664062 68.261719 62.160156 69.21875 Z M 70.308594 60.171875 C 70.15625 59.613281 69.636719 59.234375 69.058594 59.261719 L 67.886719 59.316406 C 67.6875 58.894531 67.453125 58.496094 67.191406 58.125 L 67.8125 57.132812 C 68.117188 56.640625 68.042969 56 67.632812 55.59375 C 67.21875 55.1875 66.582031 55.121094 66.09375 55.429688 L 65.105469 56.0625 C 64.722656 55.804688 64.324219 55.574219 63.90625 55.382812 L 63.945312 54.207031 C 63.964844 53.628906 63.582031 53.113281 63.023438 52.96875 C 62.460938 52.820312 61.875 53.082031 61.605469 53.597656 L 61.070312 54.636719 C 60.613281 54.597656 60.152344 54.601562 59.6875 54.644531 L 59.136719 53.609375 C 58.863281 53.097656 58.273438 52.84375 57.714844 52.996094 C 57.15625 53.148438 56.777344 53.667969 56.804688 54.246094 L 56.859375 55.417969 C 56.4375 55.621094 56.039062 55.851562 55.664062 56.113281 L 54.671875 55.492188 C 54.179688 55.1875 53.542969 55.261719 53.136719 55.671875 C 52.726562 56.085938 52.660156 56.722656 52.972656 57.210938 L 53.605469 58.199219 C 53.34375 58.582031 53.117188 58.980469 52.921875 59.398438 L 51.75 59.359375 C 51.167969 59.339844 50.652344 59.722656 50.507812 60.28125 C 50.359375 60.839844 50.621094 61.429688 51.136719 61.695312 L 52.175781 62.234375 C 52.140625 62.6875 52.144531 63.148438 52.183594 63.613281 L 51.148438 64.164062 C 50.636719 64.4375 50.382812 65.027344 50.535156 65.585938 C 50.6875 66.144531 51.207031 66.519531 51.789062 66.496094 L 52.960938 66.441406 C 53.160156 66.863281 53.390625 67.261719 53.65625 67.636719 L 53.035156 68.628906 C 52.726562 69.117188 52.800781 69.757812 53.214844 70.164062 C 53.625 70.570312 54.265625 70.636719 54.753906 70.328125 L 55.742188 69.695312 C 56.121094 69.953125 56.523438 70.183594 56.941406 70.375 L 56.898438 71.550781 C 56.878906 72.128906 57.261719 72.644531 57.824219 72.789062 C 58.382812 72.9375 58.972656 72.675781 59.238281 72.164062 L 59.777344 71.125 C 60.230469 71.160156 60.691406 71.15625 61.15625 71.113281 L 61.707031 72.148438 C 61.980469 72.660156 62.570312 72.914062 63.128906 72.761719 C 63.6875 72.609375 64.066406 72.089844 64.039062 71.511719 L 63.988281 70.339844 C 64.40625 70.140625 64.808594 69.90625 65.179688 69.644531 L 66.171875 70.265625 C 66.664062 70.570312 67.304688 70.496094 67.710938 70.085938 C 68.117188 69.671875 68.1875 69.035156 67.875 68.546875 L 67.242188 67.558594 C 67.5 67.175781 67.730469 66.777344 67.921875 66.359375 L 69.097656 66.398438 C 69.675781 66.421875 70.191406 66.039062 70.339844 65.476562 C 70.484375 64.917969 70.222656 64.328125 69.710938 64.0625 L 68.671875 63.523438 C 68.707031 63.070312 68.703125 62.609375 68.660156 62.144531 L 69.695312 61.59375 C 70.207031 61.320312 70.460938 60.730469 70.308594 60.171875 " fill-opacity="1" fill-rule="nonzero"/></g><path fill="#ffffff" d="M 130.292969 90.777344 L 97.207031 104.554688 L 102.96875 109.789062 L 78.8125 133.8125 L 60.210938 134.0625 C 58.523438 134.085938 56.914062 134.757812 55.734375 135.933594 L 38.296875 153.273438 C 38.117188 153.453125 37.949219 153.640625 37.796875 153.835938 C 41.292969 156.359375 45.121094 158.519531 49.171875 160.28125 L 63.019531 146.507812 L 81.621094 146.257812 C 83.308594 146.234375 84.917969 145.5625 86.097656 144.390625 L 112.335938 118.296875 L 118.570312 123.960938 L 130.292969 90.777344 " fill-opacity="1" fill-rule="nonzero"/><path fill="#000000" d="M 49.171875 160.421875 C 49.136719 160.421875 49.101562 160.40625 49.074219 160.378906 C 49.015625 160.324219 49.019531 160.234375 49.074219 160.179688 L 62.921875 146.410156 C 62.945312 146.382812 62.980469 146.367188 63.019531 146.367188 L 81.621094 146.117188 C 83.28125 146.09375 84.835938 145.445312 86 144.289062 L 112.234375 118.195312 C 112.289062 118.144531 112.375 118.140625 112.429688 118.191406 L 118.507812 123.714844 L 130.054688 91.03125 L 97.46875 104.601562 L 103.0625 109.683594 C 103.09375 109.710938 103.109375 109.746094 103.109375 109.785156 C 103.109375 109.824219 103.097656 109.859375 103.066406 109.886719 L 78.910156 133.914062 C 78.886719 133.9375 78.851562 133.953125 78.816406 133.953125 L 60.210938 134.203125 C 58.550781 134.226562 56.996094 134.875 55.832031 136.035156 L 38.394531 153.375 C 38.226562 153.542969 38.066406 153.722656 37.90625 153.921875 C 37.859375 153.984375 37.769531 153.996094 37.710938 153.945312 C 37.648438 153.898438 37.636719 153.808594 37.6875 153.746094 C 37.851562 153.542969 38.023438 153.347656 38.199219 153.175781 L 55.632812 135.832031 C 56.847656 134.625 58.472656 133.945312 60.207031 133.921875 L 78.753906 133.671875 L 102.765625 109.792969 L 97.113281 104.660156 C 97.078125 104.628906 97.0625 104.578125 97.070312 104.53125 C 97.078125 104.484375 97.109375 104.445312 97.15625 104.425781 L 130.238281 90.648438 C 130.289062 90.625 130.351562 90.636719 130.390625 90.675781 C 130.429688 90.714844 130.445312 90.773438 130.425781 90.824219 L 118.703125 124.007812 C 118.6875 124.054688 118.652344 124.085938 118.605469 124.097656 C 118.558594 124.109375 118.511719 124.097656 118.476562 124.066406 L 112.339844 118.492188 L 86.199219 144.488281 C 84.984375 145.699219 83.359375 146.375 81.625 146.398438 L 63.078125 146.648438 L 49.273438 160.382812 C 49.246094 160.40625 49.207031 160.421875 49.171875 160.421875 " fill-opacity="1" fill-rule="nonzero"/><path fill="#ffffff" d="M 19.925781 96.539062 L 87.574219 70.789062 L 39.722656 134.277344 C 39.722656 134.277344 19.171875 128.640625 23.691406 116.421875 C 28.214844 104.203125 27.914062 103.222656 24.644531 103.25 C 21.417969 103.273438 19.589844 101.648438 18.648438 99.835938 C 18 98.582031 18.605469 97.039062 19.925781 96.539062 " fill-opacity="1" fill-rule="nonzero"/><path fill="#000000" d="M 24.753906 103.105469 C 25.800781 103.105469 26.535156 103.230469 26.929688 103.789062 C 27.734375 104.9375 27.039062 107.78125 23.824219 116.46875 C 22.867188 119.054688 22.988281 121.546875 24.179688 123.871094 C 27.558594 130.449219 38.546875 133.789062 39.667969 134.117188 L 87.167969 71.09375 L 19.976562 96.667969 C 19.378906 96.898438 18.902344 97.371094 18.675781 97.96875 C 18.449219 98.558594 18.488281 99.214844 18.777344 99.773438 C 19.570312 101.308594 21.238281 103.132812 24.644531 103.105469 C 24.679688 103.105469 24.714844 103.105469 24.753906 103.105469 Z M 39.722656 134.417969 C 39.710938 134.417969 39.699219 134.417969 39.683594 134.414062 C 39.5625 134.382812 27.53125 131.007812 23.929688 124 C 22.699219 121.601562 22.574219 119.035156 23.558594 116.371094 C 26.695312 107.894531 27.429688 104.996094 26.695312 103.953125 C 26.359375 103.472656 25.664062 103.382812 24.648438 103.390625 C 21.101562 103.414062 19.355469 101.507812 18.523438 99.902344 C 18.199219 99.273438 18.160156 98.53125 18.414062 97.867188 C 18.667969 97.195312 19.203125 96.660156 19.875 96.40625 L 87.527344 70.65625 C 87.585938 70.632812 87.652344 70.652344 87.6875 70.703125 C 87.726562 70.753906 87.726562 70.824219 87.6875 70.875 L 39.835938 134.363281 C 39.808594 134.398438 39.765625 134.417969 39.722656 134.417969 " fill-opacity="1" fill-rule="nonzero"/><path fill="#000000" d="M 31.382812 99.113281 C 31.328125 99.113281 31.277344 99.085938 31.253906 99.035156 C 31.21875 98.964844 31.25 98.878906 31.320312 98.847656 L 51.0625 89.40625 C 51.132812 89.375 51.21875 89.402344 51.25 89.472656 C 51.285156 89.542969 51.253906 89.628906 51.183594 89.660156 L 31.441406 99.101562 C 31.421875 99.109375 31.402344 99.113281 31.382812 99.113281 " fill-opacity="1" fill-rule="nonzero"/><path fill="#000000" d="M 81.523438 96.578125 C 81.628906 96.621094 81.71875 96.691406 81.792969 96.78125 C 83.296875 98.554688 85.21875 101.230469 86.703125 104.84375 C 88.472656 109.148438 88.894531 113.027344 88.957031 115.621094 C 88.964844 115.945312 88.714844 116.144531 88.457031 116.339844 C 84.828125 119.066406 77.800781 121.839844 72.210938 123.730469 C 66.652344 125.613281 60.566406 125.777344 55.007812 127.660156 C 54.644531 127.785156 54.246094 127.605469 54.09375 127.25 C 53.554688 125.976562 53.011719 124.703125 52.472656 123.429688 C 52.355469 123.15625 52.414062 122.839844 52.625 122.628906 C 55.152344 120.03125 60.132812 115.722656 67.617188 113.75 C 70.207031 113.066406 72.597656 112.796875 74.652344 112.734375 C 75.277344 112.714844 75.59375 111.976562 75.179688 111.507812 L 70.660156 106.386719 C 70.398438 106.089844 70.421875 105.640625 70.710938 105.371094 C 70.710938 105.371094 70.714844 105.367188 70.71875 105.367188 C 75.785156 100.613281 76.535156 96.714844 79.417969 96.277344 C 79.882812 96.207031 80.589844 96.199219 81.523438 96.578125 " fill-opacity="1" fill-rule="nonzero"/><path fill="#ffffff" d="M 37.539062 141.542969 L 32.382812 149.261719 L 30.128906 145.644531 L 34.699219 138.074219 L 37.539062 141.542969 " fill-opacity="1" fill-rule="nonzero"/><path fill="#000000" d="M 30.296875 145.640625 L 32.386719 149.003906 L 37.363281 141.550781 L 34.714844 138.316406 Z M 32.382812 149.402344 C 32.378906 149.402344 32.378906 149.402344 32.378906 149.402344 C 32.332031 149.402344 32.285156 149.378906 32.261719 149.335938 L 30.011719 145.71875 C 29.984375 145.671875 29.984375 145.617188 30.011719 145.570312 L 34.578125 138 C 34.601562 137.960938 34.644531 137.9375 34.6875 137.933594 C 34.734375 137.929688 34.78125 137.949219 34.808594 137.984375 L 37.648438 141.453125 C 37.6875 141.5 37.6875 141.566406 37.65625 141.621094 L 32.5 149.339844 C 32.472656 149.378906 32.429688 149.402344 32.382812 149.402344 " fill-opacity="1" fill-rule="nonzero"/><path fill="#000000" d="M 34.058594 148.148438 C 32.671875 150.558594 29.183594 156.40625 26.023438 159.101562 C 25.253906 159.761719 24.058594 159.347656 23.867188 158.351562 C 23.1875 154.789062 23.074219 147.460938 26.921875 141.957031 C 26.921875 141.957031 28.574219 141.878906 31.601562 142.667969 L 30.71875 145.492188 L 31.113281 145.25 C 31.707031 144.882812 32.476562 144.972656 32.972656 145.460938 L 33.800781 146.277344 C 34.300781 146.773438 34.40625 147.539062 34.058594 148.148438 " fill-opacity="1" fill-rule="nonzero"/><path fill="#ffffff" d="M 25.613281 158.167969 C 25.550781 158.167969 25.496094 158.128906 25.476562 158.066406 C 23.296875 150.824219 27.46875 142.792969 27.511719 142.710938 C 27.546875 142.640625 27.632812 142.617188 27.703125 142.652344 C 27.769531 142.6875 27.796875 142.773438 27.761719 142.84375 C 27.71875 142.921875 23.601562 150.855469 25.746094 157.984375 C 25.769531 158.058594 25.726562 158.136719 25.652344 158.160156 C 25.640625 158.164062 25.625 158.167969 25.613281 158.167969 " fill-opacity="1" fill-rule="nonzero"/><path fill="#ffffff" d="M 32.03125 151.644531 C 32.003906 151.644531 31.972656 151.636719 31.949219 151.617188 L 29.753906 149.96875 C 29.691406 149.921875 29.679688 149.832031 29.726562 149.769531 C 29.773438 149.707031 29.859375 149.695312 29.921875 149.742188 L 32.117188 151.390625 C 32.179688 151.4375 32.191406 151.527344 32.144531 151.589844 C 32.117188 151.625 32.074219 151.644531 32.03125 151.644531 " fill-opacity="1" fill-rule="nonzero"/><path fill="#ffffff" d="M 30.742188 153.605469 C 30.707031 153.605469 30.675781 153.59375 30.648438 153.570312 L 28.652344 151.808594 C 28.59375 151.757812 28.589844 151.667969 28.640625 151.609375 C 28.691406 151.550781 28.78125 151.546875 28.839844 151.597656 L 30.835938 153.359375 C 30.894531 153.410156 30.898438 153.5 30.847656 153.558594 C 30.820312 153.589844 30.78125 153.605469 30.742188 153.605469 " fill-opacity="1" fill-rule="nonzero"/><path fill="#000000" d="M 33.320312 139.054688 L 37.699219 142.988281 L 83.640625 97.917969 C 83.640625 97.917969 73.980469 90.019531 63.695312 95.734375 C 63.695312 95.734375 54.339844 104.148438 51.613281 112.203125 C 48.886719 120.257812 44.296875 118.765625 40.828125 124.347656 C 37.359375 129.933594 33.320312 139.054688 33.320312 139.054688 " fill-opacity="1" fill-rule="nonzero"/><path fill="#ffffff" d="M 63.964844 117.363281 C 63.929688 117.363281 63.894531 117.347656 63.863281 117.320312 C 63.8125 117.265625 63.8125 117.175781 63.867188 117.121094 L 76.546875 104.679688 C 76.601562 104.625 76.691406 104.628906 76.746094 104.683594 C 76.800781 104.738281 76.800781 104.828125 76.746094 104.882812 L 64.066406 117.320312 C 64.039062 117.347656 64 117.363281 63.964844 117.363281 " fill-opacity="1" fill-rule="nonzero"/><path fill="#ffffff" d="M 59.039062 122.195312 C 59.003906 122.195312 58.96875 122.179688 58.941406 122.152344 C 58.886719 122.097656 58.886719 122.007812 58.941406 121.953125 L 61.035156 119.898438 C 61.089844 119.84375 61.179688 119.84375 61.234375 119.902344 C 61.289062 119.957031 61.289062 120.046875 61.230469 120.101562 L 59.140625 122.152344 C 59.113281 122.179688 59.078125 122.195312 59.039062 122.195312 " fill-opacity="1" fill-rule="nonzero"/><path fill="#ffffff" d="M 37.699219 143.128906 C 37.664062 143.128906 37.628906 143.113281 37.601562 143.085938 C 37.546875 143.03125 37.546875 142.941406 37.601562 142.886719 L 57.777344 123.09375 C 57.832031 123.039062 57.921875 123.039062 57.976562 123.09375 C 58.03125 123.152344 58.03125 123.242188 57.976562 123.292969 L 37.800781 143.085938 C 37.773438 143.113281 37.738281 143.128906 37.699219 143.128906 " fill-opacity="1" fill-rule="nonzero"/><path fill="#ffffff" d="M 124.074219 60.117188 C 124.074219 60.117188 125.632812 58.175781 127.5625 57.125 C 129.488281 56.074219 134.378906 53.84375 134.378906 53.84375 C 134.378906 53.84375 134.96875 54.742188 134.339844 55.449219 C 133.710938 56.15625 130.144531 58.894531 129.984375 59.15625 C 129.820312 59.414062 128.375 60.914062 126.601562 61.175781 C 124.835938 61.4375 123.648438 63.09375 123.648438 63.09375 L 124.074219 60.117188 " fill-opacity="1" fill-rule="nonzero"/><path fill="#000000" d="M 124.207031 60.175781 L 123.859375 62.617188 C 124.335938 62.097656 125.304688 61.226562 126.582031 61.035156 C 128.261719 60.789062 129.683594 59.367188 129.863281 59.082031 C 129.941406 58.957031 130.421875 58.558594 131.589844 57.609375 C 132.617188 56.777344 133.894531 55.738281 134.234375 55.355469 C 134.667969 54.871094 134.441406 54.265625 134.320312 54.027344 C 133.5625 54.375 129.363281 56.304688 127.628906 57.25 C 125.875 58.207031 124.414062 59.929688 124.207031 60.175781 Z M 123.648438 63.234375 C 123.632812 63.234375 123.613281 63.230469 123.597656 63.222656 C 123.535156 63.199219 123.5 63.136719 123.507812 63.074219 L 123.933594 60.097656 C 123.9375 60.070312 123.949219 60.046875 123.964844 60.027344 C 124.027344 59.945312 125.5625 58.054688 127.492188 57.003906 C 129.402344 55.960938 134.273438 53.738281 134.324219 53.714844 C 134.386719 53.6875 134.460938 53.710938 134.5 53.765625 C 134.722656 54.109375 135 54.921875 134.445312 55.542969 C 134.089844 55.941406 132.859375 56.945312 131.769531 57.828125 C 131.023438 58.433594 130.179688 59.117188 130.101562 59.230469 C 129.976562 59.4375 128.515625 61.035156 126.625 61.316406 C 124.933594 61.566406 123.777344 63.160156 123.761719 63.175781 C 123.738281 63.214844 123.691406 63.234375 123.648438 63.234375 " fill-opacity="1" fill-rule="nonzero"/><path fill="#000000" d="M 128.308594 58.839844 C 128.25 58.839844 128.195312 58.800781 128.175781 58.742188 C 128.152344 58.667969 128.191406 58.589844 128.265625 58.5625 C 129.128906 58.269531 129.394531 57.949219 129.671875 57.613281 C 129.867188 57.371094 130.074219 57.121094 130.484375 56.890625 C 130.945312 56.628906 131.144531 56.40625 131.230469 56.257812 L 127.375 57.46875 C 127.300781 57.492188 127.222656 57.449219 127.199219 57.375 C 127.175781 57.300781 127.214844 57.222656 127.292969 57.199219 L 131.394531 55.910156 C 131.433594 55.894531 131.476562 55.902344 131.511719 55.921875 C 131.546875 55.945312 131.570312 55.980469 131.578125 56.019531 C 131.585938 56.074219 131.636719 56.5625 130.625 57.136719 C 130.257812 57.34375 130.078125 57.558594 129.890625 57.789062 C 129.597656 58.144531 129.296875 58.511719 128.355469 58.832031 C 128.339844 58.835938 128.324219 58.839844 128.308594 58.839844 " fill-opacity="1" fill-rule="nonzero"/><path fill="#ffffff" d="M 85.894531 101.128906 C 85.894531 101.128906 86.199219 98.085938 90.09375 95.625 C 94.910156 92.582031 99.984375 89.550781 101.855469 83.425781 C 101.855469 83.425781 105.585938 82.089844 113.332031 76.078125 C 121.078125 70.0625 121.773438 68.0625 125.613281 64.550781 L 124.441406 59.273438 C 124.441406 59.273438 104.351562 71.199219 101.773438 71.96875 C 99.199219 72.742188 92.675781 72.824219 85.921875 69.476562 C 83.050781 68.050781 75.023438 76.097656 75.023438 76.097656 C 75.023438 76.097656 75.648438 81.53125 74.164062 83.242188 C 72.675781 84.957031 62.910156 91.757812 63.023438 94.371094 C 63.140625 96.980469 70.910156 105.046875 85.894531 101.128906 " fill-opacity="1" fill-rule="nonzero"/><path fill="#ffffff" d="M 50.097656 96.863281 L 48.707031 96.578125 C 48.332031 96.503906 47.964844 96.746094 47.886719 97.121094 L 50.640625 97.683594 C 50.71875 97.308594 50.476562 96.941406 50.097656 96.863281 " fill-opacity="1" fill-rule="nonzero"/><path fill="#000000" d="M 48.070312 97.015625 L 50.511719 97.515625 C 50.507812 97.417969 50.476562 97.324219 50.421875 97.242188 C 50.339844 97.117188 50.214844 97.03125 50.070312 97.003906 L 48.679688 96.71875 C 48.535156 96.6875 48.386719 96.714844 48.261719 96.796875 C 48.179688 96.851562 48.113281 96.925781 48.070312 97.015625 Z M 50.640625 97.824219 C 50.632812 97.824219 50.621094 97.824219 50.613281 97.824219 L 47.859375 97.257812 C 47.820312 97.25 47.789062 97.230469 47.769531 97.199219 C 47.75 97.167969 47.742188 97.128906 47.75 97.09375 C 47.792969 96.875 47.921875 96.6875 48.109375 96.5625 C 48.292969 96.441406 48.515625 96.398438 48.734375 96.441406 L 50.128906 96.726562 C 50.347656 96.769531 50.535156 96.898438 50.65625 97.085938 C 50.78125 97.273438 50.824219 97.496094 50.777344 97.714844 C 50.765625 97.78125 50.707031 97.824219 50.640625 97.824219 " fill-opacity="1" fill-rule="nonzero"/><path fill="#ffffff" d="M 61.253906 99.152344 L 59.859375 98.867188 C 59.484375 98.789062 59.117188 99.03125 59.039062 99.40625 L 61.792969 99.972656 C 61.871094 99.59375 61.628906 99.226562 61.253906 99.152344 " fill-opacity="1" fill-rule="nonzero"/><path fill="#000000" d="M 59.226562 99.300781 L 61.667969 99.800781 C 61.660156 99.703125 61.628906 99.609375 61.574219 99.527344 C 61.492188 99.402344 61.371094 99.320312 61.222656 99.289062 L 59.832031 99.003906 C 59.6875 98.972656 59.539062 99.003906 59.417969 99.085938 C 59.332031 99.140625 59.269531 99.214844 59.226562 99.300781 Z M 61.792969 100.113281 C 61.785156 100.113281 61.773438 100.113281 61.765625 100.109375 L 59.011719 99.546875 C 58.976562 99.539062 58.945312 99.515625 58.921875 99.484375 C 58.902344 99.453125 58.894531 99.414062 58.902344 99.378906 C 58.996094 98.925781 59.4375 98.636719 59.890625 98.726562 L 61.28125 99.011719 C 61.5 99.058594 61.6875 99.183594 61.8125 99.371094 C 61.933594 99.558594 61.976562 99.78125 61.933594 100 C 61.917969 100.066406 61.859375 100.113281 61.792969 100.113281 " fill-opacity="1" fill-rule="nonzero"/><path fill="#000000" d="M 60.898438 99.039062 L 61.394531 97.753906 C 61.746094 96.84375 61.265625 95.945312 60.324219 95.753906 L 51.976562 94.042969 C 51.03125 93.847656 49.980469 94.429688 49.628906 95.34375 L 49.132812 96.628906 L 49.769531 96.757812 L 50.15625 95.757812 C 50.429688 95.050781 51.25 94.597656 51.984375 94.746094 L 59.8125 96.351562 C 60.546875 96.5 60.917969 97.199219 60.644531 97.910156 L 60.257812 98.910156 L 60.898438 99.039062 " fill-opacity="1" fill-rule="nonzero"/><path fill="#ffffff" d="M 60.019531 95.117188 L 52.691406 93.613281 C 52.394531 93.554688 52.066406 93.734375 51.957031 94.019531 L 51.714844 94.640625 C 51.605469 94.925781 51.757812 95.203125 52.050781 95.265625 L 59.382812 96.765625 C 59.679688 96.828125 60.007812 96.644531 60.117188 96.359375 L 60.355469 95.742188 C 60.464844 95.457031 60.316406 95.175781 60.019531 95.117188 " fill-opacity="1" fill-rule="nonzero"/><path fill="#000000" d="M 52.574219 93.742188 C 52.371094 93.742188 52.160156 93.878906 52.085938 94.070312 L 51.847656 94.691406 C 51.808594 94.789062 51.8125 94.890625 51.859375 94.972656 C 51.902344 95.050781 51.980469 95.105469 52.082031 95.125 L 59.410156 96.628906 C 59.636719 96.675781 59.902344 96.53125 59.984375 96.308594 L 60.226562 95.691406 C 60.261719 95.59375 60.261719 95.492188 60.214844 95.410156 C 60.171875 95.332031 60.09375 95.277344 59.992188 95.253906 L 52.664062 93.753906 C 52.632812 93.746094 52.605469 93.742188 52.574219 93.742188 Z M 59.5 96.921875 C 59.453125 96.921875 59.402344 96.914062 59.355469 96.90625 L 52.023438 95.402344 C 51.839844 95.367188 51.695312 95.261719 51.609375 95.105469 C 51.523438 94.949219 51.515625 94.765625 51.585938 94.589844 L 51.824219 93.96875 C 51.960938 93.617188 52.355469 93.402344 52.71875 93.476562 L 60.050781 94.976562 C 60.230469 95.015625 60.378906 95.121094 60.464844 95.273438 C 60.546875 95.429688 60.558594 95.613281 60.488281 95.792969 L 60.25 96.410156 C 60.128906 96.714844 59.820312 96.921875 59.5 96.921875 " fill-opacity="1" fill-rule="nonzero"/><path fill="#ffffff" d="M 58.878906 120.796875 L 37.445312 116.402344 C 36.15625 116.140625 35.4375 114.761719 35.957031 113.554688 L 42.449219 98.421875 C 42.996094 97.148438 44.359375 96.4375 45.71875 96.714844 L 64.101562 100.480469 L 58.878906 120.796875 " fill-opacity="1" fill-rule="nonzero"/><path fill="#000000" d="M 45.136719 96.796875 C 44.042969 96.796875 43.019531 97.445312 42.578125 98.476562 L 36.085938 113.613281 C 35.855469 114.148438 35.878906 114.75 36.148438 115.269531 C 36.417969 115.785156 36.902344 116.148438 37.472656 116.265625 L 58.777344 120.632812 L 63.929688 100.589844 L 45.6875 96.851562 C 45.503906 96.816406 45.320312 96.796875 45.136719 96.796875 Z M 58.878906 120.9375 C 58.871094 120.9375 58.859375 120.9375 58.851562 120.933594 L 37.417969 116.542969 C 36.761719 116.40625 36.207031 115.992188 35.898438 115.398438 C 35.589844 114.804688 35.5625 114.113281 35.824219 113.5 L 42.320312 98.367188 C 42.886719 97.039062 44.328125 96.285156 45.746094 96.574219 L 64.128906 100.34375 C 64.167969 100.351562 64.199219 100.375 64.222656 100.40625 C 64.242188 100.441406 64.25 100.480469 64.238281 100.519531 L 59.015625 120.832031 C 59 120.894531 58.941406 120.9375 58.878906 120.9375 " fill-opacity="1" fill-rule="nonzero"/><path fill="#ffffff" d="M 61.621094 121.359375 L 57.464844 120.507812 C 56.175781 120.242188 55.457031 118.867188 55.972656 117.660156 L 63.125 100.988281 C 63.289062 100.609375 63.695312 100.398438 64.097656 100.480469 L 65.167969 100.699219 C 65.613281 100.792969 65.910156 101.207031 65.855469 101.65625 L 63.640625 119.910156 C 63.519531 120.886719 62.589844 121.558594 61.621094 121.359375 " fill-opacity="1" fill-rule="nonzero"/><path fill="#000000" d="M 61.652344 121.222656 C 62.082031 121.308594 62.511719 121.21875 62.867188 120.960938 C 63.222656 120.707031 63.445312 120.324219 63.5 119.890625 L 65.71875 101.640625 C 65.761719 101.265625 65.507812 100.914062 65.140625 100.839844 L 64.070312 100.621094 C 63.734375 100.550781 63.390625 100.730469 63.253906 101.046875 L 56.105469 117.714844 C 55.875 118.25 55.898438 118.855469 56.167969 119.371094 C 56.4375 119.886719 56.921875 120.25 57.492188 120.371094 Z M 61.960938 121.535156 C 61.839844 121.535156 61.714844 121.523438 61.59375 121.496094 L 57.433594 120.644531 C 56.78125 120.511719 56.226562 120.09375 55.917969 119.503906 C 55.605469 118.910156 55.582031 118.21875 55.84375 117.601562 L 62.996094 100.933594 C 63.183594 100.496094 63.660156 100.246094 64.128906 100.34375 L 65.195312 100.5625 C 65.707031 100.667969 66.058594 101.15625 65.996094 101.671875 L 63.78125 119.925781 C 63.71875 120.429688 63.445312 120.890625 63.03125 121.191406 C 62.71875 121.414062 62.339844 121.535156 61.960938 121.535156 " fill-opacity="1" fill-rule="nonzero"/><path fill="#000000" d="M 58.308594 107.910156 C 58.226562 107.910156 58.140625 107.902344 58.058594 107.886719 L 41.273438 104.445312 C 41.199219 104.429688 41.148438 104.355469 41.164062 104.277344 C 41.179688 104.203125 41.253906 104.152344 41.332031 104.167969 L 58.113281 107.609375 C 58.546875 107.699219 58.984375 107.480469 59.171875 107.074219 L 61.929688 101.136719 C 61.964844 101.066406 62.046875 101.035156 62.117188 101.070312 C 62.1875 101.101562 62.21875 101.183594 62.1875 101.253906 L 59.425781 107.195312 C 59.21875 107.636719 58.78125 107.910156 58.308594 107.910156 " fill-opacity="1" fill-rule="nonzero"/><path fill="#ffffff" d="M 51.988281 106.644531 L 51.128906 108.441406 C 50.988281 108.746094 50.65625 108.914062 50.328125 108.847656 L 47.003906 108.164062 C 46.640625 108.089844 46.449219 107.691406 46.617188 107.363281 L 47.464844 105.714844 L 51.988281 106.644531 " fill-opacity="1" fill-rule="nonzero"/><path fill="#000000" d="M 47.539062 105.875 L 46.742188 107.429688 C 46.683594 107.546875 46.679688 107.679688 46.738281 107.800781 C 46.796875 107.917969 46.902344 108 47.03125 108.027344 L 50.355469 108.707031 C 50.621094 108.761719 50.886719 108.628906 51.003906 108.382812 L 51.785156 106.746094 Z M 50.472656 109.003906 C 50.417969 109.003906 50.355469 108.996094 50.296875 108.984375 L 46.972656 108.304688 C 46.757812 108.257812 46.578125 108.121094 46.484375 107.921875 C 46.386719 107.722656 46.390625 107.496094 46.492188 107.300781 L 47.335938 105.648438 C 47.367188 105.59375 47.429688 105.5625 47.492188 105.578125 L 52.019531 106.503906 C 52.058594 106.511719 52.097656 106.539062 52.117188 106.578125 C 52.136719 106.617188 52.136719 106.664062 52.117188 106.703125 L 51.257812 108.5 C 51.113281 108.8125 50.804688 109.003906 50.472656 109.003906 " fill-opacity="1" fill-rule="nonzero"/><path fill="#000000" d="M 54.753906 118.4375 C 54.742188 118.4375 54.734375 118.4375 54.722656 118.433594 L 36.894531 114.78125 C 36.820312 114.765625 36.769531 114.691406 36.785156 114.613281 C 36.800781 114.539062 36.875 114.488281 36.953125 114.503906 L 54.78125 118.160156 C 54.855469 118.175781 54.90625 118.25 54.890625 118.324219 C 54.878906 118.390625 54.816406 118.4375 54.753906 118.4375 " fill-opacity="1" fill-rule="nonzero"/><path fill="#ffffff" d="M 56.332031 89.078125 L 53.703125 92.3125 C 53.703125 92.3125 53.011719 94.523438 53.183594 95.414062 C 53.355469 96.304688 55.78125 97.234375 57.5625 96.394531 C 57.5625 96.394531 56.605469 95.128906 56.90625 94.476562 L 58.609375 94.007812 L 57.925781 91.457031 L 58.609375 89.8125 L 56.332031 89.078125 " fill-opacity="1" fill-rule="nonzero"/><path fill="#000000" d="M 53.832031 92.378906 C 53.753906 92.628906 53.171875 94.59375 53.320312 95.386719 C 53.371094 95.636719 53.664062 95.921875 54.109375 96.148438 C 54.945312 96.574219 56.246094 96.78125 57.347656 96.335938 C 57.089844 95.964844 56.503906 95.011719 56.78125 94.417969 C 56.796875 94.382812 56.828125 94.355469 56.871094 94.34375 L 58.4375 93.90625 L 57.789062 91.492188 C 57.78125 91.460938 57.785156 91.429688 57.796875 91.402344 L 58.421875 89.902344 L 56.378906 89.242188 Z M 56 96.867188 C 55.25 96.867188 54.523438 96.675781 53.984375 96.402344 C 53.445312 96.128906 53.109375 95.785156 53.042969 95.441406 C 52.871094 94.527344 53.539062 92.363281 53.570312 92.269531 C 53.574219 92.253906 53.582031 92.238281 53.59375 92.222656 L 56.222656 88.988281 C 56.257812 88.945312 56.320312 88.925781 56.375 88.945312 L 58.652344 89.679688 C 58.691406 89.691406 58.722656 89.71875 58.738281 89.753906 C 58.753906 89.789062 58.753906 89.832031 58.742188 89.867188 L 58.074219 91.464844 L 58.746094 93.96875 C 58.765625 94.042969 58.722656 94.121094 58.648438 94.140625 L 57.011719 94.59375 C 56.863281 95.082031 57.433594 95.988281 57.675781 96.308594 C 57.703125 96.34375 57.710938 96.386719 57.703125 96.429688 C 57.691406 96.46875 57.664062 96.503906 57.625 96.523438 C 57.109375 96.765625 56.546875 96.867188 56 96.867188 " fill-opacity="1" fill-rule="nonzero"/><path fill="#ffffff" d="M 87.578125 70.789062 C 87.578125 70.789062 86.90625 68.953125 80.972656 68.277344 C 75.035156 67.601562 71.257812 71.652344 69.75 72.5 C 68.242188 73.347656 61.949219 75.632812 59.546875 79.242188 C 57.144531 82.847656 54.015625 89.46875 54.015625 89.46875 L 59.535156 90.800781 C 59.535156 90.800781 65.246094 83.386719 71.941406 80.847656 C 78.636719 78.308594 87.574219 75.867188 87.578125 70.789062 " fill-opacity="1" fill-rule="nonzero"/><path fill="#000000" d="M 75.125 79.539062 C 75.15625 79.539062 75.1875 79.550781 75.210938 79.570312 C 75.25 79.597656 75.269531 79.640625 75.265625 79.6875 C 75.171875 81.453125 74.835938 82.683594 74.269531 83.335938 C 73.816406 83.859375 72.640625 84.816406 71.15625 86.027344 C 67.945312 88.648438 63.089844 92.605469 63.167969 94.363281 C 63.207031 95.257812 64.238281 96.949219 66.417969 98.554688 C 68.675781 100.21875 75.070312 103.78125 85.765625 101.015625 C 85.855469 100.460938 86.457031 97.757812 90.019531 95.503906 L 90.5 95.199219 C 95.136719 92.277344 99.929688 89.253906 101.71875 83.382812 C 101.730469 83.339844 101.765625 83.308594 101.804688 83.292969 C 101.84375 83.277344 105.613281 81.890625 113.246094 75.964844 C 118.316406 72.027344 120.316406 69.863281 122.246094 67.769531 C 123.230469 66.699219 124.164062 65.691406 125.460938 64.5 L 124.34375 59.492188 C 122.273438 60.722656 104.28125 71.367188 101.816406 72.105469 C 99.082031 72.925781 92.574219 72.933594 85.859375 69.601562 C 85.816406 69.578125 85.765625 69.558594 85.703125 69.535156 C 84.519531 69.015625 82.925781 68.640625 80.957031 68.417969 C 76.207031 67.878906 72.914062 70.351562 70.941406 71.832031 C 70.480469 72.179688 70.113281 72.457031 69.816406 72.621094 C 69.515625 72.792969 69.03125 73.015625 68.417969 73.300781 C 66.023438 74.40625 61.570312 76.460938 59.664062 79.320312 C 57.5 82.570312 54.707031 88.351562 54.21875 89.371094 L 59.480469 90.644531 C 60.09375 89.867188 65.589844 83.105469 71.890625 80.714844 C 72.789062 80.375 73.703125 80.042969 74.675781 79.695312 L 75.078125 79.546875 C 75.09375 79.542969 75.109375 79.539062 75.125 79.539062 Z M 78.152344 102.324219 C 76.695312 102.324219 75.285156 102.203125 73.921875 101.957031 C 70.242188 101.292969 67.71875 99.863281 66.25 98.785156 C 63.984375 97.113281 62.929688 95.367188 62.882812 94.375 C 62.800781 92.476562 67.527344 88.625 70.980469 85.808594 C 72.394531 84.652344 73.617188 83.65625 74.058594 83.152344 C 74.558594 82.570312 74.867188 81.472656 74.972656 79.886719 L 74.773438 79.960938 C 73.800781 80.308594 72.886719 80.640625 71.992188 80.980469 C 65.410156 83.472656 59.703125 90.8125 59.644531 90.886719 C 59.613281 90.933594 59.554688 90.953125 59.5 90.9375 L 53.984375 89.605469 C 53.941406 89.597656 53.910156 89.570312 53.890625 89.53125 C 53.871094 89.492188 53.871094 89.449219 53.890625 89.410156 C 53.921875 89.34375 57.050781 82.738281 59.429688 79.164062 C 61.378906 76.238281 65.878906 74.160156 68.296875 73.042969 C 68.90625 72.765625 69.386719 72.542969 69.679688 72.378906 C 69.960938 72.21875 70.320312 71.949219 70.773438 71.609375 C 72.644531 70.203125 76.128906 67.582031 80.988281 68.136719 C 82.984375 68.363281 84.605469 68.746094 85.804688 69.273438 C 85.871094 69.296875 85.929688 69.320312 85.984375 69.347656 C 92.625 72.644531 99.042969 72.640625 101.734375 71.835938 C 104.265625 71.078125 124.167969 59.269531 124.367188 59.152344 C 124.40625 59.128906 124.453125 59.125 124.496094 59.140625 C 124.539062 59.160156 124.570312 59.195312 124.578125 59.242188 L 125.753906 64.519531 C 125.761719 64.570312 125.746094 64.621094 125.710938 64.65625 C 124.390625 65.859375 123.449219 66.878906 122.453125 67.960938 C 120.605469 69.964844 118.507812 72.234375 113.417969 76.1875 C 106.296875 81.714844 102.507812 83.316406 101.96875 83.53125 C 100.132812 89.460938 95.3125 92.5 90.652344 95.4375 L 90.167969 95.742188 C 86.386719 98.132812 86.035156 101.113281 86.035156 101.140625 C 86.027344 101.199219 85.984375 101.25 85.929688 101.265625 C 83.226562 101.972656 80.625 102.324219 78.152344 102.324219 " fill-opacity="1" fill-rule="nonzero"/><path fill="#000000" d="M 102.398438 82.1875 C 102.378906 82.1875 102.359375 82.183594 102.339844 82.175781 C 102.269531 82.140625 102.238281 82.058594 102.273438 81.988281 C 103.699219 78.957031 106.082031 77.171875 106.105469 77.15625 C 106.167969 77.109375 106.253906 77.121094 106.300781 77.183594 C 106.347656 77.246094 106.335938 77.335938 106.273438 77.382812 C 106.25 77.398438 103.921875 79.144531 102.527344 82.105469 C 102.503906 82.15625 102.453125 82.1875 102.398438 82.1875 " fill-opacity="1" fill-rule="nonzero"/><path fill="#000000" d="M 77.03125 79.125 C 76.972656 79.125 76.921875 79.089844 76.898438 79.03125 C 76.875 78.957031 76.914062 78.875 76.984375 78.851562 C 77.027344 78.835938 81.1875 77.378906 82.980469 76.234375 C 83.046875 76.191406 83.132812 76.210938 83.175781 76.277344 C 83.214844 76.34375 83.199219 76.429688 83.132812 76.472656 C 81.3125 77.632812 77.25 79.058594 77.078125 79.117188 C 77.0625 79.125 77.046875 79.125 77.03125 79.125 " fill-opacity="1" fill-rule="nonzero"/><path fill="#000000" d="M 95.3125 66.292969 L 94.128906 66.492188 C 94.128906 66.492188 92.808594 65.640625 91.960938 64.265625 C 91.113281 62.890625 89.28125 61.152344 92.722656 59.664062 C 96.160156 58.175781 96.863281 57.6875 97.550781 56.625 C 98.238281 55.5625 99.863281 53.996094 101.460938 55.292969 C 103.054688 56.589844 101.898438 59.160156 101.898438 59.160156 C 101.898438 59.160156 103.109375 59.25 102.667969 60.285156 C 102.226562 61.320312 95.3125 66.292969 95.3125 66.292969 " fill-opacity="1" fill-rule="nonzero"/><path fill="#ffffff" d="M 102.074219 64.019531 C 102.105469 63.972656 102.089844 63.90625 102.042969 63.871094 C 101.214844 63.265625 100.59375 62.417969 100.261719 61.445312 C 99.957031 60.558594 99.742188 59.933594 99.742188 59.933594 C 98.53125 63.394531 93.789062 61.605469 94.046875 62.21875 C 94.308594 62.832031 93.679688 64.886719 93.679688 64.886719 C 91.707031 67.105469 89.921875 68.511719 86.808594 69.894531 C 91.859375 76.351562 95.234375 73.707031 95.234375 73.707031 L 97.335938 69.46875 C 99.460938 69.394531 102.273438 68.058594 102.128906 67.269531 C 102.082031 66.996094 101.847656 66.238281 101.550781 65.308594 C 101.484375 65.109375 101.511719 64.890625 101.628906 64.710938 L 102.074219 64.019531 " fill-opacity="1" fill-rule="nonzero"/><path fill="#000000" d="M 101.953125 63.945312 Z M 95.234375 73.707031 Z M 87.03125 69.949219 C 89 72.425781 91.003906 73.851562 92.832031 74.074219 C 94.15625 74.234375 94.976562 73.71875 95.121094 73.613281 L 97.207031 69.40625 C 97.230469 69.359375 97.277344 69.328125 97.332031 69.328125 C 99.074219 69.265625 101.28125 68.335938 101.859375 67.613281 C 101.929688 67.527344 102.011719 67.402344 101.992188 67.296875 C 101.949219 67.054688 101.753906 66.402344 101.417969 65.351562 C 101.335938 65.109375 101.371094 64.847656 101.507812 64.636719 L 101.9375 63.96875 C 101.09375 63.34375 100.464844 62.488281 100.128906 61.492188 C 99.960938 61.007812 99.824219 60.605469 99.730469 60.335938 C 98.714844 62.519531 96.136719 62.335938 94.871094 62.246094 C 94.609375 62.226562 94.324219 62.207031 94.199219 62.222656 C 94.414062 62.917969 93.878906 64.71875 93.816406 64.925781 C 93.8125 64.945312 93.800781 64.964844 93.785156 64.980469 C 91.714844 67.308594 89.871094 68.667969 87.03125 69.949219 Z M 93.339844 74.386719 C 93.171875 74.386719 92.992188 74.375 92.800781 74.351562 C 90.832031 74.113281 88.777344 72.644531 86.695312 69.980469 C 86.667969 69.949219 86.660156 69.902344 86.671875 69.859375 C 86.679688 69.820312 86.710938 69.78125 86.75 69.765625 C 89.671875 68.46875 91.457031 67.171875 93.554688 64.816406 C 93.730469 64.234375 94.109375 62.730469 93.917969 62.273438 C 93.871094 62.167969 93.910156 62.09375 93.933594 62.058594 C 94.042969 61.90625 94.308594 61.921875 94.890625 61.964844 C 96.25 62.0625 98.785156 62.238281 99.609375 59.886719 C 99.628906 59.832031 99.683594 59.792969 99.742188 59.792969 C 99.800781 59.792969 99.855469 59.832031 99.875 59.886719 C 99.875 59.886719 100.089844 60.511719 100.394531 61.398438 C 100.71875 62.347656 101.316406 63.164062 102.128906 63.757812 C 102.234375 63.835938 102.265625 63.984375 102.191406 64.097656 L 101.746094 64.789062 C 101.65625 64.929688 101.632812 65.105469 101.683594 65.265625 C 102.03125 66.339844 102.222656 66.988281 102.269531 67.246094 C 102.300781 67.414062 102.234375 67.597656 102.082031 67.789062 C 101.46875 68.550781 99.273438 69.515625 97.425781 69.605469 L 95.359375 73.769531 C 95.351562 73.789062 95.335938 73.808594 95.320312 73.820312 C 95.285156 73.847656 94.582031 74.386719 93.339844 74.386719 " fill-opacity="1" fill-rule="nonzero"/><path fill="#000000" d="M 94.890625 67.253906 C 94.878906 67.253906 94.863281 67.253906 94.851562 67.25 C 94.128906 67.023438 93.621094 66.621094 93.417969 66.109375 C 93.257812 65.703125 93.308594 65.253906 93.558594 64.816406 C 93.625 64.703125 93.824219 64.355469 94.109375 64.40625 C 94.464844 64.46875 94.605469 65.136719 94.640625 65.339844 C 94.652344 65.417969 94.597656 65.488281 94.523438 65.5 C 94.445312 65.515625 94.375 65.464844 94.359375 65.386719 C 94.308594 65.070312 94.167969 64.703125 94.058594 64.683594 C 94.03125 64.679688 93.9375 64.726562 93.804688 64.957031 C 93.59375 65.324219 93.550781 65.675781 93.679688 66.003906 C 93.847656 66.429688 94.304688 66.785156 94.933594 66.980469 C 95.007812 67.003906 95.050781 67.082031 95.027344 67.15625 C 95.007812 67.21875 94.953125 67.253906 94.890625 67.253906 " fill-opacity="1" fill-rule="nonzero"/><path fill="#000000" d="M 97.335938 69.609375 C 97.335938 69.609375 97.332031 69.609375 97.332031 69.609375 C 95.753906 69.558594 95.429688 68.472656 95.414062 68.425781 C 95.394531 68.351562 95.4375 68.273438 95.511719 68.25 C 95.585938 68.230469 95.664062 68.273438 95.6875 68.347656 C 95.699219 68.386719 95.976562 69.285156 97.339844 69.328125 C 97.417969 69.332031 97.480469 69.394531 97.476562 69.472656 C 97.472656 69.550781 97.410156 69.609375 97.335938 69.609375 " fill-opacity="1" fill-rule="nonzero"/><path fill="#000000" d="M 86.671875 154.1875 L 73.894531 154.1875 C 73.816406 154.1875 73.753906 154.125 73.753906 154.046875 C 73.753906 153.96875 73.816406 153.90625 73.894531 153.90625 L 86.671875 153.90625 C 87.402344 153.90625 88.101562 153.628906 88.632812 153.125 L 93.386719 148.621094 C 93.445312 148.570312 93.535156 148.570312 93.585938 148.625 C 93.640625 148.683594 93.636719 148.773438 93.582031 148.828125 L 88.828125 153.328125 C 88.242188 153.882812 87.476562 154.1875 86.671875 154.1875 " fill-opacity="1" fill-rule="nonzero"/><path fill="#000000" d="M 70.769531 154.878906 C 70.210938 154.878906 69.757812 154.425781 69.757812 153.867188 C 69.757812 153.789062 69.820312 153.722656 69.898438 153.722656 C 69.972656 153.722656 70.039062 153.789062 70.039062 153.867188 C 70.039062 154.269531 70.367188 154.597656 70.769531 154.597656 C 71.175781 154.597656 71.503906 154.269531 71.503906 153.867188 C 71.503906 153.460938 71.175781 153.132812 70.769531 153.132812 C 70.691406 153.132812 70.628906 153.070312 70.628906 152.992188 C 70.628906 152.914062 70.691406 152.851562 70.769531 152.851562 C 71.332031 152.851562 71.785156 153.304688 71.785156 153.867188 C 71.785156 154.425781 71.332031 154.878906 70.769531 154.878906 " fill-opacity="1" fill-rule="nonzero"/><path fill="#000000" d="M 108.925781 90.566406 C 108.847656 90.566406 108.785156 90.503906 108.785156 90.425781 L 108.785156 89.332031 C 108.785156 89.253906 108.847656 89.191406 108.925781 89.191406 C 109.003906 89.191406 109.066406 89.253906 109.066406 89.332031 L 109.066406 90.425781 C 109.066406 90.503906 109.003906 90.566406 108.925781 90.566406 " fill-opacity="1" fill-rule="nonzero"/><path fill="#000000" d="M 108.925781 93.117188 C 108.847656 93.117188 108.785156 93.054688 108.785156 92.976562 L 108.785156 91.882812 C 108.785156 91.804688 108.847656 91.742188 108.925781 91.742188 C 109.003906 91.742188 109.066406 91.804688 109.066406 91.882812 L 109.066406 92.976562 C 109.066406 93.054688 109.003906 93.117188 108.925781 93.117188 " fill-opacity="1" fill-rule="nonzero"/><path fill="#000000" d="M 108.199219 91.296875 L 107.105469 91.296875 C 107.027344 91.296875 106.960938 91.230469 106.960938 91.15625 C 106.960938 91.078125 107.027344 91.011719 107.105469 91.011719 L 108.199219 91.011719 C 108.277344 91.011719 108.339844 91.078125 108.339844 91.15625 C 108.339844 91.230469 108.277344 91.296875 108.199219 91.296875 " fill-opacity="1" fill-rule="nonzero"/><path fill="#000000" d="M 110.75 91.296875 L 109.652344 91.296875 C 109.574219 91.296875 109.511719 91.230469 109.511719 91.15625 C 109.511719 91.078125 109.574219 91.011719 109.652344 91.011719 L 110.75 91.011719 C 110.828125 91.011719 110.890625 91.078125 110.890625 91.15625 C 110.890625 91.230469 110.828125 91.296875 110.75 91.296875 " fill-opacity="1" fill-rule="nonzero"/><path fill="#000000" d="M 44.429688 77.09375 C 44.351562 77.09375 44.289062 77.03125 44.289062 76.953125 L 44.289062 75.859375 C 44.289062 75.78125 44.351562 75.71875 44.429688 75.71875 C 44.507812 75.71875 44.570312 75.78125 44.570312 75.859375 L 44.570312 76.953125 C 44.570312 77.03125 44.507812 77.09375 44.429688 77.09375 " fill-opacity="1" fill-rule="nonzero"/><path fill="#000000" d="M 44.429688 79.644531 C 44.351562 79.644531 44.289062 79.578125 44.289062 79.5 L 44.289062 78.40625 C 44.289062 78.328125 44.351562 78.265625 44.429688 78.265625 C 44.507812 78.265625 44.570312 78.328125 44.570312 78.40625 L 44.570312 79.5 C 44.570312 79.578125 44.507812 79.644531 44.429688 79.644531 " fill-opacity="1" fill-rule="nonzero"/><path fill="#000000" d="M 43.703125 77.820312 L 42.609375 77.820312 C 42.53125 77.820312 42.464844 77.757812 42.464844 77.679688 C 42.464844 77.601562 42.53125 77.539062 42.609375 77.539062 L 43.703125 77.539062 C 43.78125 77.539062 43.84375 77.601562 43.84375 77.679688 C 43.84375 77.757812 43.78125 77.820312 43.703125 77.820312 " fill-opacity="1" fill-rule="nonzero"/><path fill="#000000" d="M 46.253906 77.820312 L 45.15625 77.820312 C 45.078125 77.820312 45.015625 77.757812 45.015625 77.679688 C 45.015625 77.601562 45.078125 77.539062 45.15625 77.539062 L 46.253906 77.539062 C 46.332031 77.539062 46.394531 77.601562 46.394531 77.679688 C 46.394531 77.757812 46.332031 77.820312 46.253906 77.820312 " fill-opacity="1" fill-rule="nonzero"/><path fill="#000000" d="M 124.292969 82.367188 C 122.835938 82.765625 121.332031 81.90625 120.929688 80.449219 C 120.53125 78.992188 121.390625 77.488281 122.847656 77.089844 C 124.308594 76.691406 125.8125 77.546875 126.210938 79.003906 C 126.609375 80.460938 125.75 81.964844 124.292969 82.367188 Z M 128.675781 78.332031 C 128.597656 78.042969 128.328125 77.847656 128.03125 77.859375 L 127.425781 77.886719 C 127.320312 77.671875 127.203125 77.464844 127.066406 77.273438 L 127.386719 76.761719 C 127.542969 76.507812 127.507812 76.175781 127.292969 75.964844 C 127.082031 75.757812 126.75 75.722656 126.5 75.882812 L 125.988281 76.210938 C 125.792969 76.074219 125.585938 75.957031 125.371094 75.855469 L 125.390625 75.25 C 125.402344 74.953125 125.203125 74.6875 124.914062 74.609375 C 124.625 74.535156 124.320312 74.667969 124.183594 74.933594 L 123.90625 75.46875 C 123.671875 75.453125 123.433594 75.453125 123.191406 75.476562 L 122.90625 74.941406 C 122.765625 74.675781 122.460938 74.546875 122.171875 74.625 C 121.886719 74.703125 121.691406 74.972656 121.703125 75.269531 L 121.730469 75.875 C 121.515625 75.980469 121.308594 76.097656 121.117188 76.234375 L 120.601562 75.914062 C 120.347656 75.757812 120.019531 75.792969 119.808594 76.007812 C 119.597656 76.21875 119.5625 76.550781 119.722656 76.800781 L 120.050781 77.3125 C 119.917969 77.507812 119.800781 77.714844 119.699219 77.929688 L 119.09375 77.910156 C 118.792969 77.898438 118.527344 78.097656 118.453125 78.386719 C 118.375 78.675781 118.511719 78.980469 118.777344 79.117188 L 119.3125 79.394531 C 119.292969 79.628906 119.296875 79.867188 119.316406 80.105469 L 118.785156 80.390625 C 118.519531 80.53125 118.386719 80.835938 118.464844 81.125 C 118.546875 81.414062 118.8125 81.609375 119.113281 81.59375 L 119.71875 81.566406 C 119.820312 81.785156 119.941406 81.992188 120.078125 82.183594 L 119.757812 82.695312 C 119.597656 82.949219 119.636719 83.277344 119.847656 83.488281 C 120.0625 83.699219 120.390625 83.734375 120.644531 83.574219 L 121.15625 83.246094 C 121.351562 83.382812 121.558594 83.5 121.773438 83.597656 L 121.753906 84.203125 C 121.742188 84.503906 121.941406 84.769531 122.230469 84.84375 C 122.519531 84.921875 122.824219 84.785156 122.960938 84.519531 L 123.238281 83.984375 C 123.472656 84.003906 123.710938 84 123.949219 83.980469 L 124.234375 84.515625 C 124.375 84.777344 124.679688 84.910156 124.96875 84.828125 C 125.257812 84.75 125.453125 84.484375 125.4375 84.183594 L 125.414062 83.578125 C 125.628906 83.476562 125.835938 83.355469 126.027344 83.21875 L 126.539062 83.539062 C 126.792969 83.699219 127.125 83.660156 127.332031 83.449219 C 127.542969 83.234375 127.578125 82.90625 127.417969 82.652344 L 127.09375 82.144531 C 127.226562 81.945312 127.34375 81.738281 127.445312 81.523438 L 128.050781 81.546875 C 128.347656 81.554688 128.617188 81.359375 128.691406 81.070312 C 128.765625 80.777344 128.632812 80.476562 128.367188 80.339844 L 127.832031 80.0625 C 127.847656 79.824219 127.847656 79.589844 127.824219 79.347656 L 128.359375 79.0625 C 128.625 78.921875 128.753906 78.617188 128.675781 78.332031 " fill-opacity="1" fill-rule="nonzero"/><g fill="#000000" fill-opacity="1"><g transform="translate(158.036861, 33.054372)"><g><path d="M 3.75 0 L 1.0625 0 L 1.0625 -10.59375 L 3.75 -10.59375 Z M 3.75 0 "/></g></g></g><g fill="#000000" fill-opacity="1"><g transform="translate(162.847854, 33.054372)"><g><path d="M 3.96875 -8.28125 C 5.164062 -8.28125 6.285156 -7.972656 7.328125 -7.359375 L 6.4375 -5.65625 C 5.425781 -6.207031 4.566406 -6.484375 3.859375 -6.484375 C 3.328125 -6.484375 3.0625 -6.296875 3.0625 -5.921875 C 3.0625 -5.710938 3.207031 -5.539062 3.5 -5.40625 C 3.789062 -5.269531 4.144531 -5.144531 4.5625 -5.03125 C 4.988281 -4.925781 5.410156 -4.789062 5.828125 -4.625 C 6.253906 -4.457031 6.613281 -4.191406 6.90625 -3.828125 C 7.195312 -3.460938 7.34375 -3.019531 7.34375 -2.5 C 7.34375 -1.675781 7.023438 -1.035156 6.390625 -0.578125 C 5.753906 -0.117188 4.925781 0.109375 3.90625 0.109375 C 2.457031 0.109375 1.238281 -0.273438 0.25 -1.046875 L 1.078125 -2.703125 C 2.035156 -2.035156 3 -1.703125 3.96875 -1.703125 C 4.5625 -1.703125 4.859375 -1.882812 4.859375 -2.25 C 4.859375 -2.46875 4.710938 -2.644531 4.421875 -2.78125 C 4.140625 -2.925781 3.789062 -3.050781 3.375 -3.15625 C 2.957031 -3.269531 2.539062 -3.410156 2.125 -3.578125 C 1.71875 -3.742188 1.367188 -4.003906 1.078125 -4.359375 C 0.796875 -4.710938 0.65625 -5.15625 0.65625 -5.6875 C 0.65625 -6.507812 0.960938 -7.144531 1.578125 -7.59375 C 2.191406 -8.050781 2.988281 -8.28125 3.96875 -8.28125 Z M 3.96875 -8.28125 "/></g></g></g><g fill="#000000" fill-opacity="1"><g transform="translate(170.608985, 33.054372)"><g/></g></g><g fill="#000000" fill-opacity="1"><g transform="translate(174.118887, 33.054372)"><g><path d="M 5.125 -10.71875 C 6.71875 -10.71875 8.113281 -10.320312 9.3125 -9.53125 L 8.296875 -7.4375 C 7.742188 -7.757812 7.148438 -8.023438 6.515625 -8.234375 C 5.878906 -8.441406 5.34375 -8.546875 4.90625 -8.546875 C 4.125 -8.546875 3.734375 -8.285156 3.734375 -7.765625 C 3.734375 -7.429688 3.925781 -7.160156 4.3125 -6.953125 C 4.695312 -6.753906 5.164062 -6.582031 5.71875 -6.4375 C 6.269531 -6.289062 6.816406 -6.113281 7.359375 -5.90625 C 7.910156 -5.707031 8.378906 -5.375 8.765625 -4.90625 C 9.148438 -4.4375 9.34375 -3.851562 9.34375 -3.15625 C 9.34375 -2.132812 8.941406 -1.335938 8.140625 -0.765625 C 7.347656 -0.191406 6.335938 0.09375 5.109375 0.09375 C 4.222656 0.09375 3.351562 -0.0546875 2.5 -0.359375 C 1.644531 -0.660156 0.894531 -1.078125 0.25 -1.609375 L 1.296875 -3.671875 C 1.835938 -3.210938 2.46875 -2.832031 3.1875 -2.53125 C 3.914062 -2.238281 4.5625 -2.09375 5.125 -2.09375 C 5.5625 -2.09375 5.898438 -2.171875 6.140625 -2.328125 C 6.390625 -2.484375 6.515625 -2.710938 6.515625 -3.015625 C 6.515625 -3.304688 6.375 -3.550781 6.09375 -3.75 C 5.8125 -3.945312 5.460938 -4.09375 5.046875 -4.1875 C 4.640625 -4.28125 4.191406 -4.40625 3.703125 -4.5625 C 3.222656 -4.726562 2.773438 -4.90625 2.359375 -5.09375 C 1.941406 -5.289062 1.59375 -5.597656 1.3125 -6.015625 C 1.039062 -6.429688 0.90625 -6.9375 0.90625 -7.53125 C 0.90625 -8.5 1.289062 -9.269531 2.0625 -9.84375 C 2.832031 -10.425781 3.851562 -10.71875 5.125 -10.71875 Z M 5.125 -10.71875 "/></g></g></g><g fill="#000000" fill-opacity="1"><g transform="translate(183.861905, 33.054372)"><g><path d="M 4.703125 -8.28125 C 5.828125 -8.28125 6.695312 -8.019531 7.3125 -7.5 C 7.9375 -6.976562 8.253906 -6.253906 8.265625 -5.328125 L 8.265625 0 L 5.703125 0 L 5.703125 -0.9375 C 5.171875 -0.226562 4.335938 0.125 3.203125 0.125 C 2.347656 0.125 1.664062 -0.109375 1.15625 -0.578125 C 0.65625 -1.054688 0.40625 -1.675781 0.40625 -2.4375 C 0.40625 -3.21875 0.675781 -3.820312 1.21875 -4.25 C 1.757812 -4.675781 2.535156 -4.894531 3.546875 -4.90625 L 5.6875 -4.90625 L 5.6875 -5.03125 C 5.6875 -5.425781 5.550781 -5.738281 5.28125 -5.96875 C 5.019531 -6.195312 4.628906 -6.3125 4.109375 -6.3125 C 3.367188 -6.3125 2.554688 -6.082031 1.671875 -5.625 L 0.921875 -7.359375 C 2.242188 -7.972656 3.503906 -8.28125 4.703125 -8.28125 Z M 4.015625 -1.65625 C 4.429688 -1.65625 4.796875 -1.753906 5.109375 -1.953125 C 5.421875 -2.160156 5.613281 -2.429688 5.6875 -2.765625 L 5.6875 -3.5 L 4.046875 -3.5 C 3.253906 -3.5 2.859375 -3.207031 2.859375 -2.625 C 2.859375 -2.320312 2.957031 -2.082031 3.15625 -1.90625 C 3.363281 -1.738281 3.648438 -1.65625 4.015625 -1.65625 Z M 4.015625 -1.65625 "/></g></g></g><g fill="#000000" fill-opacity="1"><g transform="translate(192.939255, 33.054372)"><g><path d="M 3.734375 0 L 1.125 0 L 1.125 -11.234375 L 3.734375 -11.234375 Z M 3.734375 0 "/></g></g></g><g fill="#000000" fill-opacity="1"><g transform="translate(197.795635, 33.054372)"><g><path d="M 4.625 -8.25 C 6.03125 -8.25 7.085938 -7.8125 7.796875 -6.9375 C 8.515625 -6.070312 8.828125 -4.882812 8.734375 -3.375 L 3 -3.375 C 3.125 -2.894531 3.351562 -2.519531 3.6875 -2.25 C 4.019531 -1.988281 4.429688 -1.859375 4.921875 -1.859375 C 5.671875 -1.859375 6.320312 -2.132812 6.875 -2.6875 L 8.25 -1.34375 C 7.375 -0.382812 6.1875 0.09375 4.6875 0.09375 C 3.363281 0.09375 2.3125 -0.285156 1.53125 -1.046875 C 0.75 -1.804688 0.359375 -2.8125 0.359375 -4.0625 C 0.359375 -5.320312 0.75 -6.332031 1.53125 -7.09375 C 2.3125 -7.863281 3.34375 -8.25 4.625 -8.25 Z M 2.953125 -4.78125 L 6.21875 -4.78125 C 6.21875 -5.28125 6.070312 -5.679688 5.78125 -5.984375 C 5.5 -6.285156 5.117188 -6.4375 4.640625 -6.4375 C 4.203125 -6.4375 3.832031 -6.285156 3.53125 -5.984375 C 3.226562 -5.691406 3.035156 -5.289062 2.953125 -4.78125 Z M 2.953125 -4.78125 "/></g></g></g><g fill="#000000" fill-opacity="1"><g transform="translate(206.903243, 33.054372)"><g><path d="M 3.96875 -8.28125 C 5.164062 -8.28125 6.285156 -7.972656 7.328125 -7.359375 L 6.4375 -5.65625 C 5.425781 -6.207031 4.566406 -6.484375 3.859375 -6.484375 C 3.328125 -6.484375 3.0625 -6.296875 3.0625 -5.921875 C 3.0625 -5.710938 3.207031 -5.539062 3.5 -5.40625 C 3.789062 -5.269531 4.144531 -5.144531 4.5625 -5.03125 C 4.988281 -4.925781 5.410156 -4.789062 5.828125 -4.625 C 6.253906 -4.457031 6.613281 -4.191406 6.90625 -3.828125 C 7.195312 -3.460938 7.34375 -3.019531 7.34375 -2.5 C 7.34375 -1.675781 7.023438 -1.035156 6.390625 -0.578125 C 5.753906 -0.117188 4.925781 0.109375 3.90625 0.109375 C 2.457031 0.109375 1.238281 -0.273438 0.25 -1.046875 L 1.078125 -2.703125 C 2.035156 -2.035156 3 -1.703125 3.96875 -1.703125 C 4.5625 -1.703125 4.859375 -1.882812 4.859375 -2.25 C 4.859375 -2.46875 4.710938 -2.644531 4.421875 -2.78125 C 4.140625 -2.925781 3.789062 -3.050781 3.375 -3.15625 C 2.957031 -3.269531 2.539062 -3.410156 2.125 -3.578125 C 1.71875 -3.742188 1.367188 -4.003906 1.078125 -4.359375 C 0.796875 -4.710938 0.65625 -5.15625 0.65625 -5.6875 C 0.65625 -6.507812 0.960938 -7.144531 1.578125 -7.59375 C 2.191406 -8.050781 2.988281 -8.28125 3.96875 -8.28125 Z M 3.96875 -8.28125 "/></g></g></g><g fill="#000000" fill-opacity="1"><g transform="translate(214.664374, 33.054372)"><g><path d="M 5.0625 -9.28125 C 4.78125 -9.289062 4.550781 -9.21875 4.375 -9.0625 C 4.207031 -8.90625 4.125 -8.679688 4.125 -8.390625 L 4.125 -7.796875 L 5.96875 -7.796875 L 5.96875 -6.078125 L 4.125 -6.078125 L 4.125 0 L 1.53125 0 L 1.53125 -6.078125 L 0.421875 -6.078125 L 0.421875 -7.796875 L 1.53125 -7.796875 L 1.53125 -8.546875 C 1.53125 -9.429688 1.820312 -10.117188 2.40625 -10.609375 C 2.988281 -11.109375 3.734375 -11.359375 4.640625 -11.359375 C 5.515625 -11.359375 6.28125 -11.164062 6.9375 -10.78125 L 6.015625 -8.953125 C 5.710938 -9.171875 5.394531 -9.28125 5.0625 -9.28125 Z M 5.0625 -9.28125 "/></g></g></g><g fill="#000000" fill-opacity="1"><g transform="translate(220.504133, 33.054372)"><g><path d="M 4.828125 -8.25 C 6.160156 -8.25 7.234375 -7.867188 8.046875 -7.109375 C 8.867188 -6.347656 9.28125 -5.335938 9.28125 -4.078125 C 9.28125 -2.828125 8.867188 -1.816406 8.046875 -1.046875 C 7.234375 -0.285156 6.160156 0.09375 4.828125 0.09375 C 3.484375 0.09375 2.398438 -0.285156 1.578125 -1.046875 C 0.765625 -1.816406 0.359375 -2.828125 0.359375 -4.078125 C 0.359375 -5.335938 0.765625 -6.347656 1.578125 -7.109375 C 2.398438 -7.867188 3.484375 -8.25 4.828125 -8.25 Z M 4.828125 -6.171875 C 4.285156 -6.171875 3.84375 -5.972656 3.5 -5.578125 C 3.164062 -5.191406 3 -4.6875 3 -4.0625 C 3 -3.425781 3.164062 -2.910156 3.5 -2.515625 C 3.84375 -2.128906 4.285156 -1.9375 4.828125 -1.9375 C 5.359375 -1.9375 5.789062 -2.128906 6.125 -2.515625 C 6.46875 -2.910156 6.640625 -3.425781 6.640625 -4.0625 C 6.640625 -4.6875 6.46875 -5.191406 6.125 -5.578125 C 5.789062 -5.972656 5.359375 -6.171875 4.828125 -6.171875 Z M 4.828125 -6.171875 "/></g></g></g><g fill="#000000" fill-opacity="1"><g transform="translate(230.141247, 33.054372)"><g><path d="M 3.65625 -8.15625 L 3.65625 -6.78125 C 4.238281 -7.757812 5.125 -8.257812 6.3125 -8.28125 L 6.3125 -5.921875 C 5.5625 -5.992188 4.945312 -5.867188 4.46875 -5.546875 C 4 -5.234375 3.726562 -4.78125 3.65625 -4.1875 L 3.65625 0 L 1.046875 0 L 1.046875 -8.15625 Z M 3.65625 -8.15625 "/></g></g></g><g fill="#000000" fill-opacity="1"><g transform="translate(236.601288, 33.054372)"><g><path d="M 4.609375 -8.25 C 5.410156 -8.25 6.125 -8.085938 6.75 -7.765625 C 7.382812 -7.453125 7.878906 -7.003906 8.234375 -6.421875 L 6.359375 -5.28125 C 5.953125 -5.84375 5.398438 -6.125 4.703125 -6.125 C 4.203125 -6.125 3.789062 -5.9375 3.46875 -5.5625 C 3.15625 -5.1875 3 -4.691406 3 -4.078125 C 3 -3.453125 3.15625 -2.945312 3.46875 -2.5625 C 3.78125 -2.1875 4.191406 -2 4.703125 -2 C 5.472656 -2 6.03125 -2.304688 6.375 -2.921875 L 8.28125 -1.796875 C 7.945312 -1.191406 7.457031 -0.722656 6.8125 -0.390625 C 6.175781 -0.0664062 5.429688 0.09375 4.578125 0.09375 C 3.316406 0.09375 2.296875 -0.285156 1.515625 -1.046875 C 0.742188 -1.816406 0.359375 -2.820312 0.359375 -4.0625 C 0.359375 -5.3125 0.75 -6.320312 1.53125 -7.09375 C 2.3125 -7.863281 3.335938 -8.25 4.609375 -8.25 Z M 4.609375 -8.25 "/></g></g></g><g fill="#000000" fill-opacity="1"><g transform="translate(245.103732, 33.054372)"><g><path d="M 4.625 -8.25 C 6.03125 -8.25 7.085938 -7.8125 7.796875 -6.9375 C 8.515625 -6.070312 8.828125 -4.882812 8.734375 -3.375 L 3 -3.375 C 3.125 -2.894531 3.351562 -2.519531 3.6875 -2.25 C 4.019531 -1.988281 4.429688 -1.859375 4.921875 -1.859375 C 5.671875 -1.859375 6.320312 -2.132812 6.875 -2.6875 L 8.25 -1.34375 C 7.375 -0.382812 6.1875 0.09375 4.6875 0.09375 C 3.363281 0.09375 2.3125 -0.285156 1.53125 -1.046875 C 0.75 -1.804688 0.359375 -2.8125 0.359375 -4.0625 C 0.359375 -5.320312 0.75 -6.332031 1.53125 -7.09375 C 2.3125 -7.863281 3.34375 -8.25 4.625 -8.25 Z M 2.953125 -4.78125 L 6.21875 -4.78125 C 6.21875 -5.28125 6.070312 -5.679688 5.78125 -5.984375 C 5.5 -6.285156 5.117188 -6.4375 4.640625 -6.4375 C 4.203125 -6.4375 3.832031 -6.285156 3.53125 -5.984375 C 3.226562 -5.691406 3.035156 -5.289062 2.953125 -4.78125 Z M 2.953125 -4.78125 "/></g></g></g><g fill="#000000" fill-opacity="1"><g transform="translate(254.21134, 33.054372)"><g/></g></g><g fill="#000000" fill-opacity="1"><g transform="translate(257.721243, 33.054372)"><g><path d="M 4.703125 -8.28125 C 5.828125 -8.28125 6.695312 -8.019531 7.3125 -7.5 C 7.9375 -6.976562 8.253906 -6.253906 8.265625 -5.328125 L 8.265625 0 L 5.703125 0 L 5.703125 -0.9375 C 5.171875 -0.226562 4.335938 0.125 3.203125 0.125 C 2.347656 0.125 1.664062 -0.109375 1.15625 -0.578125 C 0.65625 -1.054688 0.40625 -1.675781 0.40625 -2.4375 C 0.40625 -3.21875 0.675781 -3.820312 1.21875 -4.25 C 1.757812 -4.675781 2.535156 -4.894531 3.546875 -4.90625 L 5.6875 -4.90625 L 5.6875 -5.03125 C 5.6875 -5.425781 5.550781 -5.738281 5.28125 -5.96875 C 5.019531 -6.195312 4.628906 -6.3125 4.109375 -6.3125 C 3.367188 -6.3125 2.554688 -6.082031 1.671875 -5.625 L 0.921875 -7.359375 C 2.242188 -7.972656 3.503906 -8.28125 4.703125 -8.28125 Z M 4.015625 -1.65625 C 4.429688 -1.65625 4.796875 -1.753906 5.109375 -1.953125 C 5.421875 -2.160156 5.613281 -2.429688 5.6875 -2.765625 L 5.6875 -3.5 L 4.046875 -3.5 C 3.253906 -3.5 2.859375 -3.207031 2.859375 -2.625 C 2.859375 -2.320312 2.957031 -2.082031 3.15625 -1.90625 C 3.363281 -1.738281 3.648438 -1.65625 4.015625 -1.65625 Z M 4.015625 -1.65625 "/></g></g></g><g fill="#000000" fill-opacity="1"><g transform="translate(266.798592, 33.054372)"><g/></g></g><g fill="#000000" fill-opacity="1"><g transform="translate(270.308495, 33.054372)"><g><path d="M 8.84375 -8.15625 L 8.84375 -0.734375 C 8.84375 0.410156 8.4375 1.328125 7.625 2.015625 C 6.8125 2.703125 5.742188 3.046875 4.421875 3.046875 C 3.066406 3.046875 1.851562 2.6875 0.78125 1.96875 L 1.703125 0.203125 C 2.484375 0.742188 3.320312 1.015625 4.21875 1.015625 C 4.84375 1.015625 5.332031 0.863281 5.6875 0.5625 C 6.050781 0.257812 6.234375 -0.148438 6.234375 -0.671875 L 6.234375 -1.53125 C 5.679688 -0.800781 4.898438 -0.4375 3.890625 -0.4375 C 2.847656 -0.4375 2 -0.800781 1.34375 -1.53125 C 0.695312 -2.257812 0.375 -3.210938 0.375 -4.390625 C 0.375 -5.535156 0.691406 -6.460938 1.328125 -7.171875 C 1.960938 -7.890625 2.796875 -8.25 3.828125 -8.25 C 4.867188 -8.257812 5.671875 -7.894531 6.234375 -7.15625 L 6.234375 -8.15625 Z M 4.546875 -2.328125 C 5.046875 -2.328125 5.453125 -2.507812 5.765625 -2.875 C 6.078125 -3.25 6.234375 -3.726562 6.234375 -4.3125 C 6.234375 -4.90625 6.078125 -5.382812 5.765625 -5.75 C 5.453125 -6.125 5.046875 -6.3125 4.546875 -6.3125 C 4.023438 -6.3125 3.601562 -6.125 3.28125 -5.75 C 2.96875 -5.382812 2.8125 -4.90625 2.8125 -4.3125 C 2.8125 -3.726562 2.96875 -3.25 3.28125 -2.875 C 3.601562 -2.507812 4.023438 -2.328125 4.546875 -2.328125 Z M 4.546875 -2.328125 "/></g></g></g><g fill="#000000" fill-opacity="1"><g transform="translate(280.0969, 33.054372)"><g><path d="M 4.828125 -8.25 C 6.160156 -8.25 7.234375 -7.867188 8.046875 -7.109375 C 8.867188 -6.347656 9.28125 -5.335938 9.28125 -4.078125 C 9.28125 -2.828125 8.867188 -1.816406 8.046875 -1.046875 C 7.234375 -0.285156 6.160156 0.09375 4.828125 0.09375 C 3.484375 0.09375 2.398438 -0.285156 1.578125 -1.046875 C 0.765625 -1.816406 0.359375 -2.828125 0.359375 -4.078125 C 0.359375 -5.335938 0.765625 -6.347656 1.578125 -7.109375 C 2.398438 -7.867188 3.484375 -8.25 4.828125 -8.25 Z M 4.828125 -6.171875 C 4.285156 -6.171875 3.84375 -5.972656 3.5 -5.578125 C 3.164062 -5.191406 3 -4.6875 3 -4.0625 C 3 -3.425781 3.164062 -2.910156 3.5 -2.515625 C 3.84375 -2.128906 4.285156 -1.9375 4.828125 -1.9375 C 5.359375 -1.9375 5.789062 -2.128906 6.125 -2.515625 C 6.46875 -2.910156 6.640625 -3.425781 6.640625 -4.0625 C 6.640625 -4.6875 6.46875 -5.191406 6.125 -5.578125 C 5.789062 -5.972656 5.359375 -6.171875 4.828125 -6.171875 Z M 4.828125 -6.171875 "/></g></g></g><g fill="#000000" fill-opacity="1"><g transform="translate(289.734015, 33.054372)"><g><path d="M 4.828125 -8.25 C 6.160156 -8.25 7.234375 -7.867188 8.046875 -7.109375 C 8.867188 -6.347656 9.28125 -5.335938 9.28125 -4.078125 C 9.28125 -2.828125 8.867188 -1.816406 8.046875 -1.046875 C 7.234375 -0.285156 6.160156 0.09375 4.828125 0.09375 C 3.484375 0.09375 2.398438 -0.285156 1.578125 -1.046875 C 0.765625 -1.816406 0.359375 -2.828125 0.359375 -4.078125 C 0.359375 -5.335938 0.765625 -6.347656 1.578125 -7.109375 C 2.398438 -7.867188 3.484375 -8.25 4.828125 -8.25 Z M 4.828125 -6.171875 C 4.285156 -6.171875 3.84375 -5.972656 3.5 -5.578125 C 3.164062 -5.191406 3 -4.6875 3 -4.0625 C 3 -3.425781 3.164062 -2.910156 3.5 -2.515625 C 3.84375 -2.128906 4.285156 -1.9375 4.828125 -1.9375 C 5.359375 -1.9375 5.789062 -2.128906 6.125 -2.515625 C 6.46875 -2.910156 6.640625 -3.425781 6.640625 -4.0625 C 6.640625 -4.6875 6.46875 -5.191406 6.125 -5.578125 C 5.789062 -5.972656 5.359375 -6.171875 4.828125 -6.171875 Z M 4.828125 -6.171875 "/></g></g></g><g fill="#000000" fill-opacity="1"><g transform="translate(299.371129, 33.054372)"><g><path d="M 9.265625 -11.234375 L 9.265625 0 L 6.640625 0 L 6.640625 -1.078125 C 6.046875 -0.285156 5.226562 0.109375 4.1875 0.109375 C 3.039062 0.109375 2.117188 -0.273438 1.421875 -1.046875 C 0.722656 -1.828125 0.375 -2.851562 0.375 -4.125 C 0.375 -5.375 0.71875 -6.375 1.40625 -7.125 C 2.09375 -7.882812 3.003906 -8.265625 4.140625 -8.265625 C 5.210938 -8.265625 6.046875 -7.867188 6.640625 -7.078125 L 6.640625 -11.234375 Z M 3.515625 -2.515625 C 3.847656 -2.117188 4.285156 -1.921875 4.828125 -1.921875 C 5.367188 -1.921875 5.804688 -2.117188 6.140625 -2.515625 C 6.472656 -2.910156 6.640625 -3.425781 6.640625 -4.0625 C 6.640625 -4.6875 6.472656 -5.191406 6.140625 -5.578125 C 5.804688 -5.972656 5.367188 -6.171875 4.828125 -6.171875 C 4.285156 -6.171875 3.847656 -5.976562 3.515625 -5.59375 C 3.179688 -5.207031 3.007812 -4.695312 3 -4.0625 C 3.007812 -3.425781 3.179688 -2.910156 3.515625 -2.515625 Z M 3.515625 -2.515625 "/></g></g></g><g fill="#000000" fill-opacity="1"><g transform="translate(251.927481, 54.05437)"><g><path d="M 6.03125 -10.6875 C 6.8125 -10.6875 7.582031 -10.523438 8.34375 -10.203125 C 9.113281 -9.878906 9.765625 -9.445312 10.296875 -8.90625 L 8.734375 -7.0625 C 8.390625 -7.476562 7.976562 -7.8125 7.5 -8.0625 C 7.019531 -8.3125 6.546875 -8.4375 6.078125 -8.4375 C 5.234375 -8.4375 4.53125 -8.140625 3.96875 -7.546875 C 3.40625 -6.953125 3.125 -6.222656 3.125 -5.359375 C 3.125 -4.472656 3.40625 -3.726562 3.96875 -3.125 C 4.53125 -2.53125 5.234375 -2.234375 6.078125 -2.234375 C 6.515625 -2.234375 6.972656 -2.34375 7.453125 -2.5625 C 7.929688 -2.789062 8.359375 -3.097656 8.734375 -3.484375 L 10.3125 -1.8125 C 9.738281 -1.226562 9.054688 -0.757812 8.265625 -0.40625 C 7.484375 -0.0507812 6.707031 0.125 5.9375 0.125 C 4.34375 0.125 3.015625 -0.394531 1.953125 -1.4375 C 0.890625 -2.476562 0.359375 -3.773438 0.359375 -5.328125 C 0.359375 -6.847656 0.898438 -8.117188 1.984375 -9.140625 C 3.066406 -10.171875 4.414062 -10.6875 6.03125 -10.6875 Z M 6.03125 -10.6875 "/></g></g></g><g fill="#000000" fill-opacity="1"><g transform="translate(262.396684, 54.05437)"><g><path d="M 4.703125 -8.28125 C 5.828125 -8.28125 6.695312 -8.019531 7.3125 -7.5 C 7.9375 -6.976562 8.253906 -6.253906 8.265625 -5.328125 L 8.265625 0 L 5.703125 0 L 5.703125 -0.9375 C 5.171875 -0.226562 4.335938 0.125 3.203125 0.125 C 2.347656 0.125 1.664062 -0.109375 1.15625 -0.578125 C 0.65625 -1.054688 0.40625 -1.675781 0.40625 -2.4375 C 0.40625 -3.21875 0.675781 -3.820312 1.21875 -4.25 C 1.757812 -4.675781 2.535156 -4.894531 3.546875 -4.90625 L 5.6875 -4.90625 L 5.6875 -5.03125 C 5.6875 -5.425781 5.550781 -5.738281 5.28125 -5.96875 C 5.019531 -6.195312 4.628906 -6.3125 4.109375 -6.3125 C 3.367188 -6.3125 2.554688 -6.082031 1.671875 -5.625 L 0.921875 -7.359375 C 2.242188 -7.972656 3.503906 -8.28125 4.703125 -8.28125 Z M 4.015625 -1.65625 C 4.429688 -1.65625 4.796875 -1.753906 5.109375 -1.953125 C 5.421875 -2.160156 5.613281 -2.429688 5.6875 -2.765625 L 5.6875 -3.5 L 4.046875 -3.5 C 3.253906 -3.5 2.859375 -3.207031 2.859375 -2.625 C 2.859375 -2.320312 2.957031 -2.082031 3.15625 -1.90625 C 3.363281 -1.738281 3.648438 -1.65625 4.015625 -1.65625 Z M 4.015625 -1.65625 "/></g></g></g><g fill="#000000" fill-opacity="1"><g transform="translate(271.474034, 54.05437)"><g><path d="M 3.65625 -8.15625 L 3.65625 -6.78125 C 4.238281 -7.757812 5.125 -8.257812 6.3125 -8.28125 L 6.3125 -5.921875 C 5.5625 -5.992188 4.945312 -5.867188 4.46875 -5.546875 C 4 -5.234375 3.726562 -4.78125 3.65625 -4.1875 L 3.65625 0 L 1.046875 0 L 1.046875 -8.15625 Z M 3.65625 -8.15625 "/></g></g></g><g fill="#000000" fill-opacity="1"><g transform="translate(277.934074, 54.05437)"><g><path d="M 4.625 -8.25 C 6.03125 -8.25 7.085938 -7.8125 7.796875 -6.9375 C 8.515625 -6.070312 8.828125 -4.882812 8.734375 -3.375 L 3 -3.375 C 3.125 -2.894531 3.351562 -2.519531 3.6875 -2.25 C 4.019531 -1.988281 4.429688 -1.859375 4.921875 -1.859375 C 5.671875 -1.859375 6.320312 -2.132812 6.875 -2.6875 L 8.25 -1.34375 C 7.375 -0.382812 6.1875 0.09375 4.6875 0.09375 C 3.363281 0.09375 2.3125 -0.285156 1.53125 -1.046875 C 0.75 -1.804688 0.359375 -2.8125 0.359375 -4.0625 C 0.359375 -5.320312 0.75 -6.332031 1.53125 -7.09375 C 2.3125 -7.863281 3.34375 -8.25 4.625 -8.25 Z M 2.953125 -4.78125 L 6.21875 -4.78125 C 6.21875 -5.28125 6.070312 -5.679688 5.78125 -5.984375 C 5.5 -6.285156 5.117188 -6.4375 4.640625 -6.4375 C 4.203125 -6.4375 3.832031 -6.285156 3.53125 -5.984375 C 3.226562 -5.691406 3.035156 -5.289062 2.953125 -4.78125 Z M 2.953125 -4.78125 "/></g></g></g><g fill="#000000" fill-opacity="1"><g transform="translate(287.041682, 54.05437)"><g><path d="M 4.625 -8.25 C 6.03125 -8.25 7.085938 -7.8125 7.796875 -6.9375 C 8.515625 -6.070312 8.828125 -4.882812 8.734375 -3.375 L 3 -3.375 C 3.125 -2.894531 3.351562 -2.519531 3.6875 -2.25 C 4.019531 -1.988281 4.429688 -1.859375 4.921875 -1.859375 C 5.671875 -1.859375 6.320312 -2.132812 6.875 -2.6875 L 8.25 -1.34375 C 7.375 -0.382812 6.1875 0.09375 4.6875 0.09375 C 3.363281 0.09375 2.3125 -0.285156 1.53125 -1.046875 C 0.75 -1.804688 0.359375 -2.8125 0.359375 -4.0625 C 0.359375 -5.320312 0.75 -6.332031 1.53125 -7.09375 C 2.3125 -7.863281 3.34375 -8.25 4.625 -8.25 Z M 2.953125 -4.78125 L 6.21875 -4.78125 C 6.21875 -5.28125 6.070312 -5.679688 5.78125 -5.984375 C 5.5 -6.285156 5.117188 -6.4375 4.640625 -6.4375 C 4.203125 -6.4375 3.832031 -6.285156 3.53125 -5.984375 C 3.226562 -5.691406 3.035156 -5.289062 2.953125 -4.78125 Z M 2.953125 -4.78125 "/></g></g></g><g fill="#000000" fill-opacity="1"><g transform="translate(296.14929, 54.05437)"><g><path d="M 3.65625 -8.15625 L 3.65625 -6.78125 C 4.238281 -7.757812 5.125 -8.257812 6.3125 -8.28125 L 6.3125 -5.921875 C 5.5625 -5.992188 4.945312 -5.867188 4.46875 -5.546875 C 4 -5.234375 3.726562 -4.78125 3.65625 -4.1875 L 3.65625 0 L 1.046875 0 L 1.046875 -8.15625 Z M 3.65625 -8.15625 "/></g></g></g><g fill="#000000" fill-opacity="1"><g transform="translate(302.60933, 54.05437)"><g><path d="M 2.0625 -7.1875 L 0.046875 -7.203125 C 0.0546875 -8.285156 0.363281 -9.128906 0.96875 -9.734375 C 1.582031 -10.335938 2.425781 -10.640625 3.5 -10.640625 C 4.519531 -10.640625 5.316406 -10.410156 5.890625 -9.953125 C 6.460938 -9.492188 6.75 -8.847656 6.75 -8.015625 C 6.75 -7.585938 6.664062 -7.195312 6.5 -6.84375 C 6.34375 -6.5 6.15625 -6.207031 5.9375 -5.96875 C 5.71875 -5.738281 5.492188 -5.515625 5.265625 -5.296875 C 5.035156 -5.078125 4.835938 -4.828125 4.671875 -4.546875 C 4.515625 -4.265625 4.4375 -3.957031 4.4375 -3.625 L 2.484375 -3.625 C 2.484375 -4.050781 2.546875 -4.429688 2.671875 -4.765625 C 2.796875 -5.109375 2.945312 -5.382812 3.125 -5.59375 C 3.3125 -5.8125 3.5 -6.015625 3.6875 -6.203125 C 3.875 -6.398438 4.03125 -6.609375 4.15625 -6.828125 C 4.28125 -7.054688 4.34375 -7.304688 4.34375 -7.578125 C 4.34375 -8.234375 3.976562 -8.5625 3.25 -8.5625 C 2.46875 -8.5625 2.070312 -8.101562 2.0625 -7.1875 Z M 2.515625 -2.046875 C 2.742188 -2.285156 3.046875 -2.40625 3.421875 -2.40625 C 3.796875 -2.40625 4.097656 -2.285156 4.328125 -2.046875 C 4.566406 -1.816406 4.6875 -1.515625 4.6875 -1.140625 C 4.6875 -0.773438 4.566406 -0.472656 4.328125 -0.234375 C 4.097656 0.00390625 3.796875 0.125 3.421875 0.125 C 3.046875 0.125 2.742188 0.00390625 2.515625 -0.234375 C 2.285156 -0.472656 2.171875 -0.773438 2.171875 -1.140625 C 2.171875 -1.515625 2.285156 -1.816406 2.515625 -2.046875 Z M 2.515625 -2.046875 "/></g></g></g><g fill="#000000" fill-opacity="1"><g transform="translate(309.747788, 75.054368)"><g/></g></g></svg>