<svg xmlns="http://www.w3.org/2000/svg" xmlns:xlink="http://www.w3.org/1999/xlink" width="401" zoomAndPan="magnify" viewBox="0 0 300.75 203.999996" height="272" preserveAspectRatio="xMidYMid meet" version="1.0"><defs><g/><clipPath id="3d93a45560"><path d="M 0 0.0859375 L 300.5 0.0859375 L 300.5 203.914062 L 0 203.914062 Z M 0 0.0859375 " clip-rule="nonzero"/></clipPath></defs><g clip-path="url(#3d93a45560)"><path fill="#ffffff" d="M 0 0.0859375 L 300.75 0.0859375 L 300.75 211.585938 L 0 211.585938 Z M 0 0.0859375 " fill-opacity="1" fill-rule="nonzero"/><path fill="#ffffff" d="M 0 0.0859375 L 300.75 0.0859375 L 300.75 204.085938 L 0 204.085938 Z M 0 0.0859375 " fill-opacity="1" fill-rule="nonzero"/><path fill="#004aad" d="M 0 0.0859375 L 300.75 0.0859375 L 300.75 204.085938 L 0 204.085938 Z M 0 0.0859375 " fill-opacity="1" fill-rule="nonzero"/></g><path stroke-linecap="butt" transform="matrix(0.289626, 0, 0, 0.289626, 41.000442, 77.406969)" fill="none" stroke-linejoin="miter" d="M 179.028147 143.919896 C 232.505069 143.919896 258.940067 122.81236 262.783931 85.290848 L 232.127426 85.290848 C 228.674692 109.244192 209.671165 118.415518 179.028147 118.415518 C 142.814898 118.415518 124.998249 105.791458 124.998249 74.716848 C 124.998249 43.885009 142.626077 31.436283 179.028147 31.436283 C 209.859987 31.436283 228.674692 40.418788 232.127426 64.196798 L 262.59511 64.196798 C 258.940067 26.810159 232.505069 5.945392 179.028147 5.945392 C 119.980994 5.945392 94.719387 31.018179 94.719387 74.716848 C 94.719387 118.60434 119.980994 143.919896 179.028147 143.919896 Z M 279.642986 142.004708 L 309.908361 142.004708 L 309.908361 104.995711 L 372.556608 104.995711 L 395.201691 142.004708 L 430.808014 142.004708 L 405.735228 101.394617 C 424.684805 94.839816 436.378246 78.924868 436.378246 56.333735 C 436.378246 26.432516 415.51348 7.860581 385.005334 7.860581 L 279.642986 7.860581 Z M 309.908361 79.545282 L 309.908361 33.364959 L 375.456366 33.364959 C 387.338627 33.364959 406.112871 33.364959 406.112871 56.333735 C 406.112871 79.545282 387.338627 79.545282 375.456366 79.545282 Z M 453.250788 142.004708 L 483.52965 142.004708 L 483.52965 43.696188 L 544.626864 142.004708 L 567.460768 142.004708 L 628.382648 43.696188 L 628.382648 142.004708 L 658.688485 142.004708 L 658.688485 7.860581 L 616.122743 7.860581 L 555.956149 106.910899 L 495.776067 7.860581 L 453.250788 7.860581 Z M 453.250788 142.004708 " stroke="#c1ff72" stroke-width="5.509851" stroke-opacity="1" stroke-miterlimit="4"/><g fill="#c1ff72" fill-opacity="1"><g transform="translate(66.265743, 69.937417)"><g><path d="M 26.585938 0.554688 C 42.070312 0.554688 49.730469 -5.550781 50.839844 -16.429688 L 41.960938 -16.429688 C 40.960938 -9.492188 35.46875 -6.828125 26.585938 -6.828125 C 16.097656 -6.828125 10.933594 -10.488281 10.933594 -19.480469 C 10.933594 -28.417969 16.039062 -32.027344 26.585938 -32.027344 C 35.523438 -32.027344 40.960938 -29.417969 41.960938 -22.535156 L 50.785156 -22.535156 C 49.730469 -33.359375 42.070312 -39.40625 26.585938 -39.40625 C 9.492188 -39.40625 2.164062 -32.136719 2.164062 -19.480469 C 2.164062 -6.769531 9.492188 0.554688 26.585938 0.554688 Z M 26.585938 0.554688 "/></g></g></g><g fill="#c1ff72" fill-opacity="1"><g transform="translate(119.267787, 69.937417)"><g><path d="M 2.71875 0 L 11.488281 0 L 11.488281 -10.710938 L 29.640625 -10.710938 L 36.1875 0 L 46.511719 0 L 39.242188 -11.765625 C 44.734375 -13.652344 48.121094 -18.261719 48.121094 -24.808594 C 48.121094 -33.46875 42.070312 -38.851562 33.246094 -38.851562 L 2.71875 -38.851562 Z M 11.488281 -18.09375 L 11.488281 -31.46875 L 30.472656 -31.46875 C 33.914062 -31.46875 39.351562 -31.46875 39.351562 -24.808594 C 39.351562 -18.09375 33.914062 -18.09375 30.472656 -18.09375 Z M 11.488281 -18.09375 "/></g></g></g><g fill="#c1ff72" fill-opacity="1"><g transform="translate(169.550352, 69.937417)"><g><path d="M 2.71875 0 L 11.488281 0 L 11.488281 -28.472656 L 29.195312 0 L 35.800781 0 L 53.449219 -28.472656 L 53.449219 0 L 62.21875 0 L 62.21875 -38.851562 L 49.898438 -38.851562 L 32.46875 -10.15625 L 15.042969 -38.851562 L 2.71875 -38.851562 Z M 2.71875 0 "/></g></g></g><path stroke-linecap="butt" transform="matrix(0.289626, 0, 0, 0.289626, 41.000442, 125.760486)" fill="none" stroke-linejoin="miter" d="M 179.028147 143.913149 C 232.505069 143.913149 258.940067 122.8191 262.783931 85.297588 L 232.127426 85.297588 C 228.674692 109.250932 209.671165 118.422258 179.028147 118.422258 C 142.814898 118.422258 124.998249 105.784711 124.998249 74.723588 C 124.998249 43.891749 142.626077 31.443023 179.028147 31.443023 C 209.859987 31.443023 228.674692 40.425528 232.127426 64.190051 L 262.59511 64.190051 C 258.940067 26.803411 232.505069 5.938645 179.028147 5.938645 C 119.980994 5.938645 94.719387 31.024919 94.719387 74.723588 C 94.719387 118.61108 119.980994 143.913149 179.028147 143.913149 Z M 279.642986 141.99796 L 309.908361 141.99796 L 309.908361 104.988963 L 372.556608 104.988963 L 395.201691 141.99796 L 430.808014 141.99796 L 405.735228 101.387869 C 424.684805 94.833069 436.378246 78.931609 436.378246 56.326988 C 436.378246 26.439256 415.51348 7.867321 385.005334 7.867321 L 279.642986 7.867321 Z M 309.908361 79.538534 L 309.908361 33.358212 L 375.456366 33.358212 C 387.338627 33.358212 406.112871 33.358212 406.112871 56.326988 C 406.112871 79.538534 387.338627 79.538534 375.456366 79.538534 Z M 453.250788 141.99796 L 483.52965 141.99796 L 483.52965 43.702928 L 544.626864 141.99796 L 567.460768 141.99796 L 628.382648 43.702928 L 628.382648 141.99796 L 658.688485 141.99796 L 658.688485 7.867321 L 616.122743 7.867321 L 555.956149 106.904152 L 495.776067 7.867321 L 453.250788 7.867321 Z M 453.250788 141.99796 " stroke="#c1ff72" stroke-width="5.509851" stroke-opacity="1" stroke-miterlimit="4"/></svg>