<svg xmlns="http://www.w3.org/2000/svg" xmlns:xlink="http://www.w3.org/1999/xlink" width="405" zoomAndPan="magnify" viewBox="0 0 303.75 170.249993" height="227" preserveAspectRatio="xMidYMid meet" version="1.0"><defs><clipPath id="7180b9b1eb"><path d="M 0.542969 0 L 302.960938 0 L 302.960938 169.503906 L 0.542969 169.503906 Z M 0.542969 0 " clip-rule="nonzero"/></clipPath><clipPath id="3bbb9c3130"><path d="M 119.175781 50.894531 L 184.941406 50.894531 L 184.941406 118.898438 L 119.175781 118.898438 Z M 119.175781 50.894531 " clip-rule="nonzero"/></clipPath></defs><g clip-path="url(#7180b9b1eb)"><path fill="#ffffff" d="M 0.542969 0 L 303.207031 0 L 303.207031 177.117188 L 0.542969 177.117188 Z M 0.542969 0 " fill-opacity="1" fill-rule="nonzero"/><path fill="#ffffff" d="M 0.542969 0 L 303.207031 0 L 303.207031 169.644531 L 0.542969 169.644531 Z M 0.542969 0 " fill-opacity="1" fill-rule="nonzero"/><path fill="#004aad" d="M 0.542969 0 L 303.207031 0 L 303.207031 169.644531 L 0.542969 169.644531 Z M 0.542969 0 " fill-opacity="1" fill-rule="nonzero"/></g><g clip-path="url(#3bbb9c3130)"><path fill="#ffffff" d="M 144.476562 50.894531 C 134.730469 50.894531 126.785156 58.8125 126.785156 68.523438 C 126.785156 74.585938 129.894531 79.957031 134.59375 83.125 C 125.558594 86.972656 119.199219 95.914062 119.199219 106.304688 L 124.257812 106.304688 C 124.257812 100.667969 126.554688 95.589844 130.289062 91.941406 L 136.351562 99.613281 L 145.878906 93.289062 L 143.074219 89.097656 L 137.4375 92.847656 L 134.316406 88.890625 C 137.296875 87.160156 140.765625 86.15625 144.476562 86.15625 C 154.222656 86.15625 162.167969 78.234375 162.167969 68.523438 C 162.167969 58.8125 154.222656 50.894531 144.476562 50.894531 Z M 144.476562 55.929688 C 151.484375 55.929688 157.113281 61.539062 157.113281 68.523438 C 157.113281 75.511719 151.484375 81.117188 144.476562 81.117188 C 137.464844 81.117188 131.839844 75.511719 131.839844 68.523438 C 131.839844 61.539062 137.464844 55.929688 144.476562 55.929688 Z M 164.695312 83.636719 L 164.695312 88.949219 C 163.097656 89.273438 161.617188 89.921875 160.300781 90.800781 L 156.492188 87.019531 L 152.925781 90.582031 L 156.71875 94.351562 C 155.832031 95.679688 155.167969 97.144531 154.84375 98.75 L 149.53125 98.75 L 149.53125 103.785156 L 154.84375 103.785156 C 155.167969 105.390625 155.832031 106.855469 156.71875 108.183594 L 152.925781 111.953125 L 156.492188 115.515625 L 160.300781 111.738281 C 161.617188 112.613281 163.097656 113.261719 164.695312 113.585938 L 164.695312 118.898438 L 169.75 118.898438 L 169.75 113.585938 C 171.351562 113.261719 172.832031 112.613281 174.144531 111.738281 L 177.957031 115.515625 L 181.519531 111.953125 L 177.730469 108.183594 C 178.617188 106.855469 179.277344 105.390625 179.605469 103.785156 L 184.917969 103.785156 L 184.917969 98.75 L 179.605469 98.75 C 179.277344 97.144531 178.617188 95.679688 177.730469 94.351562 L 181.519531 90.582031 L 177.957031 87.019531 L 174.144531 90.800781 C 172.832031 89.921875 171.351562 89.273438 169.75 88.949219 L 169.75 83.636719 Z M 167.222656 93.710938 C 171.4375 93.710938 174.804688 97.066406 174.804688 101.269531 C 174.804688 105.46875 171.4375 108.824219 167.222656 108.824219 C 163.007812 108.824219 159.640625 105.46875 159.640625 101.269531 C 159.640625 97.066406 163.007812 93.710938 167.222656 93.710938 Z M 167.222656 98.75 C 165.832031 98.75 164.695312 99.878906 164.695312 101.269531 C 164.695312 102.65625 165.832031 103.785156 167.222656 103.785156 C 168.617188 103.785156 169.75 102.65625 169.75 101.269531 C 169.75 99.878906 168.617188 98.75 167.222656 98.75 Z M 167.222656 98.75 " fill-opacity="1" fill-rule="nonzero"/></g></svg>