<svg xmlns="http://www.w3.org/2000/svg" xmlns:xlink="http://www.w3.org/1999/xlink" width="150" zoomAndPan="magnify" viewBox="0 0 112.5 30.000001" height="40" preserveAspectRatio="xMidYMid meet" version="1.0"><defs><g/><clipPath id="7579b6a6d3"><path d="M 1.574219 0 L 110.445312 0 L 110.445312 29.03125 L 1.574219 29.03125 Z M 1.574219 0 " clip-rule="nonzero"/></clipPath><clipPath id="862e5855e2"><path d="M 91.460938 9.410156 L 94.214844 9.410156 L 94.214844 12.167969 L 91.460938 12.167969 Z M 91.460938 9.410156 " clip-rule="nonzero"/></clipPath><clipPath id="3d7012e7d9"><path d="M 92.835938 9.410156 C 92.078125 9.410156 91.460938 10.027344 91.460938 10.789062 C 91.460938 11.550781 92.078125 12.167969 92.835938 12.167969 C 93.597656 12.167969 94.214844 11.550781 94.214844 10.789062 C 94.214844 10.027344 93.597656 9.410156 92.835938 9.410156 " clip-rule="nonzero"/></clipPath></defs><g clip-path="url(#7579b6a6d3)"><path fill="#ffffff" d="M 1.574219 0 L 110.925781 0 L 110.925781 36.453125 L 1.574219 36.453125 Z M 1.574219 0 " fill-opacity="1" fill-rule="nonzero"/><path fill="#ffffff" d="M 1.574219 0 L 110.925781 0 L 110.925781 29.160156 L 1.574219 29.160156 Z M 1.574219 0 " fill-opacity="1" fill-rule="nonzero"/><path fill="#ffffff" d="M 1.574219 0 L 110.925781 0 L 110.925781 29.160156 L 1.574219 29.160156 Z M 1.574219 0 " fill-opacity="1" fill-rule="nonzero"/></g><g fill="#004aad" fill-opacity="1"><g transform="translate(3.468063, 19.060949)"><g><path d="M 4.046875 -5.394531 C 2.640625 -5.828125 2.304688 -6.097656 2.304688 -6.519531 C 2.304688 -7.109375 2.957031 -7.367188 3.675781 -7.351562 C 4.328125 -7.339844 5.058594 -7.03125 5.175781 -6.46875 L 6.6875 -7.03125 C 6.429688 -8.3125 5.035156 -9.042969 3.664062 -9.042969 C 1.359375 -9.042969 0.5 -7.632812 0.5 -6.457031 C 0.5 -5.136719 1.34375 -4.355469 3.40625 -3.742188 C 4.867188 -3.304688 5.304688 -3.074219 5.304688 -2.535156 C 5.304688 -1.984375 4.738281 -1.574219 3.703125 -1.574219 C 2.765625 -1.574219 1.984375 -2 1.820312 -2.675781 L 0.257812 -2.074219 C 0.511719 -0.78125 2.101562 0.152344 3.855469 0.152344 C 6.085938 0.152344 7.121094 -1.113281 7.121094 -2.601562 C 7.121094 -4.265625 5.816406 -4.855469 4.046875 -5.394531 Z M 4.046875 -5.394531 "/></g></g></g><g fill="#004aad" fill-opacity="1"><g transform="translate(10.91, 19.060949)"><g><path d="M 3.113281 -6.265625 C 1.574219 -6.265625 0.667969 -5.25 0.550781 -4.445312 L 1.972656 -4.136719 C 2.074219 -4.613281 2.472656 -4.855469 2.996094 -4.867188 C 3.597656 -4.894531 3.996094 -4.507812 3.90625 -4.136719 C 3.828125 -3.792969 3.394531 -3.792969 2.355469 -3.5625 C 1.050781 -3.277344 0.128906 -2.804688 0.128906 -1.460938 C 0.179688 -0.523438 0.84375 0.101562 2.050781 0.101562 C 3.101562 0.101562 3.714844 -0.347656 3.945312 -0.578125 L 3.945312 0 L 5.636719 0 L 5.636719 -3.855469 C 5.636719 -5.648438 4.457031 -6.265625 3.113281 -6.265625 Z M 3.945312 -2.523438 C 3.894531 -1.84375 3.421875 -1.320312 2.753906 -1.21875 C 2.371094 -1.152344 1.984375 -1.230469 1.882812 -1.511719 C 1.769531 -1.820312 1.945312 -2.230469 2.574219 -2.394531 C 3.382812 -2.601562 3.945312 -2.714844 3.945312 -2.714844 Z M 3.945312 -2.523438 "/></g></g></g><g fill="#004aad" fill-opacity="1"><g transform="translate(17.186335, 19.060949)"><g><path d="M 0.449219 -9.605469 L 0.449219 0 L 2.152344 0 L 2.152344 -9.605469 Z M 0.449219 -9.605469 "/></g></g></g><g fill="#004aad" fill-opacity="1"><g transform="translate(19.978662, 19.060949)"><g><path d="M 5.996094 -2.472656 C 6.035156 -2.664062 6.046875 -2.871094 6.046875 -3.085938 C 6.046875 -4.867188 4.957031 -6.265625 3.191406 -6.265625 C 1.410156 -6.265625 0.128906 -4.867188 0.128906 -3.085938 C 0.128906 -1.304688 1.472656 0.101562 3.253906 0.101562 C 4.378906 0.101562 5.289062 -0.460938 5.800781 -1.320312 L 4.394531 -2.011719 C 4.148438 -1.664062 3.753906 -1.460938 3.253906 -1.460938 C 2.550781 -1.460938 2.074219 -1.871094 1.882812 -2.472656 Z M 3.191406 -4.714844 C 3.90625 -4.714844 4.292969 -4.277344 4.433594 -3.664062 L 1.871094 -3.664062 C 2.023438 -4.277344 2.472656 -4.714844 3.191406 -4.714844 Z M 3.191406 -4.714844 "/></g></g></g><g fill="#004aad" fill-opacity="1"><g transform="translate(26.408701, 19.060949)"><g><path d="M 3.101562 -3.777344 C 2.125 -4.074219 1.945312 -4.226562 1.933594 -4.457031 C 1.921875 -4.625 2.089844 -4.945312 2.742188 -4.894531 C 3.214844 -4.855469 3.421875 -4.558594 3.484375 -4.355469 L 4.789062 -4.726562 C 4.699219 -5.289062 3.996094 -6.25 2.511719 -6.25 C 0.910156 -6.25 0.21875 -5.355469 0.179688 -4.496094 C 0.140625 -3.484375 0.730469 -3.023438 2.074219 -2.550781 C 2.933594 -2.253906 3.226562 -2.214844 3.242188 -1.871094 C 3.253906 -1.539062 2.742188 -1.421875 2.28125 -1.449219 C 1.84375 -1.472656 1.304688 -1.730469 1.179688 -2.050781 L -0.0625 -1.382812 C 0.140625 -0.628906 1.28125 0.0898438 2.574219 0.0898438 C 3.996094 0.0898438 4.996094 -0.667969 5.035156 -1.78125 C 5.074219 -2.714844 4.546875 -3.332031 3.101562 -3.777344 Z M 3.101562 -3.777344 "/></g></g></g><g fill="#004aad" fill-opacity="1"><g transform="translate(31.711562, 19.060949)"><g><path d="M 3.394531 -7.378906 C 3.753906 -7.367188 3.984375 -7.171875 4.085938 -7.082031 L 4.996094 -8.273438 C 4.558594 -8.699219 3.894531 -9.042969 3.164062 -9.042969 C 1.742188 -9.042969 0.960938 -8.183594 0.960938 -6.175781 L 0.128906 -6.175781 L 0.128906 -4.546875 L 0.960938 -4.546875 L 0.960938 0.0117188 L 2.664062 0.0117188 L 2.664062 -4.546875 L 4.023438 -4.546875 L 4.023438 -6.175781 L 2.664062 -6.175781 L 2.664062 -6.339844 C 2.664062 -7.007812 2.816406 -7.402344 3.394531 -7.378906 Z M 3.394531 -7.378906 "/></g></g></g><g fill="#004aad" fill-opacity="1"><g transform="translate(36.450833, 19.060949)"><g><path d="M 3.316406 -6.265625 C 1.539062 -6.265625 0.191406 -4.867188 0.191406 -3.085938 C 0.191406 -1.304688 1.539062 0.101562 3.316406 0.101562 C 5.097656 0.101562 6.441406 -1.304688 6.441406 -3.085938 C 6.441406 -4.867188 5.097656 -6.265625 3.316406 -6.265625 Z M 3.316406 -1.460938 C 2.394531 -1.460938 1.855469 -2.164062 1.855469 -3.085938 C 1.855469 -4.007812 2.394531 -4.714844 3.316406 -4.714844 C 4.238281 -4.714844 4.777344 -4.007812 4.777344 -3.085938 C 4.777344 -2.164062 4.238281 -1.460938 3.316406 -1.460938 Z M 3.316406 -1.460938 "/></g></g></g><g fill="#004aad" fill-opacity="1"><g transform="translate(43.277946, 19.060949)"><g><path d="M 3.523438 -6.265625 C 2.945312 -6.265625 2.460938 -6.019531 2.089844 -5.636719 L 2.089844 -6.175781 L 0.382812 -6.175781 L 0.382812 0 L 2.089844 0 L 2.089844 -3.355469 C 2.089844 -4.265625 2.511719 -4.675781 3.113281 -4.675781 C 3.34375 -4.675781 3.535156 -4.625 3.6875 -4.523438 L 4.007812 -6.226562 C 3.855469 -6.25 3.6875 -6.265625 3.523438 -6.265625 Z M 3.523438 -6.265625 "/></g></g></g><g fill="#004aad" fill-opacity="1"><g transform="translate(47.415203, 19.060949)"><g><path d="M 3.253906 -1.460938 C 2.332031 -1.460938 1.804688 -2.164062 1.804688 -3.085938 C 1.804688 -4.007812 2.332031 -4.714844 3.253906 -4.714844 C 3.765625 -4.714844 4.148438 -4.496094 4.394531 -4.164062 L 5.800781 -4.84375 C 5.289062 -5.699219 4.378906 -6.265625 3.253906 -6.265625 C 1.472656 -6.265625 0.128906 -4.867188 0.128906 -3.085938 C 0.128906 -1.304688 1.472656 0.101562 3.253906 0.101562 C 4.378906 0.101562 5.289062 -0.460938 5.800781 -1.320312 L 4.394531 -2.011719 C 4.148438 -1.664062 3.765625 -1.460938 3.253906 -1.460938 Z M 3.253906 -1.460938 "/></g></g></g><g fill="#004aad" fill-opacity="1"><g transform="translate(53.473783, 19.060949)"><g><path d="M 5.996094 -2.472656 C 6.035156 -2.664062 6.046875 -2.871094 6.046875 -3.085938 C 6.046875 -4.867188 4.957031 -6.265625 3.191406 -6.265625 C 1.410156 -6.265625 0.128906 -4.867188 0.128906 -3.085938 C 0.128906 -1.304688 1.472656 0.101562 3.253906 0.101562 C 4.378906 0.101562 5.289062 -0.460938 5.800781 -1.320312 L 4.394531 -2.011719 C 4.148438 -1.664062 3.753906 -1.460938 3.253906 -1.460938 C 2.550781 -1.460938 2.074219 -1.871094 1.882812 -2.472656 Z M 3.191406 -4.714844 C 3.90625 -4.714844 4.292969 -4.277344 4.433594 -3.664062 L 1.871094 -3.664062 C 2.023438 -4.277344 2.472656 -4.714844 3.191406 -4.714844 Z M 3.191406 -4.714844 "/></g></g></g><g fill="#000000" fill-opacity="1"><g transform="translate(61.516246, 19.256393)"><g><path d="M 4.398438 -1.996094 C 4.214844 -1.828125 3.863281 -1.714844 3.609375 -1.714844 C 3.019531 -1.714844 2.867188 -2.078125 2.867188 -2.683594 L 2.867188 -4.972656 L 4.441406 -4.972656 L 4.441406 -6.773438 L 2.867188 -6.773438 L 2.867188 -8.710938 L 0.996094 -8.289062 L 0.996094 -6.773438 L 0.0703125 -6.773438 L 0.0703125 -4.972656 L 0.996094 -4.972656 L 0.996094 -2.078125 C 0.996094 -0.675781 1.796875 0.0703125 3.230469 0.0703125 C 4.03125 0.0703125 4.664062 -0.226562 5.015625 -0.5625 Z M 4.398438 -1.996094 "/></g></g></g><g fill="#000000" fill-opacity="1"><g transform="translate(66.813431, 19.256393)"><g><path d="M 4.511719 -6.773438 L 4.511719 -2.980469 C 4.511719 -2.136719 4.089844 -1.644531 3.429688 -1.644531 C 2.753906 -1.644531 2.304688 -2.039062 2.304688 -3.019531 L 2.304688 -6.773438 L 0.421875 -6.773438 L 0.421875 -3.089844 C 0.421875 -1.011719 1.378906 0.0976562 2.9375 0.0976562 C 3.570312 0.0976562 4.101562 -0.167969 4.511719 -0.589844 L 4.511719 0 L 6.378906 0 L 6.378906 -6.773438 Z M 4.511719 -6.773438 "/></g></g></g><g fill="#000000" fill-opacity="1"><g transform="translate(73.895079, 19.256393)"><g><path d="M 4.398438 -1.996094 C 4.214844 -1.828125 3.863281 -1.714844 3.609375 -1.714844 C 3.019531 -1.714844 2.867188 -2.078125 2.867188 -2.683594 L 2.867188 -4.972656 L 4.441406 -4.972656 L 4.441406 -6.773438 L 2.867188 -6.773438 L 2.867188 -8.710938 L 0.996094 -8.289062 L 0.996094 -6.773438 L 0.0703125 -6.773438 L 0.0703125 -4.972656 L 0.996094 -4.972656 L 0.996094 -2.078125 C 0.996094 -0.675781 1.796875 0.0703125 3.230469 0.0703125 C 4.03125 0.0703125 4.664062 -0.226562 5.015625 -0.5625 Z M 4.398438 -1.996094 "/></g></g></g><g fill="#000000" fill-opacity="1"><g transform="translate(79.192264, 19.256393)"><g><path d="M 3.640625 -6.871094 C 1.6875 -6.871094 0.210938 -5.339844 0.210938 -3.386719 C 0.210938 -1.433594 1.6875 0.113281 3.640625 0.113281 C 5.59375 0.113281 7.066406 -1.433594 7.066406 -3.386719 C 7.066406 -5.339844 5.59375 -6.871094 3.640625 -6.871094 Z M 3.640625 -1.601562 C 2.628906 -1.601562 2.039062 -2.375 2.039062 -3.386719 C 2.039062 -4.398438 2.628906 -5.171875 3.640625 -5.171875 C 4.652344 -5.171875 5.242188 -4.398438 5.242188 -3.386719 C 5.242188 -2.375 4.652344 -1.601562 3.640625 -1.601562 Z M 3.640625 -1.601562 "/></g></g></g><g fill="#000000" fill-opacity="1"><g transform="translate(86.681387, 19.256393)"><g><path d="M 3.863281 -6.871094 C 3.230469 -6.871094 2.699219 -6.605469 2.289062 -6.183594 L 2.289062 -6.773438 L 0.421875 -6.773438 L 0.421875 0 L 2.289062 0 L 2.289062 -3.679688 C 2.289062 -4.679688 2.753906 -5.128906 3.414062 -5.128906 C 3.667969 -5.128906 3.878906 -5.074219 4.046875 -4.960938 L 4.398438 -6.828125 C 4.230469 -6.855469 4.046875 -6.871094 3.863281 -6.871094 Z M 3.863281 -6.871094 "/></g></g></g><g fill="#000000" fill-opacity="1"><g transform="translate(91.219823, 19.256393)"><g><path d="M 1.476562 -7.714844 C 2.050781 -7.714844 2.515625 -8.179688 2.515625 -8.753906 C 2.515625 -9.34375 2.050781 -9.808594 1.476562 -9.808594 C 0.886719 -9.808594 0.421875 -9.34375 0.421875 -8.753906 C 0.421875 -8.179688 0.886719 -7.714844 1.476562 -7.714844 Z M 0.535156 0 L 2.402344 0 L 2.402344 -6.773438 L 0.535156 -6.773438 Z M 0.535156 0 "/></g></g></g><g fill="#000000" fill-opacity="1"><g transform="translate(94.437474, 19.256393)"><g><path d="M 3.414062 -6.871094 C 1.726562 -6.871094 0.730469 -5.761719 0.605469 -4.875 L 2.164062 -4.539062 C 2.277344 -5.058594 2.710938 -5.324219 3.289062 -5.339844 C 3.949219 -5.367188 4.382812 -4.945312 4.285156 -4.539062 C 4.203125 -4.160156 3.722656 -4.160156 2.585938 -3.90625 C 1.152344 -3.597656 0.140625 -3.078125 0.140625 -1.601562 C 0.195312 -0.574219 0.925781 0.113281 2.25 0.113281 C 3.402344 0.113281 4.074219 -0.378906 4.328125 -0.632812 L 4.328125 0 L 6.183594 0 L 6.183594 -4.230469 C 6.183594 -6.195312 4.890625 -6.871094 3.414062 -6.871094 Z M 4.328125 -2.769531 C 4.273438 -2.023438 3.75 -1.449219 3.019531 -1.335938 C 2.597656 -1.265625 2.179688 -1.347656 2.066406 -1.65625 C 1.9375 -1.996094 2.136719 -2.445312 2.824219 -2.628906 C 3.710938 -2.851562 4.328125 -2.980469 4.328125 -2.980469 Z M 4.328125 -2.769531 "/></g></g></g><g fill="#000000" fill-opacity="1"><g transform="translate(101.322411, 19.256393)"><g><path d="M 0.492188 -10.539062 L 0.492188 0 L 2.359375 0 L 2.359375 -10.539062 Z M 0.492188 -10.539062 "/></g></g></g><g fill="#000000" fill-opacity="1"><g transform="translate(104.385504, 19.256393)"><g><path d="M 3.402344 -4.144531 C 2.332031 -4.46875 2.136719 -4.636719 2.121094 -4.890625 C 2.109375 -5.074219 2.289062 -5.425781 3.007812 -5.367188 C 3.527344 -5.324219 3.75 -5.003906 3.820312 -4.777344 L 5.253906 -5.183594 C 5.15625 -5.804688 4.382812 -6.855469 2.753906 -6.855469 C 0.996094 -6.855469 0.238281 -5.875 0.195312 -4.933594 C 0.15625 -3.820312 0.800781 -3.316406 2.277344 -2.796875 C 3.21875 -2.472656 3.542969 -2.429688 3.554688 -2.050781 C 3.570312 -1.6875 3.007812 -1.558594 2.5 -1.585938 C 2.023438 -1.617188 1.433594 -1.898438 1.292969 -2.25 L -0.0703125 -1.519531 C 0.15625 -0.6875 1.40625 0.0976562 2.824219 0.0976562 C 4.382812 0.0976562 5.480469 -0.730469 5.523438 -1.953125 C 5.566406 -2.980469 4.988281 -3.652344 3.402344 -4.144531 Z M 3.402344 -4.144531 "/></g></g></g><g clip-path="url(#862e5855e2)"><g clip-path="url(#3d7012e7d9)"><path fill="#1cff07" d="M 91.460938 9.410156 L 94.214844 9.410156 L 94.214844 12.167969 L 91.460938 12.167969 Z M 91.460938 9.410156 " fill-opacity="1" fill-rule="nonzero"/></g></g></svg>