<svg xmlns="http://www.w3.org/2000/svg" xmlns:xlink="http://www.w3.org/1999/xlink" width="405" zoomAndPan="magnify" viewBox="0 0 303.75 170.249993" height="227" preserveAspectRatio="xMidYMid meet" version="1.0"><defs><clipPath id="2f1f6b52de"><path d="M 0.542969 0 L 302.960938 0 L 302.960938 169.503906 L 0.542969 169.503906 Z M 0.542969 0 " clip-rule="nonzero"/></clipPath><clipPath id="82fdd725f2"><path d="M 116.714844 75 L 186.964844 75 L 186.964844 118.898438 L 116.714844 118.898438 Z M 116.714844 75 " clip-rule="nonzero"/></clipPath><clipPath id="1a3ffa9426"><path d="M 116.714844 91 L 186.964844 91 L 186.964844 118.898438 L 116.714844 118.898438 Z M 116.714844 91 " clip-rule="nonzero"/></clipPath><clipPath id="60c6e29078"><path d="M 170 64 L 186.964844 64 L 186.964844 78 L 170 78 Z M 170 64 " clip-rule="nonzero"/></clipPath><clipPath id="15a99f6c7b"><path d="M 116.714844 64 L 134 64 L 134 78 L 116.714844 78 Z M 116.714844 64 " clip-rule="nonzero"/></clipPath><clipPath id="1144e9d45a"><path d="M 156 75 L 186.964844 75 L 186.964844 99 L 156 99 Z M 156 75 " clip-rule="nonzero"/></clipPath><clipPath id="c1caae320b"><path d="M 116.714844 75 L 148 75 L 148 99 L 116.714844 99 Z M 116.714844 75 " clip-rule="nonzero"/></clipPath><clipPath id="0a32eca8a7"><path d="M 130 50.894531 L 172 50.894531 L 172 89 L 130 89 Z M 130 50.894531 " clip-rule="nonzero"/></clipPath></defs><g clip-path="url(#2f1f6b52de)"><path fill="#ffffff" d="M 0.542969 0 L 303.207031 0 L 303.207031 177.117188 L 0.542969 177.117188 Z M 0.542969 0 " fill-opacity="1" fill-rule="nonzero"/><path fill="#ffffff" d="M 0.542969 0 L 303.207031 0 L 303.207031 169.644531 L 0.542969 169.644531 Z M 0.542969 0 " fill-opacity="1" fill-rule="nonzero"/><path fill="#ff914d" d="M 0.542969 0 L 303.207031 0 L 303.207031 169.644531 L 0.542969 169.644531 Z M 0.542969 0 " fill-opacity="1" fill-rule="nonzero"/></g><g clip-path="url(#82fdd725f2)"><path fill="#ffffff" d="M 185.738281 118.757812 L 117.941406 118.757812 C 117.355469 118.757812 116.882812 118.28125 116.882812 117.695312 L 116.882812 76.351562 C 116.882812 75.765625 117.355469 75.289062 117.941406 75.289062 C 118.527344 75.289062 119 75.765625 119 76.351562 L 119 116.632812 L 184.679688 116.632812 L 184.679688 76.351562 C 184.679688 75.765625 185.152344 75.289062 185.738281 75.289062 C 186.324219 75.289062 186.800781 75.765625 186.800781 76.351562 L 186.800781 117.695312 C 186.800781 118.28125 186.324219 118.757812 185.738281 118.757812 " fill-opacity="1" fill-rule="nonzero"/></g><g clip-path="url(#1a3ffa9426)"><path fill="#ffffff" d="M 185.738281 118.757812 C 185.519531 118.757812 185.300781 118.691406 185.113281 118.554688 L 151.839844 94.105469 L 118.566406 118.554688 C 118.089844 118.902344 117.433594 118.792969 117.085938 118.324219 C 116.742188 117.851562 116.84375 117.183594 117.316406 116.835938 L 151.214844 91.929688 C 151.585938 91.65625 152.09375 91.65625 152.464844 91.929688 L 186.363281 116.835938 C 186.835938 117.183594 186.9375 117.851562 186.59375 118.324219 C 186.386719 118.605469 186.0625 118.757812 185.738281 118.757812 " fill-opacity="1" fill-rule="nonzero"/></g><g clip-path="url(#60c6e29078)"><path fill="#ffffff" d="M 185.738281 77.414062 C 185.519531 77.414062 185.300781 77.347656 185.113281 77.210938 L 170.621094 66.5625 C 170.148438 66.214844 170.046875 65.550781 170.390625 65.074219 C 170.738281 64.605469 171.398438 64.496094 171.875 64.847656 L 186.363281 75.496094 C 186.835938 75.84375 186.9375 76.507812 186.59375 76.980469 C 186.386719 77.265625 186.0625 77.414062 185.738281 77.414062 " fill-opacity="1" fill-rule="nonzero"/></g><g clip-path="url(#15a99f6c7b)"><path fill="#ffffff" d="M 117.941406 77.414062 C 117.617188 77.414062 117.292969 77.265625 117.085938 76.980469 C 116.742188 76.507812 116.84375 75.839844 117.316406 75.496094 L 131.382812 65.160156 C 131.855469 64.808594 132.515625 64.917969 132.863281 65.386719 C 133.207031 65.863281 133.105469 66.527344 132.632812 66.875 L 118.566406 77.210938 C 118.378906 77.347656 118.160156 77.414062 117.941406 77.414062 " fill-opacity="1" fill-rule="nonzero"/></g><g clip-path="url(#1144e9d45a)"><path fill="#ffffff" d="M 157.605469 98.085938 C 157.28125 98.085938 156.957031 97.933594 156.75 97.652344 C 156.40625 97.179688 156.507812 96.511719 156.980469 96.164062 L 185.113281 75.496094 C 185.585938 75.148438 186.25 75.25 186.59375 75.722656 C 186.9375 76.195312 186.835938 76.863281 186.363281 77.210938 L 158.230469 97.882812 C 158.042969 98.019531 157.824219 98.085938 157.605469 98.085938 " fill-opacity="1" fill-rule="nonzero"/></g><g clip-path="url(#c1caae320b)"><path fill="#ffffff" d="M 146.074219 98.085938 C 145.855469 98.085938 145.636719 98.019531 145.449219 97.882812 L 117.316406 77.210938 C 116.84375 76.863281 116.742188 76.195312 117.085938 75.722656 C 117.433594 75.25 118.089844 75.148438 118.566406 75.496094 L 146.699219 96.164062 C 147.171875 96.511719 147.273438 97.179688 146.929688 97.652344 C 146.722656 97.933594 146.398438 98.085938 146.074219 98.085938 " fill-opacity="1" fill-rule="nonzero"/></g><g clip-path="url(#0a32eca8a7)"><path fill="#ffffff" d="M 170.859375 88.347656 C 170.277344 88.347656 169.800781 87.871094 169.800781 87.285156 L 169.800781 53.015625 L 133.066406 53.015625 L 133.066406 86.585938 C 133.066406 87.171875 132.59375 87.648438 132.007812 87.648438 C 131.421875 87.648438 130.949219 87.171875 130.949219 86.585938 L 130.949219 51.953125 C 130.949219 51.367188 131.421875 50.890625 132.007812 50.890625 L 170.859375 50.890625 C 171.445312 50.890625 171.921875 51.367188 171.921875 51.953125 L 171.921875 87.285156 C 171.921875 87.871094 171.445312 88.347656 170.859375 88.347656 " fill-opacity="1" fill-rule="nonzero"/></g><path fill="#ffffff" d="M 151.96875 68.832031 C 150.121094 68.832031 148.617188 70.339844 148.617188 72.191406 C 148.617188 74.046875 150.121094 75.550781 151.96875 75.550781 C 153.816406 75.550781 155.320312 74.046875 155.320312 72.191406 C 155.320312 70.339844 153.816406 68.832031 151.96875 68.832031 Z M 151.96875 77.675781 C 148.953125 77.675781 146.5 75.21875 146.5 72.191406 C 146.5 69.167969 148.953125 66.707031 151.96875 66.707031 C 154.984375 66.707031 157.4375 69.167969 157.4375 72.191406 C 157.4375 75.21875 154.984375 77.675781 151.96875 77.675781 " fill-opacity="1" fill-rule="nonzero"/><path fill="#ffffff" d="M 151.433594 85.3125 C 144.363281 85.3125 138.613281 79.542969 138.613281 72.453125 C 138.613281 65.363281 144.363281 59.59375 151.433594 59.59375 C 158.503906 59.59375 164.253906 65.363281 164.253906 72.453125 L 164.253906 73.511719 C 164.253906 75.953125 162.273438 77.9375 159.839844 77.9375 C 157.40625 77.9375 155.421875 75.953125 155.421875 73.511719 L 155.421875 68.03125 C 155.421875 67.445312 155.898438 66.96875 156.484375 66.96875 C 157.066406 66.96875 157.542969 67.445312 157.542969 68.03125 L 157.542969 73.511719 C 157.542969 74.78125 158.574219 75.8125 159.839844 75.8125 C 161.105469 75.8125 162.136719 74.78125 162.136719 73.511719 L 162.136719 72.453125 C 162.136719 66.535156 157.335938 61.71875 151.433594 61.71875 C 145.535156 61.71875 140.734375 66.535156 140.734375 72.453125 C 140.734375 78.371094 145.535156 83.1875 151.433594 83.1875 C 153.542969 83.1875 155.582031 82.574219 157.332031 81.410156 C 157.816406 81.082031 158.476562 81.222656 158.796875 81.710938 C 159.125 82.199219 158.988281 82.859375 158.5 83.183594 C 156.402344 84.578125 153.960938 85.3125 151.433594 85.3125 " fill-opacity="1" fill-rule="nonzero"/></svg>