<svg xmlns="http://www.w3.org/2000/svg" xmlns:xlink="http://www.w3.org/1999/xlink" width="405" zoomAndPan="magnify" viewBox="0 0 303.75 170.249993" height="227" preserveAspectRatio="xMidYMid meet" version="1.0"><defs><clipPath id="ed3d37d7eb"><path d="M 0.542969 0 L 302.960938 0 L 302.960938 169.503906 L 0.542969 169.503906 Z M 0.542969 0 " clip-rule="nonzero"/></clipPath><clipPath id="0e74af1cb4"><path d="M 109 45.679688 L 194.925781 45.679688 L 194.925781 124.148438 L 109 124.148438 Z M 109 45.679688 " clip-rule="nonzero"/></clipPath></defs><g clip-path="url(#ed3d37d7eb)"><path fill="#ffffff" d="M 0.542969 0 L 303.207031 0 L 303.207031 177.117188 L 0.542969 177.117188 Z M 0.542969 0 " fill-opacity="1" fill-rule="nonzero"/><path fill="#ffffff" d="M 0.542969 0 L 303.207031 0 L 303.207031 169.644531 L 0.542969 169.644531 Z M 0.542969 0 " fill-opacity="1" fill-rule="nonzero"/><path fill="#8c52ff" d="M 0.542969 0 L 303.207031 0 L 303.207031 169.644531 L 0.542969 169.644531 Z M 0.542969 0 " fill-opacity="1" fill-rule="nonzero"/></g><g clip-path="url(#0e74af1cb4)"><path fill="#ffffff" d="M 190.195312 45.679688 L 113.710938 45.679688 C 111.128906 45.679688 109.03125 47.78125 109.03125 50.363281 L 109.03125 99 C 109.03125 101.582031 111.128906 103.683594 113.710938 103.683594 L 161.378906 103.683594 C 161.816406 105.289062 162.539062 106.769531 163.496094 108.078125 C 160.933594 111.699219 158.914062 115.824219 157.496094 120.351562 C 157.410156 120.625 157.503906 120.921875 157.730469 121.09375 C 157.957031 121.269531 158.265625 121.285156 158.507812 121.132812 C 159.558594 120.472656 162.625 118.839844 164.160156 119.21875 C 165.488281 119.546875 167.023438 122.144531 167.679688 123.707031 C 167.789062 123.960938 168.035156 124.125 168.308594 124.125 C 168.34375 124.125 168.382812 124.121094 168.421875 124.113281 C 168.734375 124.0625 168.96875 123.800781 168.988281 123.484375 C 169.207031 119.886719 170.246094 116.515625 172.066406 113.441406 C 172.832031 113.578125 173.617188 113.664062 174.421875 113.664062 C 175.230469 113.664062 176.015625 113.578125 176.78125 113.441406 C 178.597656 116.515625 179.640625 119.886719 179.859375 123.484375 C 179.878906 123.800781 180.113281 124.0625 180.425781 124.113281 C 180.464844 124.121094 180.5 124.125 180.539062 124.125 C 180.808594 124.125 181.058594 123.960938 181.167969 123.707031 C 181.824219 122.144531 183.355469 119.546875 184.683594 119.21875 C 186.226562 118.839844 189.285156 120.472656 190.335938 121.132812 C 190.578125 121.285156 190.890625 121.269531 191.117188 121.09375 C 191.34375 120.921875 191.4375 120.625 191.351562 120.351562 C 189.933594 115.820312 187.910156 111.699219 185.351562 108.078125 C 186.308594 106.769531 187.03125 105.285156 187.46875 103.683594 L 190.195312 103.683594 C 192.777344 103.683594 194.875 101.582031 194.875 99 L 194.875 50.363281 C 194.875 47.78125 192.777344 45.679688 190.195312 45.679688 Z M 174.421875 86.570312 C 167.835938 86.570312 162.339844 91.304688 161.136719 97.546875 L 115.175781 97.546875 L 115.175781 51.816406 L 188.730469 51.816406 L 188.730469 97.546875 L 187.707031 97.546875 C 186.503906 91.304688 181.007812 86.570312 174.421875 86.570312 Z M 167.875 121.105469 C 167.074219 119.773438 165.878906 118.242188 164.488281 117.898438 C 162.96875 117.519531 160.808594 118.375 159.347656 119.105469 C 160.628906 115.484375 162.324219 112.160156 164.390625 109.175781 C 166.058594 111.023438 168.21875 112.410156 170.671875 113.121094 C 169.257812 115.613281 168.316406 118.289062 167.875 121.105469 Z M 162.25 100.117188 C 162.25 93.398438 167.710938 87.933594 174.421875 87.933594 C 181.136719 87.933594 186.597656 93.398438 186.597656 100.117188 C 186.597656 106.832031 181.136719 112.296875 174.421875 112.296875 C 167.710938 112.296875 162.25 106.832031 162.25 100.117188 Z M 189.496094 119.105469 C 188.035156 118.375 185.882812 117.519531 184.355469 117.898438 C 182.964844 118.242188 181.773438 119.773438 180.96875 121.109375 C 180.527344 118.289062 179.589844 115.613281 178.175781 113.121094 C 180.628906 112.414062 182.789062 111.027344 184.457031 109.179688 C 186.519531 112.15625 188.214844 115.484375 189.496094 119.105469 Z M 193.511719 99 C 193.511719 100.832031 192.023438 102.320312 190.195312 102.320312 L 187.765625 102.320312 C 187.882812 101.601562 187.960938 100.867188 187.960938 100.117188 C 187.960938 99.710938 187.933594 99.308594 187.898438 98.910156 L 189.410156 98.910156 C 189.789062 98.910156 190.09375 98.605469 190.09375 98.230469 L 190.09375 51.136719 C 190.09375 50.757812 189.789062 50.453125 189.410156 50.453125 L 114.492188 50.453125 C 114.117188 50.453125 113.8125 50.757812 113.8125 51.136719 L 113.8125 98.230469 C 113.8125 98.605469 114.117188 98.910156 114.492188 98.910156 L 160.945312 98.910156 C 160.910156 99.308594 160.886719 99.710938 160.886719 100.117188 C 160.886719 100.867188 160.960938 101.601562 161.082031 102.320312 L 113.710938 102.320312 C 111.882812 102.320312 110.390625 100.832031 110.390625 99 L 110.390625 50.363281 C 110.390625 48.535156 111.882812 47.042969 113.710938 47.042969 L 190.195312 47.042969 C 192.023438 47.042969 193.511719 48.535156 193.511719 50.363281 Z M 193.511719 99 " fill-opacity="1" fill-rule="nonzero"/></g><path fill="#ffffff" d="M 130.621094 62.390625 L 172.949219 62.390625 C 173.324219 62.390625 173.628906 62.085938 173.628906 61.710938 L 173.628906 55.539062 C 173.628906 55.164062 173.324219 54.859375 172.949219 54.859375 L 130.621094 54.859375 C 130.242188 54.859375 129.9375 55.164062 129.9375 55.539062 L 129.9375 61.710938 C 129.9375 62.085938 130.242188 62.390625 130.621094 62.390625 Z M 131.300781 56.222656 L 172.269531 56.222656 L 172.269531 61.027344 L 131.300781 61.027344 Z M 131.300781 56.222656 " fill-opacity="1" fill-rule="nonzero"/><path fill="#ffffff" d="M 181.234375 69.640625 L 124.195312 69.640625 C 123.816406 69.640625 123.515625 69.945312 123.515625 70.324219 C 123.515625 70.699219 123.816406 71.003906 124.195312 71.003906 L 181.234375 71.003906 C 181.613281 71.003906 181.917969 70.699219 181.917969 70.324219 C 181.917969 69.945312 181.609375 69.640625 181.234375 69.640625 Z M 181.234375 69.640625 " fill-opacity="1" fill-rule="nonzero"/><path fill="#ffffff" d="M 144.042969 77.816406 C 144.421875 77.816406 144.726562 77.511719 144.726562 77.136719 C 144.726562 76.761719 144.421875 76.453125 144.042969 76.453125 L 129.207031 76.453125 C 128.828125 76.453125 128.523438 76.761719 128.523438 77.136719 C 128.523438 77.511719 128.828125 77.816406 129.207031 77.816406 Z M 144.042969 77.816406 " fill-opacity="1" fill-rule="nonzero"/><path fill="#ffffff" d="M 177.894531 76.453125 L 154.414062 76.453125 C 154.035156 76.453125 153.730469 76.761719 153.730469 77.136719 C 153.730469 77.511719 154.035156 77.816406 154.414062 77.816406 L 177.894531 77.816406 C 178.269531 77.816406 178.574219 77.511719 178.574219 77.136719 C 178.574219 76.761719 178.269531 76.453125 177.894531 76.453125 Z M 177.894531 76.453125 " fill-opacity="1" fill-rule="nonzero"/><path fill="#ffffff" d="M 149.027344 88.613281 C 147.289062 87.945312 144.902344 88.042969 142.34375 88.898438 C 142.886719 87.074219 142.15625 86.351562 141.667969 86.078125 C 141.238281 85.84375 140.363281 85.355469 134.683594 88.675781 C 135.652344 86.703125 135.53125 85.875 135.347656 85.414062 C 135.1875 85.027344 134.886719 84.75 134.480469 84.617188 C 131.429688 83.644531 124.808594 90.695312 123.511719 92.121094 C 123.257812 92.398438 123.277344 92.828125 123.554688 93.082031 C 123.683594 93.203125 123.851562 93.261719 124.015625 93.261719 C 124.199219 93.261719 124.382812 93.1875 124.515625 93.039062 C 127.496094 89.765625 132.429688 85.394531 134.078125 85.917969 C 134.082031 85.921875 134.34375 86.433594 133.222656 88.535156 C 132.964844 89.015625 133.058594 89.589844 133.449219 89.96875 C 133.84375 90.34375 134.421875 90.414062 134.894531 90.132812 C 138.980469 87.707031 140.683594 87.199219 141.007812 87.273438 C 141.273438 87.417969 141.1875 88.042969 141.015625 88.582031 C 140.871094 89.046875 140.996094 89.546875 141.34375 89.886719 C 141.695312 90.234375 142.207031 90.351562 142.675781 90.199219 C 145 89.433594 147.082031 89.324219 148.535156 89.886719 C 148.890625 90.019531 149.28125 89.847656 149.417969 89.496094 C 149.550781 89.144531 149.378906 88.75 149.027344 88.613281 Z M 149.027344 88.613281 " fill-opacity="1" fill-rule="nonzero"/><path fill="#ffffff" d="M 174.421875 89.667969 C 168.664062 89.667969 163.980469 94.355469 163.980469 100.117188 C 163.980469 105.878906 168.664062 110.566406 174.421875 110.566406 C 180.179688 110.566406 184.863281 105.878906 184.863281 100.117188 C 184.863281 94.355469 180.179688 89.667969 174.421875 89.667969 Z M 174.421875 109.203125 C 169.417969 109.203125 165.34375 105.125 165.34375 100.117188 C 165.34375 95.105469 169.417969 91.03125 174.421875 91.03125 C 179.429688 91.03125 183.5 95.105469 183.5 100.117188 C 183.5 105.125 179.429688 109.203125 174.421875 109.203125 Z M 174.421875 109.203125 " fill-opacity="1" fill-rule="nonzero"/><path fill="#ffffff" d="M 181.160156 97.257812 C 181.054688 97.011719 180.808594 96.851562 180.539062 96.851562 L 176.617188 96.851562 L 175.03125 93.734375 C 174.796875 93.277344 174.050781 93.277344 173.816406 93.734375 L 172.230469 96.851562 L 168.308594 96.851562 C 168.039062 96.851562 167.792969 97.011719 167.683594 97.257812 C 167.574219 97.507812 167.621094 97.792969 167.804688 97.992188 L 170.574219 101.011719 L 169.039062 104.789062 C 168.933594 105.054688 169.003906 105.359375 169.214844 105.550781 C 169.425781 105.742188 169.734375 105.78125 169.988281 105.652344 L 174.425781 103.335938 L 178.863281 105.652344 C 178.960938 105.703125 179.070312 105.726562 179.175781 105.726562 C 179.339844 105.726562 179.507812 105.667969 179.632812 105.550781 C 179.847656 105.359375 179.914062 105.054688 179.808594 104.789062 L 178.273438 101.011719 L 181.042969 97.992188 C 181.222656 97.792969 181.269531 97.507812 181.160156 97.257812 Z M 176.976562 100.40625 C 176.800781 100.601562 176.75 100.878906 176.847656 101.125 L 177.847656 103.585938 L 174.738281 101.964844 C 174.542969 101.859375 174.304688 101.859375 174.109375 101.964844 L 171 103.585938 L 171.996094 101.125 C 172.097656 100.878906 172.046875 100.601562 171.867188 100.40625 L 169.859375 98.214844 L 172.648438 98.214844 C 172.902344 98.214844 173.136719 98.070312 173.253906 97.84375 L 174.425781 95.546875 L 175.59375 97.84375 C 175.710938 98.070312 175.945312 98.214844 176.203125 98.214844 L 178.992188 98.214844 Z M 176.976562 100.40625 " fill-opacity="1" fill-rule="nonzero"/></svg>