<svg xmlns="http://www.w3.org/2000/svg" xmlns:xlink="http://www.w3.org/1999/xlink" width="405" zoomAndPan="magnify" viewBox="0 0 303.75 170.249993" height="227" preserveAspectRatio="xMidYMid meet" version="1.0"><defs><clipPath id="8843776641"><path d="M 0.542969 0 L 302.960938 0 L 302.960938 169.503906 L 0.542969 169.503906 Z M 0.542969 0 " clip-rule="nonzero"/></clipPath><clipPath id="366b37a28d"><path d="M 125.199219 50.894531 L 178.257812 50.894531 L 178.257812 118.898438 L 125.199219 118.898438 Z M 125.199219 50.894531 " clip-rule="nonzero"/></clipPath></defs><g clip-path="url(#8843776641)"><path fill="#ffffff" d="M 0.542969 0 L 303.207031 0 L 303.207031 177.117188 L 0.542969 177.117188 Z M 0.542969 0 " fill-opacity="1" fill-rule="nonzero"/><path fill="#ffffff" d="M 0.542969 0 L 303.207031 0 L 303.207031 169.644531 L 0.542969 169.644531 Z M 0.542969 0 " fill-opacity="1" fill-rule="nonzero"/><path fill="#00bf63" d="M 0.542969 0 L 303.207031 0 L 303.207031 169.644531 L 0.542969 169.644531 Z M 0.542969 0 " fill-opacity="1" fill-rule="nonzero"/></g><g clip-path="url(#366b37a28d)"><path fill="#ffffff" d="M 178.222656 72.5 L 178.222656 59.71875 C 178.222656 54.769531 166.589844 50.894531 151.734375 50.894531 C 136.878906 50.894531 125.242188 54.769531 125.242188 59.71875 L 125.242188 72.5 C 125.242188 73.648438 125.835938 74.742188 127.007812 75.757812 C 126.019531 76.589844 125.242188 77.378906 125.242188 78.503906 L 125.242188 91.285156 C 125.242188 92.433594 125.835938 93.53125 127.007812 94.546875 C 126.023438 95.375 125.242188 96.160156 125.242188 97.292969 L 125.242188 110.074219 C 125.242188 115.023438 136.878906 118.898438 151.734375 118.898438 C 166.589844 118.898438 178.222656 115.023438 178.222656 110.074219 L 178.222656 97.292969 C 178.222656 96.160156 177.445312 95.375 176.460938 94.546875 C 177.632812 93.53125 178.222656 92.433594 178.222656 91.285156 L 178.222656 78.503906 C 178.222656 77.378906 177.445312 76.589844 176.460938 75.757812 C 177.632812 74.742188 178.222656 73.648438 178.222656 72.5 Z M 128.394531 76.765625 C 132.921875 79.554688 141.878906 81.324219 151.734375 81.324219 C 161.585938 81.324219 170.546875 79.554688 175.074219 76.765625 L 175.074219 77.59375 C 175.074219 80.726562 165.695312 84.082031 151.734375 84.082031 C 137.773438 84.082031 128.394531 80.726562 128.394531 77.59375 Z M 151.734375 51.972656 C 166.9375 51.972656 177.152344 55.976562 177.152344 59.71875 C 177.152344 63.457031 166.9375 67.464844 151.734375 67.464844 C 136.53125 67.464844 126.316406 63.457031 126.316406 59.71875 C 126.316406 55.976562 136.53125 51.972656 151.734375 51.972656 Z M 128.394531 95.550781 C 132.921875 98.339844 141.882812 100.109375 151.734375 100.109375 C 161.585938 100.109375 170.542969 98.339844 175.074219 95.550781 L 175.074219 96.382812 C 175.074219 99.515625 165.695312 102.871094 151.734375 102.871094 C 137.773438 102.871094 128.394531 99.515625 128.394531 96.382812 Z M 151.734375 105.039062 C 136.53125 105.039062 126.316406 101.035156 126.316406 97.292969 C 126.316406 96.734375 126.722656 96.238281 127.320312 95.699219 L 127.320312 96.382812 C 127.320312 101.117188 139.734375 103.949219 151.734375 103.949219 C 163.734375 103.949219 176.144531 101.117188 176.144531 96.382812 L 176.144531 95.699219 C 176.746094 96.238281 177.152344 96.734375 177.152344 97.292969 C 177.152344 101.035156 166.9375 105.039062 151.734375 105.039062 Z M 151.734375 86.25 C 136.53125 86.25 126.316406 82.246094 126.316406 78.503906 C 126.316406 77.949219 126.722656 77.453125 127.320312 76.914062 L 127.320312 77.59375 C 127.320312 82.328125 139.734375 85.160156 151.734375 85.160156 C 163.734375 85.160156 176.144531 82.332031 176.144531 77.59375 L 176.144531 76.914062 C 176.746094 77.453125 177.152344 77.949219 177.152344 78.503906 C 177.152344 82.246094 166.9375 86.25 151.734375 86.25 Z M 151.734375 86.25 " fill-opacity="1" fill-rule="nonzero"/></g><path fill="#ffffff" d="M 141.859375 65.269531 L 161.609375 65.269531 C 161.78125 65.269531 161.941406 65.191406 162.042969 65.050781 C 162.144531 64.914062 162.171875 64.734375 162.121094 64.570312 L 160.113281 58.078125 C 160.042969 57.851562 159.835938 57.699219 159.601562 57.699219 L 158.867188 57.699219 L 157.902344 53.90625 C 157.84375 53.667969 157.628906 53.5 157.382812 53.5 L 146.082031 53.5 C 145.839844 53.5 145.625 53.667969 145.566406 53.90625 L 145.195312 55.355469 L 144.589844 55.355469 C 144.355469 55.355469 144.148438 55.507812 144.078125 55.734375 L 141.347656 64.570312 C 141.296875 64.734375 141.324219 64.914062 141.425781 65.050781 C 141.527344 65.1875 141.6875 65.269531 141.859375 65.269531 Z M 146.5 54.578125 L 156.96875 54.578125 L 157.761719 57.699219 L 149.820312 57.699219 L 149.464844 55.796875 C 149.417969 55.539062 149.195312 55.355469 148.9375 55.355469 L 146.300781 55.355469 Z M 144.984375 56.4375 L 148.496094 56.4375 L 148.851562 58.339844 C 148.898438 58.59375 149.121094 58.777344 149.378906 58.777344 L 159.207031 58.777344 L 160.882812 64.191406 L 142.585938 64.191406 Z M 144.984375 56.4375 " fill-opacity="1" fill-rule="nonzero"/></svg>